<?xml version="1.0" encoding="UTF-8"?>
<svg version="1.1" xmlns="http://www.w3.org/2000/svg" width="378" height="264">
<path d="M0 0 C13.18488685 12.46325109 33.08647054 32.07574487 35.25 51.4375 C34.15115123 63.21715883 24.88905976 74.72311255 17.3125 83.0625 C16.55710937 83.92488281 15.80171875 84.78726563 15.0234375 85.67578125 C-5.30894974 108.69819223 -30.48748484 125.52723273 -59.6875 135.0625 C-60.47535889 135.32683838 -61.26321777 135.59117676 -62.07495117 135.86352539 C-86.41904065 143.66899856 -114.84139857 143.0813223 -139.6875 138.0625 C-141.18168457 137.76448486 -141.18168457 137.76448486 -142.70605469 137.46044922 C-183.69332479 129.0912223 -220.86035401 111.89786331 -255.6875 89.0625 C-256.20844238 89.45501953 -256.72938477 89.84753906 -257.26611328 90.25195312 C-262.66206228 94.30980635 -268.09708822 98.27516856 -273.6875 102.0625 C-274.75484375 102.80306641 -274.75484375 102.80306641 -275.84375 103.55859375 C-292.46821442 114.35864194 -317.77167719 123.82426699 -337.75 120.5625 C-338.389375 120.3975 -339.02875 120.2325 -339.6875 120.0625 C-338.38005664 115.85240727 -336.77169819 112.03978963 -334.75 108.125 C-333.15286552 105.02468012 -331.70594564 102.11783693 -330.6015625 98.8046875 C-328.23889436 93.19808141 -323.30201364 89.26336718 -319 85.125 C-318.10732422 84.25037109 -317.21464844 83.37574219 -316.29492188 82.47460938 C-314.10125641 80.32786724 -311.8987923 78.19105579 -309.6875 76.0625 C-311.76425859 75.84663862 -311.76425859 75.84663862 -313.19970703 77.34765625 C-313.77575684 77.93417969 -314.35180664 78.52070313 -314.9453125 79.125 C-315.57050781 79.75664062 -316.19570313 80.38828125 -316.83984375 81.0390625 C-317.49082031 81.70679688 -318.14179688 82.37453125 -318.8125 83.0625 C-319.47121094 83.73023438 -320.12992187 84.39796875 -320.80859375 85.0859375 C-322.43944324 86.74042249 -324.0654585 88.39938616 -325.6875 90.0625 C-326.87077388 86.04984598 -326.23484809 83.52571386 -325.25 79.4375 C-319.53842979 51.97977527 -325.08207841 22.90940517 -339.6875 -0.9375 C-337.32784083 -3.29715917 -330.95542119 -2.24880087 -327.66479492 -2.25439453 C-303.03476726 -1.88668054 -278.86505962 9.09181806 -259.6875 24.0625 C-259.0275 25.0525 -258.3675 26.0425 -257.6875 27.0625 C-258.92113281 27.98869141 -258.92113281 27.98869141 -260.1796875 28.93359375 C-268.06493449 34.89939781 -275.68319333 41.05819333 -282.6875 48.0625 C-278.61789841 46.69396141 -276.10291717 44.88142472 -273 41.9375 C-268.92570219 38.16455557 -264.75214073 34.63268899 -260.38378906 31.20678711 C-257.75166934 29.11353218 -255.17364361 26.965693 -252.59375 24.80859375 C-246.99102898 20.22152131 -241.16547698 16.11154645 -235.125 12.125 C-234.07707275 11.43188721 -233.02914551 10.73877441 -231.94946289 10.0246582 C-223.09368932 4.22600174 -214.11695227 -1.12990657 -204.6875 -5.9375 C-203.83430176 -6.37368652 -202.98110352 -6.80987305 -202.10205078 -7.25927734 C-180.21268529 -18.3315205 -157.58696756 -27.30226745 -133.6875 -32.9375 C-132.6663208 -33.1862085 -132.6663208 -33.1862085 -131.62451172 -33.43994141 C-81.77679176 -45.30601844 -37.37833927 -34.61130452 0 0 Z M-49.6875 25.0625 C-51.48788454 30.46365361 -51.54592938 35.2796082 -49.0625 40.4375 C-45.46850622 44.40980892 -42.50775411 45.86747277 -37.1875 46.4375 C-31.88910938 45.86981529 -28.41587241 44.12405729 -24.875 40.1875 C-22.19104538 36.43986887 -22.19104538 36.43986887 -21.6875 32.0625 C-22.64524185 27.39140816 -23.77936812 23.97063188 -27.1875 20.5625 C-35.85676598 15.36094041 -43.40008688 17.87688501 -49.6875 25.0625 Z " fill="#2C92E9" transform="translate(339.6875,78.9375)"/>
<path d="M0 0 C24.63002766 0.36771399 48.7997353 11.34621259 67.97729492 26.31689453 C68.96729492 27.80189453 68.96729492 27.80189453 69.97729492 29.31689453 C69.15487305 29.93435547 68.33245117 30.55181641 67.48510742 31.18798828 C59.59986044 37.15379235 51.98160159 43.31258786 44.97729492 50.31689453 C50.32417417 48.56319439 53.42114082 45.2750418 57.37963867 41.41064453 C60.17817249 39.15498419 62.528826 38.24050193 65.97729492 37.31689453 C72.97729492 44.31689453 72.97729492 44.31689453 75.37963867 46.73095703 C84.59564733 55.90538971 93.89264114 63.53308641 104.97729492 70.31689453 C105.61151367 70.70619141 106.24573242 71.09548828 106.89916992 71.49658203 C127.83511638 84.80287546 127.83511638 84.80287546 150.97729492 89.31689453 C153.49373739 87.44264919 153.49373739 87.44264919 155.72729492 84.94189453 C156.50588867 84.12978516 157.28448242 83.31767578 158.08666992 82.48095703 C160.00830366 80.4646099 160.00830366 80.4646099 160.97729492 78.31689453 C161.63729492 78.64689453 162.29729492 78.97689453 162.97729492 79.31689453 C162.51838867 79.83638672 162.05948242 80.35587891 161.58666992 80.89111328 C158.29346884 84.63401619 155.04777304 88.38668254 151.97729492 92.31689453 C173.30692122 98.21390886 194.00109043 98.97440331 215.97729492 99.31689453 C215.97729492 98.65689453 215.97729492 97.99689453 215.97729492 97.31689453 C217.23541992 97.14673828 218.49354492 96.97658203 219.78979492 96.80126953 C239.20994691 94.09072676 256.56063345 89.31213019 274.34057617 80.98095703 C275.97729492 80.31689453 275.97729492 80.31689453 277.97729492 80.31689453 C277.97729492 79.65689453 277.97729492 78.99689453 277.97729492 78.31689453 C278.48776367 78.06037109 278.99823242 77.80384766 279.52416992 77.53955078 C302.99675695 65.17898634 321.92726491 44.33869891 332.97729492 20.31689453 C333.63729492 20.31689453 334.29729492 20.31689453 334.97729492 20.31689453 C335.63729492 18.99689453 336.29729492 17.67689453 336.97729492 16.31689453 C340.97729492 16.31689453 340.97729492 16.31689453 342.51245117 17.43408203 C350.55694515 26.69245106 363.06425066 42.6325032 362.57885742 55.53955078 C360.11447496 66.91731658 352.63378909 76.88952467 344.97729492 85.31689453 C344.2219043 86.17927734 343.46651367 87.04166016 342.68823242 87.93017578 C322.35584518 110.95258676 297.17731008 127.78162726 267.97729492 137.31689453 C267.18943604 137.58123291 266.40157715 137.84557129 265.58984375 138.11791992 C241.24575427 145.92339309 212.82339635 145.33571684 187.97729492 140.31689453 C186.48311035 140.01887939 186.48311035 140.01887939 184.95874023 139.71484375 C143.97147013 131.34561683 106.80444091 114.15225784 71.97729492 91.31689453 C71.45635254 91.70941406 70.93541016 92.10193359 70.39868164 92.50634766 C65.00273265 96.56420088 59.5677067 100.52956309 53.97729492 104.31689453 C52.90995117 105.05746094 52.90995117 105.05746094 51.82104492 105.81298828 C35.19658051 116.61303647 9.89311773 126.07866152 -10.08520508 122.81689453 C-10.72458008 122.65189453 -11.36395508 122.48689453 -12.02270508 122.31689453 C-10.71526172 118.1068018 -9.10690327 114.29418416 -7.08520508 110.37939453 C-5.48807059 107.27907465 -4.04115072 104.37223146 -2.93676758 101.05908203 C-0.57409944 95.45247594 4.36278128 91.51776171 8.66479492 87.37939453 C9.5574707 86.50476563 10.45014648 85.63013672 11.36987305 84.72900391 C13.56353851 82.58226177 15.76600262 80.44545032 17.97729492 78.31689453 C15.90053634 78.10103315 15.90053634 78.10103315 14.46508789 79.60205078 C13.88903809 80.18857422 13.31298828 80.77509766 12.71948242 81.37939453 C12.09428711 82.01103516 11.4690918 82.64267578 10.82495117 83.29345703 C10.17397461 83.96119141 9.52299805 84.62892578 8.85229492 85.31689453 C8.19358398 85.98462891 7.53487305 86.65236328 6.85620117 87.34033203 C5.22535168 88.99481702 3.59933643 90.65378069 1.97729492 92.31689453 C0.79402104 88.30424051 1.42994683 85.78010839 2.41479492 81.69189453 C8.12636513 54.2341698 2.58271652 25.1637997 -12.02270508 1.31689453 C-9.66304591 -1.04276464 -3.29062627 0.00559366 0 0 Z " fill="#0A97C3" transform="translate(12.022705078125,76.68310546875)"/>
<path d="M0 0 C18.44858453 7.96643423 33.02596983 21.88761309 47 36 C45.79618552 38.49361571 44.54571278 40.68143083 43 43 C42.34 43 41.68 43 41 43 C40.7525 43.66 40.505 44.32 40.25 45 C35.3408654 56.78192304 27.50292794 69.30698069 18 78 C17.34 78 16.68 78 16 78 C15.79117188 78.55171875 15.58234375 79.1034375 15.3671875 79.671875 C13.50484435 82.84317933 10.92472715 84.93744647 8.125 87.25 C7.55217285 87.72800049 6.9793457 88.20600098 6.38916016 88.69848633 C-8.58963301 101 -8.58963301 101 -14 101 C-14 101.66 -14 102.32 -14 103 C-33.27516834 112.18015382 -54.26183931 120.71272658 -76 120 C-76 120.66 -76 121.32 -76 122 C-122.89086643 123.07995618 -122.89086643 123.07995618 -140 115 C-138.60366893 111.81440048 -136.95442507 109.76056155 -134.4375 107.375 C-131.85984611 104.95478041 -131.85984611 104.95478041 -130 102 C-129.34 102 -128.68 102 -128 102 C-127.76748535 101.44223877 -127.5349707 100.88447754 -127.29541016 100.30981445 C-125.66376361 97.40046504 -123.63827874 95.39651509 -121.2734375 93.04296875 C-120.8069278 92.57691727 -120.34041809 92.11086578 -119.85977173 91.63069153 C-118.8719326 90.64586655 -117.88167105 89.66346619 -116.88916016 88.68334961 C-115.39566953 87.20791957 -113.9101425 85.7248426 -112.42578125 84.24023438 C-107.11893297 78.95300507 -101.71323627 73.84587764 -96 69 C-94.99041802 68.12293356 -93.98127373 67.24536294 -92.97265625 66.3671875 C-76.04289184 51.8689463 -57.98024954 38.63747079 -39.5 26.1875 C-38.87077637 25.76057861 -38.24155273 25.33365723 -37.59326172 24.89379883 C-33.24132837 22 -33.24132837 22 -31 22 C-30.505 20.515 -30.505 20.515 -30 19 C-21.02057074 12.69529435 -9.91557502 8.61770596 0 4 C0 2.68 0 1.36 0 0 Z M-14 50 C-15.80038454 55.40115361 -15.85842938 60.2171082 -13.375 65.375 C-9.78100622 69.34730892 -6.82025411 70.80497277 -1.5 71.375 C3.79839062 70.80731529 7.27162759 69.06155729 10.8125 65.125 C13.49645462 61.37736887 13.49645462 61.37736887 14 57 C13.04225815 52.32890816 11.90813188 48.90813188 8.5 45.5 C-0.16926598 40.29844041 -7.71258688 42.81438501 -14 50 Z " fill="#24CCDB" transform="translate(304,54)"/>
<path d="M0 0 C24.63002766 0.36771399 48.7997353 11.34621259 67.97729492 26.31689453 C68.96729492 27.80189453 68.96729492 27.80189453 69.97729492 29.31689453 C69.15487305 29.93435547 68.33245117 30.55181641 67.48510742 31.18798828 C59.59986044 37.15379235 51.98160159 43.31258786 44.97729492 50.31689453 C50.32417417 48.56319439 53.42114082 45.2750418 57.37963867 41.41064453 C60.17817249 39.15498419 62.528826 38.24050193 65.97729492 37.31689453 C72.97729492 44.31689453 72.97729492 44.31689453 75.37963867 46.73095703 C84.59564733 55.90538971 93.89264114 63.53308641 104.97729492 70.31689453 C105.61151367 70.70619141 106.24573242 71.09548828 106.89916992 71.49658203 C127.83511638 84.80287546 127.83511638 84.80287546 150.97729492 89.31689453 C153.49373739 87.44264919 153.49373739 87.44264919 155.72729492 84.94189453 C156.50588867 84.12978516 157.28448242 83.31767578 158.08666992 82.48095703 C160.00830366 80.4646099 160.00830366 80.4646099 160.97729492 78.31689453 C161.63729492 78.64689453 162.29729492 78.97689453 162.97729492 79.31689453 C156.45162401 86.89195756 149.59622291 94.09120221 142.58911133 101.2199707 C141.17315717 102.66784521 139.7653286 104.123708 138.36547852 105.5871582 C136.32789334 107.71567733 134.26552194 109.81708359 132.19604492 111.91455078 C131.57604614 112.57270279 130.95604736 113.2308548 130.31726074 113.90895081 C125.88832086 118.31844521 125.88832086 118.31844521 121.24804688 118.31054688 C117.50941728 117.1747536 114.10943881 115.69531142 110.66479492 113.87939453 C109.98255859 113.528125 109.30032227 113.17685547 108.59741211 112.81494141 C106.38204135 111.66459483 104.17837994 110.4943298 101.97729492 109.31689453 C101.21819824 108.91196777 100.45910156 108.50704102 99.67700195 108.08984375 C90.10851574 102.95430655 80.87334087 97.56156992 71.97729492 91.31689453 C71.51581055 91.66880859 71.05432617 92.02072266 70.57885742 92.38330078 C65.13906909 96.50076902 59.62583125 100.49018551 53.97729492 104.31689453 C52.90995117 105.05746094 52.90995117 105.05746094 51.82104492 105.81298828 C35.19658051 116.61303647 9.89311773 126.07866152 -10.08520508 122.81689453 C-10.72458008 122.65189453 -11.36395508 122.48689453 -12.02270508 122.31689453 C-10.71526172 118.1068018 -9.10690327 114.29418416 -7.08520508 110.37939453 C-5.48807059 107.27907465 -4.04115072 104.37223146 -2.93676758 101.05908203 C-0.57409944 95.45247594 4.36278128 91.51776171 8.66479492 87.37939453 C9.5574707 86.50476563 10.45014648 85.63013672 11.36987305 84.72900391 C13.56353851 82.58226177 15.76600262 80.44545032 17.97729492 78.31689453 C15.90053634 78.10103315 15.90053634 78.10103315 14.46508789 79.60205078 C13.88903809 80.18857422 13.31298828 80.77509766 12.71948242 81.37939453 C12.09428711 82.01103516 11.4690918 82.64267578 10.82495117 83.29345703 C10.17397461 83.96119141 9.52299805 84.62892578 8.85229492 85.31689453 C8.19358398 85.98462891 7.53487305 86.65236328 6.85620117 87.34033203 C5.22535168 88.99481702 3.59933643 90.65378069 1.97729492 92.31689453 C0.79402104 88.30424051 1.42994683 85.78010839 2.41479492 81.69189453 C8.12636513 54.2341698 2.58271652 25.1637997 -12.02270508 1.31689453 C-9.66304591 -1.04276464 -3.29062627 0.00559366 0 0 Z " fill="#0E49BD" transform="translate(12.022705078125,76.68310546875)"/>
<path d="M0 0 C0.77981232 -0.00979385 1.55962463 -0.01958771 2.36306763 -0.02967834 C29.38827713 -0.29872167 54.54360061 2.38762313 80.5390625 10.23828125 C81.37421387 10.48916504 82.20936523 10.74004883 83.06982422 10.99853516 C101.93083476 16.80738273 122.82424699 25.05383185 138.5390625 37.23828125 C138.5390625 37.89828125 138.5390625 38.55828125 138.5390625 39.23828125 C137.54801514 39.2225708 136.55696777 39.20686035 135.53588867 39.19067383 C109.36352986 38.60955464 109.36352986 38.60955464 83.5390625 42.23828125 C82.57500488 42.44759277 81.61094727 42.6569043 80.61767578 42.87255859 C56.84150259 48.0498945 34.79122112 55.92744742 13.31640625 67.4609375 C11.5390625 68.23828125 11.5390625 68.23828125 8.5390625 68.23828125 C8.06597656 67.23410156 7.59289062 66.22992188 7.10546875 65.1953125 C0.630787 51.70183021 -7.06164604 40.10770343 -17.4609375 29.23828125 C-18.06035156 28.57570313 -18.65976563 27.913125 -19.27734375 27.23046875 C-26.2915342 19.74664568 -34.95568823 13.90844743 -43.4609375 8.23828125 C-43.4609375 7.57828125 -43.4609375 6.91828125 -43.4609375 6.23828125 C-39.31626067 5.41980791 -35.17000893 4.60959663 -31.0234375 3.80078125 C-29.85876953 3.57068359 -28.69410156 3.34058594 -27.49414062 3.10351562 C-26.35009766 2.88115234 -25.20605469 2.65878906 -24.02734375 2.4296875 C-22.46415405 2.12333374 -22.46415405 2.12333374 -20.86938477 1.81079102 C-13.9186037 0.64328284 -7.04380624 0.07404434 0 0 Z " fill="#095ED9" transform="translate(127.4609375,-0.23828125)"/>
<path d="M0 0 C4.03154875 0.56163442 7.47201975 1.44005922 11.2109375 3.0390625 C12.19578125 3.45140137 13.180625 3.86374023 14.1953125 4.28857422 C15.24460937 4.72959473 16.29390625 5.17061523 17.375 5.625 C37.82942113 13.96746469 58.10044165 19.16478034 80 22 C80.77625732 22.1045752 81.55251465 22.20915039 82.35229492 22.31689453 C88.05659481 23.02891171 93.69308478 23.15021323 99.4375 23.125 C100.31470703 23.12886719 101.19191406 23.13273437 102.09570312 23.13671875 C107.38874743 23.12891765 112.55942189 22.80268748 117.81958008 22.22265625 C121.5602792 21.84067018 125.24465506 21.93942992 129 22 C102.52871617 50.95823565 37.66116231 61.73745819 0.23828125 63.8359375 C-20.1514887 64.68816425 -39.82931426 62.95110885 -60 60 C-60 59.34 -60 58.68 -60 58 C-57.6510305 56.46859391 -55.29375536 55.03832273 -52.875 53.625 C-44.46454658 48.51945215 -37.17366883 42.71320333 -30 36 C-29.34467285 35.38850098 -28.6893457 34.77700195 -28.01416016 34.14697266 C-17.10015028 23.85469607 -7.5719319 13.01196065 0 0 Z " fill="#68C23F" transform="translate(132,200)"/>
<path d="M0 0 C24.63002766 0.36771399 48.7997353 11.34621259 67.97729492 26.31689453 C68.96729492 27.80189453 68.96729492 27.80189453 69.97729492 29.31689453 C69.15487305 29.93435547 68.33245117 30.55181641 67.48510742 31.18798828 C59.59986044 37.15379235 51.98160159 43.31258786 44.97729492 50.31689453 C45.63729492 50.97689453 46.29729492 51.63689453 46.97729492 52.31689453 C44.62543164 54.52769137 42.27037785 56.73506189 39.91479492 58.94189453 C38.92962891 59.86808594 38.92962891 59.86808594 37.92456055 60.81298828 C34.20473238 64.29460085 30.43844634 67.68116468 26.51635742 70.93408203 C24.03255902 73.16571816 22.03754511 75.69475793 19.97729492 78.31689453 C18.49229492 77.82189453 18.49229492 77.82189453 16.97729492 77.31689453 C12.02729492 82.26689453 7.07729492 87.21689453 1.97729492 92.31689453 C0.86474688 87.86670236 1.35665347 86.08435726 2.41479492 81.69189453 C8.12636513 54.2341698 2.58271652 25.1637997 -12.02270508 1.31689453 C-9.66304591 -1.04276464 -3.29062627 0.00559366 0 0 Z " fill="#085EDE" transform="translate(12.022705078125,76.68310546875)"/>
<path d="M0 0 C2.95015394 1.39534308 5.57108337 3.01517659 8.25 4.875 C11.25387862 6.9240033 14.18982705 8.62470579 17.5 10.125 C21 12 21 12 21.71875 14.1171875 C21.8115625 14.73851562 21.904375 15.35984375 22 16 C11.70254897 15.04653231 3.08462821 11.89023604 -6 7 C-5.67 6.34 -5.34 5.68 -5 5 C-2.69 5.33 -0.38 5.66 2 6 C1.34 4.02 0.68 2.04 0 0 Z " fill="#0C69B7" transform="translate(290,160)"/>
<path d="M0 0 C0.66 0.66 1.32 1.32 2 2 C-0.35186328 4.21079684 -2.70691707 6.41816736 -5.0625 8.625 C-5.71927734 9.24246094 -6.37605469 9.85992187 -7.05273438 10.49609375 C-10.77256254 13.97770632 -14.53884858 17.36427015 -18.4609375 20.6171875 C-20.9447359 22.84882363 -22.93974982 25.3778634 -25 28 C-25.99 27.01 -26.98 26.02 -28 25 C-24.82573134 21.75136124 -21.6415723 18.51286569 -18.44799805 15.28320312 C-17.36386703 14.18402147 -16.28244832 13.08215757 -15.20385742 11.97753906 C-13.64954256 10.38667738 -12.08560425 8.80584027 -10.51953125 7.2265625 C-10.04224075 6.73378815 -9.56495026 6.24101379 -9.07319641 5.73330688 C-6.25225865 2.91097985 -3.81798031 1.19292961 0 0 Z " fill="#C3E5F8" transform="translate(57,127)"/>
<path d="M0 0 C0 0.99 0 1.98 0 3 C-0.66 3 -1.32 3 -2 3 C-1.34 4.98 -0.68 6.96 0 9 C-5.00075789 10.47081114 -8.43717512 9.28141244 -13 7 C-13 6.01 -13 5.02 -13 4 C-11.58774074 3.32404685 -10.16997095 2.65959941 -8.75 2 C-7.56664062 1.443125 -7.56664062 1.443125 -6.359375 0.875 C-4 0 -4 0 0 0 Z " fill="#0A84BE" transform="translate(292,157)"/>
<path d="M0 0 C0.66 0.33 1.32 0.66 2 1 C1.3702124 1.62455078 0.7404248 2.24910156 0.09155273 2.89257812 C-2.27935645 5.24628314 -4.647874 7.60234573 -7.01489258 9.95996094 C-8.03317292 10.97326152 -9.05235474 11.98565712 -10.07250977 12.99707031 C-15.41533479 18.29530622 -20.66846742 23.61503498 -25.56274414 29.33789062 C-27.42558431 31.49216545 -29.40649803 33.50462964 -31.4375 35.5 C-32.11683594 36.1703125 -32.79617187 36.840625 -33.49609375 37.53125 C-33.99238281 38.0159375 -34.48867187 38.500625 -35 39 C-35 36 -35 36 -33.28515625 34.02734375 C-32.55167969 33.33769531 -31.81820312 32.64804688 -31.0625 31.9375 C-28.13565586 29.26299207 -28.13565586 29.26299207 -26 26 C-25.34 26 -24.68 26 -24 26 C-23.6599292 25.17097168 -23.6599292 25.17097168 -23.31298828 24.32519531 C-21.6110302 21.31116616 -19.45380482 19.23019787 -16.9921875 16.796875 C-16.50670441 16.3142218 -16.02122131 15.8315686 -15.52102661 15.33428955 C-13.97700134 13.80141438 -12.42615176 12.27565996 -10.875 10.75 C-9.82375991 9.70879639 -8.77297343 8.66713459 -7.72265625 7.625 C-5.15366996 5.07800536 -2.57851839 2.53734823 0 0 Z " fill="#3ED1DD" transform="translate(200,130)"/>
<path d="M0 0 C0.99 0.99 1.98 1.98 3 3 C2.48050781 3.43570313 1.96101563 3.87140625 1.42578125 4.3203125 C-2.83222666 7.95654106 -6.55472652 11.58574336 -10 16 C-10.99 15.01 -11.98 14.02 -13 13 C-8.71 8.71 -4.42 4.42 0 0 Z " fill="#C2E2F7" transform="translate(42,139)"/>
<path d="M0 0 C0.66 0.33 1.32 0.66 2 1 C-2.54463861 5.82007126 -7.31979417 10.65518832 -14 12 C-14 12.66 -14 13.32 -14 14 C-13.34 14.33 -12.68 14.66 -12 15 C-14.31 15 -16.62 15 -19 15 C-19 14.34 -19 13.68 -19 13 C-17.57885742 11.90258789 -17.57885742 11.90258789 -15.60546875 10.72265625 C-14.89712891 10.29146484 -14.18878906 9.86027344 -13.45898438 9.41601562 C-12.70939453 8.96935547 -11.95980469 8.52269531 -11.1875 8.0625 C-9.72035346 7.18221207 -8.2554235 6.29821701 -6.79296875 5.41015625 C-6.1383667 5.01965088 -5.48376465 4.62914551 -4.80932617 4.22680664 C-2.96935305 2.97921995 -1.51595985 1.61970039 0 0 Z " fill="#B6E556" transform="translate(91,245)"/>
<path d="M0 0 C-1.50240234 0.77923828 -1.50240234 0.77923828 -3.03515625 1.57421875 C-11.40811333 5.84966548 -11.40811333 5.84966548 -19.25 11 C-22 13 -22 13 -25 13 C-23.72536634 9.17609903 -22.5718451 8.94611878 -19.0625 7.125 C-18.07378906 6.61066406 -17.08507812 6.09632812 -16.06640625 5.56640625 C-15.05449219 5.04949219 -14.04257812 4.53257813 -13 4 C-12.06027344 3.49339844 -11.12054688 2.98679687 -10.15234375 2.46484375 C-8.83943359 1.77068359 -8.83943359 1.77068359 -7.5 1.0625 C-6.7059375 0.64097656 -5.911875 0.21945313 -5.09375 -0.21484375 C-3 -1 -3 -1 0 0 Z " fill="#38C0E8" transform="translate(298,63)"/>
<path d="M0 0 C-2.20278408 2.2841369 -4.03357002 3.79488782 -7 5 C-7.99 5 -8.98 5 -10 5 C-10.33 4.34 -10.66 3.68 -11 3 C-13.31 3 -15.62 3 -18 3 C-12.15069491 -0.24961394 -6.5246233 -0.12793379 0 0 Z " fill="#1EAC49" transform="translate(261,222)"/>
<path d="M0 0 C0.99 0.99 1.98 1.98 3 3 C-1.39453125 7.00390625 -1.39453125 7.00390625 -3 8 C-3.99 7.67 -4.98 7.34 -6 7 C-4.02 4.69 -2.04 2.38 0 0 Z " fill="#ACD8F6" transform="translate(42,139)"/>
<path d="M0 0 C1.31823302 0.59155331 2.62947051 1.19871463 3.9375 1.8125 C5.03384766 2.31716797 5.03384766 2.31716797 6.15234375 2.83203125 C8 4 8 4 9 7 C7.02 7 5.04 7 3 7 C3.66 6.67 4.32 6.34 5 6 C3.68 5.67 2.36 5.34 1 5 C0.67 3.35 0.34 1.7 0 0 Z " fill="#4275D1" transform="translate(257,32)"/>
<path d="M0 0 C0.33 0 0.66 0 1 0 C1 2.64 1 5.28 1 8 C1.66 8 2.32 8 3 8 C1.63016497 11.16115776 1.0109362 11.9927092 -2 14 C-1.43393721 9.30976546 -0.81462495 4.65499974 0 0 Z " fill="#527ED8" transform="translate(15,155)"/>
<path d="M0 0 C0 3 0 3 -1.96875 5.26171875 C-2.8040625 6.06222656 -3.639375 6.86273438 -4.5 7.6875 C-5.3353125 8.49574219 -6.170625 9.30398437 -7.03125 10.13671875 C-8.00578125 11.05904297 -8.00578125 11.05904297 -9 12 C-9.99 11.67 -10.98 11.34 -12 11 C-11.34 11 -10.68 11 -10 11 C-9.67 10.01 -9.34 9.02 -9 8 C-7.51964312 6.71273315 -6.03511402 5.42848014 -4.5 4.20703125 C-2.88344506 2.9062097 -1.42657911 1.5058335 0 0 Z " fill="#0B3FA7" transform="translate(146,183)"/>
<path d="M0 0 C3.465 1.485 3.465 1.485 7 3 C6.443125 3.268125 5.88625 3.53625 5.3125 3.8125 C2.91191954 4.98723915 2.91191954 4.98723915 0.5 6.6875 C-2 8 -2 8 -4.3125 7.6875 C-4.869375 7.460625 -5.42625 7.23375 -6 7 C-3.69 5.68 -1.38 4.36 1 3 C0.67 2.01 0.34 1.02 0 0 Z " fill="#48C4EB" transform="translate(304,54)"/>
<path d="M0 0 C0.66 0.33 1.32 0.66 2 1 C0.625 2.5 0.625 2.5 -1 4 C-1.66 4 -2.32 4 -3 4 C-3 4.66 -3 5.32 -3 6 C-2.34 6.33 -1.68 6.66 -1 7 C-3.31 7 -5.62 7 -8 7 C-8 6.34 -8 5.68 -8 5 C-6.3203125 3.67578125 -6.3203125 3.67578125 -4.125 2.3125 C-3.40570313 1.85488281 -2.68640625 1.39726562 -1.9453125 0.92578125 C-1.30335937 0.62027344 -0.66140625 0.31476563 0 0 Z " fill="#BEEA6A" transform="translate(80,253)"/>
<path d="M0 0 C1.32 0.33 2.64 0.66 4 1 C2.35 2.98 0.7 4.96 -1 7 C-1.99 6.67 -2.98 6.34 -4 6 C-2.68 4.02 -1.36 2.04 0 0 Z " fill="#91D75A" transform="translate(132,200)"/>
<path d="M0 0 C0.66 0.66 1.32 1.32 2 2 C0.35 3.32 -1.3 4.64 -3 6 C-3.99 5.01 -4.98 4.02 -6 3 C-4.02 2.01 -2.04 1.02 0 0 Z " fill="#BCDCF5" transform="translate(57,127)"/>
<path d="M0 0 C2.97 0 5.94 0 9 0 C6.16671013 2.83328987 4.64553172 3.7191375 1 5 C1 4.34 1 3.68 1 3 C1.66 3 2.32 3 3 3 C3 2.34 3 1.68 3 1 C2.01 0.67 1.02 0.34 0 0 Z " fill="#5FC278" transform="translate(252,222)"/>
<path d="M0 0 C2.0625 0.4375 2.0625 0.4375 4 1 C2.75 3 2.75 3 1 5 C-0.32 5 -1.64 5 -3 5 C-1.125 1.125 -1.125 1.125 0 0 Z " fill="#D1ECFA" transform="translate(50,131)"/>
<path d="M0 0 C3.3 0.33 6.6 0.66 10 1 C6.23312136 2.88343932 4.97041037 3.22057835 1 3 C0.67 2.01 0.34 1.02 0 0 Z " fill="#3B7EE6" transform="translate(180,4)"/>
<path d="M0 0 C0.33 0.66 0.66 1.32 1 2 C-0.32 3.65 -1.64 5.3 -3 7 C-3.99 6.67 -4.98 6.34 -6 6 C-4.02 4.02 -2.04 2.04 0 0 Z " fill="#AEE05B" transform="translate(104,234)"/>
<path d="" fill="#D9EEF8" transform="translate(0,0)"/>
</svg>
