<?xml version="1.0" encoding="UTF-8"?>
<svg version="1.1" xmlns="http://www.w3.org/2000/svg" width="768" height="768">
<path d="M0 0 C1.03898437 -0.00386719 2.07796875 -0.00773437 3.1484375 -0.01171875 C4.13328125 -0.01042969 5.118125 -0.00914063 6.1328125 -0.0078125 C7.0211377 -0.00668457 7.90946289 -0.00555664 8.82470703 -0.00439453 C10.875 0.125 10.875 0.125 11.875 1.125 C11.98205086 2.66767559 12.02121734 4.21513193 12.03271484 5.76147461 C12.04297699 6.75018051 12.05323914 7.73888641 12.06381226 8.7575531 C12.07111359 9.83658401 12.07841492 10.91561493 12.0859375 12.02734375 C12.114031 14.30274126 12.14269559 16.57813178 12.171875 18.85351562 C12.2129706 22.44766866 12.24984649 26.04169464 12.27636719 29.63598633 C12.30415828 33.10004961 12.35005926 36.56351465 12.3984375 40.02734375 C12.40169037 41.08815659 12.40494324 42.14896942 12.40829468 43.2419281 C12.59442732 54.66928425 15.56991935 64.19200812 22.875 73.125 C31.2124781 80.57984605 41.21333184 84.59684264 52.47265625 84.40234375 C64.66580087 82.9946799 73.58082003 77.57833777 81.3359375 68.3359375 C87.59293709 59.34745585 88.02155128 49.39881264 88.19140625 38.8203125 C88.2225779 37.20163773 88.2225779 37.20163773 88.25437927 35.55026245 C88.31955113 32.11690389 88.3786089 28.68347147 88.4375 25.25 C88.48071601 22.91665915 88.52433127 20.58332566 88.56835938 18.25 C88.67594715 12.54175801 88.77598403 6.83339586 88.875 1.125 C108.68063891 -0.2828012 128.51172278 0.08242568 148.35150933 0.22553515 C153.34020608 0.26031004 158.32893986 0.28860809 163.31767273 0.31764221 C172.73056954 0.37338376 182.14342001 0.43480942 191.55626696 0.49836355 C202.28687354 0.57053178 213.01751682 0.63623195 223.74816763 0.70143402 C245.79049279 0.83551114 267.83276041 0.97756403 289.875 1.125 C289.87642502 1.77486877 289.87785004 2.42473755 289.87931824 3.09429932 C289.89913141 9.90898894 289.95365242 16.72279678 290.02758789 23.53710938 C290.05066661 26.07415421 290.0651396 28.61129348 290.07055664 31.1484375 C290.07991995 34.81309171 290.12107527 38.47628112 290.16796875 42.140625 C290.16206978 43.81949799 290.16206978 43.81949799 290.15605164 45.5322876 C290.35992959 56.74395486 293.88309 66.07094174 301.69140625 74.21875 C305.10846319 77.20179792 308.76314793 79.25094435 312.875 81.125 C313.761875 81.5375 314.64875 81.95 315.5625 82.375 C326.14978831 85.80871513 336.63041357 84.45249752 346.4375 79.5625 C355.87393824 74.13060068 361.79996662 66.03072298 364.8984375 55.71899414 C366.22666197 50.31384469 366.22824027 44.94759544 366.2890625 39.40625 C366.30842865 38.30776733 366.3277948 37.20928467 366.3477478 36.07751465 C366.40718863 32.59342033 366.45378667 29.10929234 366.5 25.625 C366.53821244 23.25259032 366.57726605 20.88019403 366.6171875 18.5078125 C366.71286078 12.71366115 366.79801069 6.91942813 366.875 1.125 C400.6463901 0.29789361 400.6463901 0.29789361 413.875 5.125 C415.25171875 5.57552734 415.25171875 5.57552734 416.65625 6.03515625 C437.78445292 13.56696933 454.27244284 31.37374357 463.875 51.125 C470.47243843 66.30745958 471.15757971 81.02124832 470.98754883 97.2824707 C470.97554171 99.18270742 470.96462682 101.08295129 470.95471191 102.98320007 C470.93245604 107.04983745 470.90505168 111.11639594 470.87430763 115.18297768 C470.82824337 121.61734717 470.80950036 128.05161706 470.79728699 134.48612976 C470.7951206 135.57531607 470.79295422 136.66450239 470.79072219 137.78669435 C470.78638796 140.01224057 470.78213548 142.23778696 470.77796304 144.46333349 C470.74923704 159.42590858 470.70430946 174.38775701 470.5769043 189.34985352 C470.49093461 199.46964036 470.45091866 209.58845405 470.46415728 219.7086131 C470.46932883 225.05619399 470.45103111 230.40138683 470.37644386 235.74849892 C470.30673617 240.77209519 470.29766564 245.79216457 470.33478546 250.81607246 C470.33762963 252.65598236 470.31829749 254.49608404 470.27486992 256.33548355 C469.73777739 265.52072497 469.73777739 265.52072497 473.16522765 273.63926291 C476.69977986 276.57744282 480.6621183 278.32038176 484.875 280.125 C518.68808343 301.79539499 541.38993812 339.1059396 550.33959961 377.66235352 C552.63911892 388.23930348 553.3156164 398.52336494 553.3125 409.3125 C553.3135675 410.10024811 553.31463501 410.88799622 553.31573486 411.69961548 C553.23150643 454.97935747 535.43142808 493.98436502 505.01464844 524.42431641 C474.04848791 554.39181444 433.49625305 567.737374 391.04296875 567.3359375 C357.93110582 566.62910896 324.81683442 554.01115959 299.875 532.125 C298.78917057 530.97927436 298.78917057 530.97927436 297.68140519 529.81040275 C292.2486646 524.23758163 288.47548222 522.09327681 280.67598045 521.9510814 C279.52928355 521.97545238 278.38258665 521.99982336 277.20114136 522.02493286 C275.95840269 522.01527618 274.71566403 522.0056195 273.43526661 521.9956702 C270.00957934 521.97796057 266.58848967 522.00023669 263.16327667 522.03984356 C259.46026705 522.07270844 255.75747846 522.05322453 252.05439758 522.04014587 C245.64330767 522.02446561 239.23297004 522.04121616 232.82198715 522.07992935 C223.53561015 522.13568765 214.24978743 522.13859535 204.96327581 522.12835012 C189.87187122 522.11284614 174.78077963 522.13520036 159.68945312 522.18359375 C145.07389416 522.23033951 130.45839952 522.26686616 115.84277344 522.28417969 C114.49373349 522.28579028 114.49373349 522.28579028 113.11744021 522.2874334 C103.2837037 522.29876446 93.4499709 522.30587084 83.6162281 522.30799675 C82.31695102 522.30828977 82.31695102 522.30828977 80.99142591 522.30858871 C77.52703072 522.30931321 74.06263566 522.3099919 70.59824039 522.31013368 C60.48673828 522.31065211 50.37545558 522.32409582 40.26401909 522.36147253 C33.91404992 522.38462558 27.56411236 522.39792228 21.21410374 522.40371557 C17.55838618 522.40754699 13.90286004 522.41638983 10.24720573 522.43886757 C-20.91065418 522.62444754 -47.40122739 518.37754802 -70.3828125 495.921875 C-91.96203107 473.91230164 -97.34221549 448.96569785 -97.22663879 418.94636536 C-97.22509404 417.58465519 -97.22400023 416.22294446 -97.22331703 414.86123359 C-97.22023489 411.20073622 -97.21095636 407.54027884 -97.20049106 403.87979613 C-97.19043141 399.97472638 -97.18622316 396.06964986 -97.18135548 392.16457081 C-97.17254938 385.67150472 -97.16035552 379.1784533 -97.14560318 372.6853981 C-97.12704605 364.48744474 -97.11467548 356.28949648 -97.10527844 348.09152801 C-97.06641107 314.45082129 -96.9826843 280.81019862 -96.88928509 247.1696043 C-96.880326 243.92646484 -96.87141546 240.68332526 -96.86254883 237.44018555 C-96.86034514 236.63489534 -96.85814146 235.82960512 -96.855871 234.99991218 C-96.82008178 221.80474372 -96.79541623 208.60957573 -96.77465298 195.41437604 C-96.75285049 181.70386008 -96.71982208 167.99340462 -96.67629844 154.28294021 C-96.65003255 145.90385839 -96.63215434 137.52485117 -96.62565396 129.14573029 C-96.62037602 123.43589743 -96.60407956 117.72616028 -96.57933434 112.0163789 C-96.56544079 108.73887397 -96.55775101 105.46157127 -96.55999184 102.18403244 C-96.5685005 83.99348805 -96.39709747 66.76319605 -88.125 50.125 C-87.67125 49.19171875 -87.2175 48.2584375 -86.75 47.296875 C-83.29317865 40.57110303 -79.11268062 34.7961776 -74.125 29.125 C-73.47015625 28.37476563 -72.8153125 27.62453125 -72.140625 26.8515625 C-53.11429133 6.466205 -27.05335077 -0.1045877 0 0 Z " fill="#5880E5" transform="translate(183.125,124.875)"/>
<path d="M0 0 C1.5664897 -0.00258632 3.13297874 -0.00560022 4.69946688 -0.0090034 C8.99275672 -0.01704501 13.2860298 -0.01886138 17.57932627 -0.01960087 C22.21407238 -0.02145632 26.84880991 -0.02900599 31.48355103 -0.03573608 C41.61159085 -0.04929851 51.73962671 -0.05534052 61.86767411 -0.05974674 C68.19364076 -0.06251201 74.5196059 -0.06674982 80.84557152 -0.07125092 C98.36717158 -0.08343955 115.88877043 -0.09374051 133.41037464 -0.09712601 C134.53101877 -0.09734557 135.65166289 -0.09756514 136.80626593 -0.09779136 C137.92955131 -0.09800964 139.0528367 -0.09822791 140.21016103 -0.09845281 C142.48627333 -0.09889627 144.76238563 -0.09934283 147.03849792 -0.09979248 C148.16752211 -0.10001391 149.2965463 -0.10023534 150.45978334 -0.10046348 C168.75859831 -0.10441248 187.05737348 -0.12187144 205.35617308 -0.145152 C224.1519773 -0.16887158 242.94776156 -0.18132809 261.743581 -0.18249393 C272.2933279 -0.1834102 282.84302291 -0.18915091 293.39275551 -0.20731354 C302.37446469 -0.2227225 311.35610592 -0.22783017 320.33782581 -0.21957543 C324.91842309 -0.21567213 329.49888356 -0.21658306 334.07946396 -0.23063278 C338.27717621 -0.24339026 342.47464909 -0.24215804 346.6723611 -0.23004207 C348.18644186 -0.22808831 349.70053968 -0.23114863 351.21459649 -0.23988643 C368.45609463 -0.33304617 381.16442271 3.88676322 394.06071472 15.76544189 C403.03759009 25.21016745 408.021337 37.50448992 407.9127655 50.45050049 C407.91305756 51.36821228 407.91334961 52.28592407 407.91365051 53.23144531 C407.91226237 56.25068775 407.89672539 59.26968031 407.88102722 62.28887939 C407.87729526 64.38780584 407.87444915 66.48673403 407.87245178 68.58566284 C407.86482976 74.09957725 407.8451935 79.61338566 407.82304382 85.1272583 C407.8025546 90.75794033 407.79344348 96.38863955 407.78337097 102.01934814 C407.7619463 113.0597592 407.72782758 124.10009172 407.68571472 135.14044189 C406.39471863 135.13520508 405.10372253 135.12996826 403.77360535 135.12457275 C398.95785726 135.10639488 394.14211218 135.09496332 389.32633972 135.08551025 C387.24690744 135.08049918 385.16747865 135.07368854 383.08805847 135.06500244 C380.08935176 135.05279506 377.09069186 135.04718118 374.09196472 135.04278564 C373.17080872 135.03762436 372.24965271 135.03246307 371.30058289 135.02714539 C366.00067961 135.02669065 360.93030459 135.36713247 355.68571472 136.14044189 C355.69459717 135.29154892 355.70347961 134.44265594 355.71263123 133.56803894 C355.79293283 125.54997696 355.85375804 117.53205093 355.89296341 109.51367855 C355.91379732 105.39177671 355.94203733 101.27020843 355.98747253 97.14849854 C356.03108137 93.16734624 356.05488337 89.18651386 356.06522369 85.20514107 C356.07258823 83.68973317 356.08696952 82.17434188 356.10863495 80.65907097 C356.23339635 71.56794499 356.25620062 65.17198558 349.90446472 58.17950439 C349.05368347 57.47954346 349.05368347 57.47954346 348.18571472 56.76544189 C347.33493347 56.04227783 347.33493347 56.04227783 346.46696472 55.30450439 C342.7329855 52.86431622 338.82732803 53.00221028 334.46769714 52.96343994 C333.20926498 52.95060471 331.95083282 52.93776947 330.65426636 52.92454529 C329.28324276 52.91637711 327.91221468 52.90893353 326.54118347 52.90216064 C325.84750483 52.89808512 325.15382618 52.89400959 324.43912697 52.88981056 C320.76766385 52.86898764 317.09623769 52.85466945 313.42472839 52.84527588 C309.64524538 52.83421675 305.86635195 52.79981263 302.08707714 52.76010418 C299.16929069 52.7338834 296.25164367 52.72557929 293.33374977 52.7219944 C291.94116037 52.71714281 290.54857659 52.70556964 289.15610313 52.68695641 C280.4501647 52.57781222 274.58395234 52.6569292 267.97868347 58.70294189 C264.0035823 63.87197804 262.43798247 66.87729364 262.41105652 73.45025635 C262.40152451 74.72870926 262.39199249 76.00716217 262.38217163 77.32435608 C262.38243312 78.71747871 262.38337049 80.11060136 262.38493347 81.50372314 C262.38104399 82.93855411 262.37670879 84.37338394 262.37194824 85.80821228 C262.36449137 88.81507091 262.36477267 91.82181214 262.37004089 94.82867432 C262.37582424 98.66861359 262.35892993 102.50806874 262.33569622 106.34792805 C262.32090957 109.31205524 262.32009403 112.2760673 262.32320595 115.24022484 C262.32269486 116.65511214 262.31749717 118.07000624 262.30739403 119.48485756 C262.17732403 131.57950204 262.17732403 131.57950204 267.93571472 141.82794189 C274.18724901 147.08491391 278.66767211 148.73743256 286.68180847 148.74981689 C287.51535355 148.76635315 288.34889862 148.7828894 289.20770264 148.79992676 C291.84628346 148.84815903 294.48428904 148.86972176 297.12321472 148.89044189 C298.9220714 148.91862242 300.72090158 148.94855274 302.5196991 148.98028564 C306.90832355 149.05391084 311.29663332 149.10363618 315.68571472 149.14044189 C312.68510691 151.43864028 309.59449139 153.44523316 306.35734558 155.39898682 C270.73274835 177.00832439 245.17113738 210.30438725 233.81071472 250.51544189 C233.61961121 251.19139404 233.42850769 251.86734619 233.23161316 252.56378174 C229.9914591 264.83343955 229.21813681 277.08244179 229.18571472 289.70294189 C229.17920395 290.90210236 229.17920395 290.90210236 229.17256165 292.12548828 C229.14443359 308.63481002 231.44105593 324.40646552 236.68571472 340.14044189 C204.91407128 340.20894786 173.14244893 340.26200607 141.37074883 340.29363788 C137.61587406 340.2973898 133.86099943 340.30127278 130.10612488 340.30523682 C128.98488 340.30641721 128.98488 340.30641721 127.84098372 340.30762146 C115.75342994 340.32065894 103.66591917 340.34430361 91.57839087 340.37190028 C79.1662794 340.40000069 66.75419038 340.41662794 54.34204841 340.42270738 C46.68923149 340.42681423 39.03653615 340.43976361 31.38375667 340.4641913 C25.50574952 340.48199288 19.62780404 340.48379584 13.74976921 340.47976494 C11.34564149 340.48058791 8.94150902 340.48652375 6.53740883 340.49805832 C-13.74697732 340.59057812 -30.70585106 339.22953874 -46.13069153 324.42169189 C-56.87655081 313.19524857 -61.6412032 300.1677314 -61.56825256 284.75473022 C-61.57137254 283.73406239 -61.57449253 282.71339456 -61.57770705 281.6617974 C-61.58565939 278.25504265 -61.57937408 274.84846739 -61.57307434 271.44171143 C-61.57578546 268.99373267 -61.57934707 266.54575472 -61.58369446 264.09777832 C-61.59186148 258.14647091 -61.59067409 252.19523346 -61.58486918 246.2439288 C-61.58034493 241.40438415 -61.57974308 236.56485363 -61.58191681 231.72530746 C-61.58237651 230.69050372 -61.58237651 230.69050372 -61.58284549 229.63479485 C-61.58348497 228.23313443 -61.5841334 226.83147402 -61.58479068 225.42981361 C-61.59048906 212.29678486 -61.58394425 199.16378407 -61.57318994 186.03075992 C-61.56425886 174.77612818 -61.56580378 163.52153772 -61.57502747 152.26690674 C-61.58574566 139.18266524 -61.5899356 126.09844823 -61.58380294 113.01420295 C-61.58316588 111.61720459 -61.58253713 110.22020622 -61.58191681 108.82320786 C-61.58145398 107.79231704 -61.58145398 107.79231704 -61.58098181 106.74060015 C-61.57925921 101.91112778 -61.58216064 97.08167103 -61.58687592 92.25220108 C-61.59309147 85.74328858 -61.58862616 79.2344417 -61.5770874 72.72553253 C-61.57444828 70.33991754 -61.57519311 67.95429598 -61.57961273 65.56868362 C-61.5850992 62.30574176 -61.57819629 59.04304708 -61.56825256 55.78012085 C-61.57271401 54.84196915 -61.57717545 53.90381745 -61.58177209 52.93723691 C-61.494604 38.13217042 -57.0195591 26.16642666 -46.65803528 15.39044189 C-32.61472449 1.90886354 -18.73276323 -0.01238564 0 0 Z " fill="#FCFCFD" transform="translate(197.3142852783203,244.85955810546875)"/>
<path d="M0 0 C1.09570312 0.00515625 2.19140625 0.0103125 3.3203125 0.015625 C33.08591136 1.20285686 63.03494009 19.74576075 82.8125 40.9375 C93.16829675 52.39829029 108.71133387 70.86694783 108 87 C108.66 87 109.32 87 110 87 C110.64939736 89.37407592 111.29460053 91.7491639 111.9375 94.125 C112.11990234 94.79015625 112.30230469 95.4553125 112.49023438 96.140625 C118.60966323 118.83814295 116.61962029 149.03898214 108 171 C107.01769951 172.67715936 106.01911714 174.34495377 105 176 C104.48187555 177.27653849 103.99897404 178.5682889 103.5625 179.875 C102.11301175 183.85369733 100.24979221 187.41827558 98 191 C97.45601562 191.88558594 96.91203125 192.77117187 96.3515625 193.68359375 C91.29969283 201.61193614 85.49047941 208.26329603 79 215 C78.42894531 215.63421875 77.85789062 216.2684375 77.26953125 216.921875 C66.47847728 228.57288442 52.10329326 236.16214329 38 243 C37.08863281 243.45246094 36.17726563 243.90492188 35.23828125 244.37109375 C9.68188087 255.83356303 -25.71419521 255.18358058 -51.79052734 245.84960938 C-79.67105719 235.12869845 -101.95059569 217.13519729 -118 192 C-119.00740234 190.45119141 -119.00740234 190.45119141 -120.03515625 188.87109375 C-136.24980893 162.67819326 -140.33783624 128.48002543 -133.875 98.6875 C-126.00695856 65.90587136 -105.99162249 36.41008964 -77.0625 18.5 C-75.05137343 17.31667908 -73.03046886 16.14981506 -71 15 C-69.87335938 14.3296875 -68.74671875 13.659375 -67.5859375 12.96875 C-64.04864668 10.9543718 -60.37772968 9.40671936 -56.5625 8 C-55.87583252 7.74581299 -55.18916504 7.49162598 -54.48168945 7.22973633 C-36.37823656 0.71051589 -19.09631093 -0.29973557 0 0 Z " fill="#2EB3FC" transform="translate(591,409)"/>
<path d="M0 0 C1.25850769 -0.00960754 2.51701538 -0.01921509 3.81365967 -0.02911377 C5.18989887 -0.03396275 6.56614018 -0.03824133 7.94238281 -0.04199219 C9.35622153 -0.04774727 10.77006023 -0.05350496 12.18389893 -0.05926514 C15.1496212 -0.06976832 18.11531643 -0.07561499 21.08105469 -0.07910156 C24.86830573 -0.08457535 28.65519526 -0.10858193 32.44233322 -0.13707352 C35.36441058 -0.15576612 38.28640216 -0.16090907 41.20853424 -0.16243744 C42.60389424 -0.16545118 43.99925319 -0.17343624 45.39455414 -0.18662262 C61.01925519 -0.32370668 61.01925519 -0.32370668 67.29394531 5.31738281 C67.94621094 6.09082031 68.59847656 6.86425781 69.27050781 7.66113281 C69.93824219 8.43457031 70.60597656 9.20800781 71.29394531 10.00488281 C74.11935341 13.80884689 74.0217941 17.01986549 74.02490234 21.62036133 C74.02753082 22.59643341 74.02753082 22.59643341 74.0302124 23.59222412 C74.03461109 25.74152295 74.03170025 27.89073941 74.02832031 30.04003906 C74.02899384 31.53311682 74.02996427 33.02619447 74.03121948 34.51927185 C74.0326937 37.64721725 74.03055045 40.77513409 74.02587891 43.90307617 C74.02017684 47.91712748 74.02346538 51.931112 74.02945137 55.94516087 C74.03306022 59.02744553 74.03191699 62.10971429 74.02932358 65.19199944 C74.02865546 66.67241359 74.02947872 68.15282917 74.03180313 69.63324165 C74.03433548 71.69929981 74.03048106 73.76524883 74.02490234 75.83129883 C74.02370895 77.59643578 74.02370895 77.59643578 74.02249146 79.39723206 C73.89550781 82.16113281 73.89550781 82.16113281 72.89550781 84.16113281 C74.03431396 83.83733643 75.17312012 83.51354004 76.34643555 83.17993164 C80.83595347 82.06277181 85.07089104 81.85485763 89.68066406 81.86035156 C90.49941513 81.85606644 91.3181662 81.85178131 92.16172791 81.84736633 C93.88702476 81.8416557 95.61234568 81.84109849 97.33764648 81.84545898 C99.92703317 81.8485953 102.51524821 81.82520152 105.10449219 81.79980469 C115.41925178 81.76240688 124.86983122 82.65400222 134.89550781 85.16113281 C134.89550781 85.82113281 134.89550781 86.48113281 134.89550781 87.16113281 C136.00925781 87.09925781 137.12300781 87.03738281 138.27050781 86.97363281 C143.48973396 86.97363281 147.99600952 88.49033616 152.89550781 90.16113281 C153.765625 90.44730469 154.63574219 90.73347656 155.53222656 91.02832031 C157.65704749 91.72881073 159.77767659 92.43984247 161.89550781 93.16113281 C161.89550781 93.82113281 161.89550781 94.48113281 161.89550781 95.16113281 C162.75144531 95.42925781 163.60738281 95.69738281 164.48925781 95.97363281 C199.38147603 108.13789238 226.18472871 139.65077574 241.84521484 171.94335938 C251.67412445 192.69784912 256.33962645 214.4346072 256.33300781 237.34863281 C256.33407532 238.13638092 256.33514282 238.92412903 256.33624268 239.73574829 C256.25201424 283.01549028 238.45193589 322.02049783 208.03515625 352.46044922 C177.06899573 382.42794725 136.51676086 395.77350681 94.06347656 395.37207031 C58.02239812 394.60271273 23.85876701 379.86863059 -2.29199219 355.28613281 C-6.16434544 351.73188757 -8.91538092 349.95078018 -14.10449219 349.16113281 C-13.44449219 348.50113281 -12.78449219 347.84113281 -12.10449219 347.16113281 C-12.55179687 346.73703125 -12.99910156 346.31292969 -13.45996094 345.87597656 C-16.58356368 342.84561569 -19.43703143 339.87242337 -21.91699219 336.28613281 C-23.74956965 333.14014277 -23.74956965 333.14014277 -26.10449219 332.16113281 C-26.92902976 330.83897958 -27.69097907 329.47734828 -28.41699219 328.09863281 C-30.07131769 325.02353365 -31.77878506 322.03584389 -33.66699219 319.09863281 C-38.22436203 311.86628501 -41.45267648 304.10654609 -44.73730469 296.23535156 C-46.03763013 293.07863352 -46.03763013 293.07863352 -48.10449219 290.16113281 C-50.25269558 289.71728882 -50.25269558 289.71728882 -52.78565979 289.80709839 C-54.27357481 289.80308486 -54.27357481 289.80308486 -55.79154873 289.79899025 C-56.88812329 289.81134398 -57.98469786 289.8236977 -59.11450195 289.83642578 C-60.85029935 289.83813561 -60.85029935 289.83813561 -62.62116337 289.83987999 C-65.8342774 289.84582022 -69.04700086 289.86514263 -72.26001596 289.8897562 C-75.701421 289.91268464 -79.14285207 289.91787902 -82.58432007 289.92474365 C-88.51280294 289.93864261 -94.44117684 289.96234971 -100.36959839 289.99249268 C-109.66670285 290.03921004 -118.96378549 290.06314387 -128.26098633 290.08056641 C-129.03556069 290.08202801 -129.81013505 290.08348961 -130.60818136 290.08499551 C-134.54455089 290.09231823 -138.48092092 290.09924392 -142.41729164 290.10589218 C-145.60076374 290.1113342 -148.78423331 290.1174769 -151.96770287 290.12424088 C-183.42611069 290.19087805 -214.88042731 290.07476629 -246.33784103 289.81504059 C-250.04887161 289.78607912 -253.75990561 289.76167794 -257.47097778 289.7387085 C-263.25233606 289.70267337 -269.03352949 289.65698939 -274.81474686 289.60294342 C-276.92194697 289.58462601 -279.02917776 289.56952036 -281.13642502 289.55782318 C-283.98395072 289.54118252 -286.8310825 289.51231298 -289.6784668 289.47998047 C-290.51298654 289.47781965 -291.34750628 289.47565884 -292.20731449 289.47343254 C-297.87597703 289.38964797 -297.87597703 289.38964797 -300.10449219 287.16113281 C-174.37449219 287.65613281 -174.37449219 287.65613281 -46.10449219 288.16113281 C-47.09449219 285.85113281 -48.08449219 283.54113281 -49.10449219 281.16113281 C-53.7442056 267.17257395 -54.59655911 252.82824901 -54.60449219 238.22363281 C-54.60871185 237.45315613 -54.61293152 236.68267944 -54.61727905 235.88885498 C-54.71430603 195.61676451 -37.52041378 158.14367849 -10.10449219 129.16113281 C-8.87666016 127.83662109 -8.87666016 127.83662109 -7.62402344 126.48535156 C3.29644161 115.08096635 16.74496462 105.23640441 30.89550781 98.16113281 C29.85209229 98.15702393 28.80867676 98.15291504 27.73364258 98.14868164 C23.82495181 98.12674333 19.91724684 98.07230475 16.0090332 98.00854492 C14.32455974 97.98549203 12.63994474 97.97099931 10.95532227 97.96557617 C0.11474144 97.92381986 -8.39205235 97.87357265 -16.47949219 89.78613281 C-21.47301462 81.7196735 -21.57892454 74.90730773 -21.57324219 65.54003906 C-21.58035435 64.1118897 -21.58805487 62.68374317 -21.59631348 61.25559998 C-21.60971578 58.27082361 -21.61134615 55.28631159 -21.60546875 52.30151367 C-21.59957311 48.49394901 -21.63017613 44.68765969 -21.67058563 40.88034153 C-21.6965495 37.93329649 -21.69933236 34.98655518 -21.69569397 32.03941154 C-21.69737679 30.63649221 -21.70693807 29.23355756 -21.72483826 27.83075142 C-21.83539697 18.09726438 -20.83295712 12.2466451 -14.19042969 5.10253906 C-13.62582031 4.6475 -13.06121094 4.19246094 -12.47949219 3.72363281 C-11.62484375 3.01400391 -11.62484375 3.01400391 -10.75292969 2.29003906 C-7.28734532 -0.08331137 -4.06400218 0.02501765 0 0 Z M45.89550781 124.16113281 C44.36023438 124.91330078 44.36023438 124.91330078 42.79394531 125.68066406 C19.33547289 137.63384751 1.88227441 156.58600582 -11.10449219 179.16113281 C-11.49121094 179.83144531 -11.87792969 180.50175781 -12.27636719 181.19238281 C-28.37899217 211.2858131 -28.72966508 246.2360289 -19.43994141 278.46679688 C-9.95444591 309.60195886 13.95605907 335.27761768 42.20800781 350.47363281 C55.12209385 357.17156642 68.39283137 361.62930005 82.89550781 363.16113281 C83.65992188 363.27070312 84.42433594 363.38027344 85.21191406 363.49316406 C103.19298869 365.83852162 122.93009556 364.89247233 139.89550781 358.16113281 C140.85070312 357.8246875 141.80589844 357.48824219 142.79003906 357.14160156 C161.01355245 350.55293106 175.804029 340.43779822 189.89550781 327.16113281 C190.57097656 326.55011719 191.24644531 325.93910156 191.94238281 325.30957031 C200.31852852 317.43599335 207.14685867 307.60816093 211.89550781 297.16113281 C212.41113281 296.33613281 212.92675781 295.51113281 213.45800781 294.66113281 C214.99860587 291.98183185 216.02961584 289.32718258 217.05175781 286.41894531 C217.75843082 284.5279407 218.56390355 282.6742577 219.39160156 280.83300781 C229.29521681 256.6527524 229.03085346 223.56716975 220.89550781 199.16113281 C220.23550781 199.16113281 219.57550781 199.16113281 218.89550781 199.16113281 C218.93546875 198.43539062 218.97542969 197.70964844 219.01660156 196.96191406 C218.42504296 183.27973615 204.5907187 165.92044293 195.89550781 156.16113281 C195.19941406 155.33355469 194.50332031 154.50597656 193.78613281 153.65332031 C174.98553445 131.76503243 146.01521906 115.38548903 117.08300781 112.34863281 C115.02185154 112.25143543 112.9586831 112.19460263 110.89550781 112.16113281 C110.13898926 112.14211914 109.3824707 112.12310547 108.60302734 112.10351562 C86.5283847 111.58729818 65.77661479 113.98736986 45.89550781 124.16113281 Z " fill="#2F58B4" transform="translate(480.1044921875,296.8388671875)"/>
<path d="M0 0 C1.30477798 -0.00945648 2.60955597 -0.01891296 3.95387268 -0.02865601 C5.36500352 -0.02328639 6.77613157 -0.01713346 8.18725586 -0.01025391 C9.64644008 -0.01227693 11.10562331 -0.01519028 12.56480408 -0.01895142 C15.61524124 -0.02336264 18.66541399 -0.01698188 21.71582031 -0.00292969 C25.61870098 0.01417705 29.52096334 0.0043045 33.42382145 -0.01364708 C36.43420544 -0.02450467 39.44444361 -0.02102985 42.45483208 -0.0132637 C43.89369213 -0.01126793 45.33256559 -0.01369904 46.77140999 -0.02070236 C48.78380188 -0.02835019 50.79624044 -0.01462001 52.80859375 0 C53.95187637 0.00238678 55.095159 0.00477356 56.27308655 0.00723267 C59.69939476 0.43288071 61.53473573 1.4250892 64.33959961 3.38818359 C65.16459961 3.90380859 65.98959961 4.41943359 66.83959961 4.95068359 C72.3199248 10.29400066 74.60507365 16.4846905 74.97070312 24.07202148 C74.99669878 26.58482658 74.9946083 29.09803585 74.96850586 31.61083984 C74.96933689 32.96504405 74.97180506 34.31924813 74.97581482 35.67344666 C74.97865477 38.49509475 74.96415003 41.31594114 74.93652344 44.13745117 C74.90240903 47.73066528 74.90848611 51.32245133 74.92718601 54.91573429 C74.93781834 57.70673766 74.9287629 60.49741597 74.91380119 63.28838921 C74.9061948 65.24962434 74.91342638 67.21089928 74.92103577 69.1721344 C74.80688932 77.88163511 73.63066223 84.38553987 68.02709961 91.20068359 C60.08892949 97.66198486 54.19543693 97.97641602 44.12084961 97.88427734 C42.73514734 97.88443257 41.34944464 97.88592541 39.96374512 97.88868713 C37.06881359 97.89006666 34.17438019 97.87758925 31.27954102 97.85473633 C27.58423022 97.82635234 23.88974605 97.82909468 20.19437408 97.84182644 C17.33572431 97.84880903 14.47726281 97.84096514 11.61863708 97.82856941 C9.59859281 97.82191001 7.57852194 97.82618055 5.55847168 97.83067322 C-3.45844072 97.73830245 -9.95036352 96.91686812 -16.66040039 90.38818359 C-20.57205643 84.75118433 -21.77841899 80.11909768 -21.8215332 73.35375977 C-21.83114075 72.13536911 -21.84074829 70.91697845 -21.85064697 69.66166687 C-21.85489685 68.34809708 -21.85914673 67.03452728 -21.86352539 65.68115234 C-21.86928262 64.31358337 -21.87504028 62.9460144 -21.88079834 61.57844543 C-21.89129002 58.7128563 -21.89714453 55.84729507 -21.90063477 52.98168945 C-21.90611295 49.32337726 -21.93013382 45.66543846 -21.95860672 42.00724316 C-21.97730127 39.18210295 -21.98244232 36.35705144 -21.98397064 33.53185463 C-21.98844035 31.53170579 -22.00705317 29.53160457 -22.02593994 27.53153992 C-22.00566193 19.23514653 -21.44649831 13.1159002 -15.84790039 6.63818359 C-15.38770508 6.08646484 -14.92750977 5.53474609 -14.45336914 4.96630859 C-10.04007397 1.08183965 -5.77020746 0.01203783 0 0 Z " fill="#A745DA" transform="translate(344.660400390625,296.61181640625)"/>
<path d="M0 0 C1.1886113 -0.0159874 2.3772226 -0.03197479 3.60185242 -0.04844666 C4.87897598 -0.05380936 6.15609955 -0.05917206 7.47192383 -0.06469727 C8.80845737 -0.07367638 10.14498996 -0.08279844 11.48152161 -0.09205627 C14.28148836 -0.10851785 17.081336 -0.11624057 19.88134766 -0.11914062 C23.44437499 -0.12450693 27.00625912 -0.16212375 30.56896496 -0.20788479 C33.33077422 -0.23784817 36.09231529 -0.24486838 38.85427284 -0.24586678 C40.79840312 -0.25204312 42.74241597 -0.28141849 44.68632507 -0.31138611 C53.34045744 -0.267714 60.39857162 1.07395627 66.9283905 7.09132385 C71.77159575 12.21187266 73.22483032 17.61004202 73.3137207 24.61206055 C73.33293579 25.84063782 73.35215088 27.06921509 73.37194824 28.33502197 C73.380448 29.65073181 73.38894775 30.96644165 73.39770508 32.32202148 C73.40618721 33.33762272 73.40618721 33.33762272 73.4148407 34.37374115 C73.44472487 37.95791658 73.4632456 41.54193314 73.47192383 45.1262207 C73.48287118 48.80260423 73.5309018 52.47749794 73.58786774 56.15341568 C73.62537209 59.00358137 73.63554478 61.85339731 73.63859558 64.70378876 C73.64748577 66.71002954 73.68465373 68.71608203 73.72253418 70.72198486 C73.68201573 79.10073756 72.28172008 84.70855983 66.99145508 91.30639648 C62.00432557 96.17188869 57.34102241 97.55104304 50.46044922 97.59692383 C49.15882339 97.60968353 47.85719757 97.62244324 46.51612854 97.6355896 C45.10295766 97.63864709 43.68978477 97.64087494 42.27661133 97.64233398 C40.81839366 97.64876587 39.36017728 97.65549453 37.90196228 97.6625061 C34.84981291 97.67446076 31.79777659 97.67818871 28.74560547 97.67700195 C24.84382928 97.67679866 20.94278058 97.70411901 17.0411768 97.73854637 C14.03076375 97.7608333 11.02052546 97.76483899 8.01003838 97.7637825 C6.57198005 97.76613506 5.13391665 97.77493923 3.69594002 97.79044724 C1.68134136 97.81014332 -0.333472 97.80173741 -2.34814453 97.79223633 C-3.49222275 97.79508636 -4.63630096 97.7979364 -5.81504822 97.8008728 C-11.03730164 96.99226679 -14.12103974 94.23518097 -17.69604492 90.49389648 C-23.50397022 82.48837783 -23.48325526 75.57165848 -23.47729492 65.90405273 C-23.48440741 64.49832358 -23.49210798 63.09259728 -23.50036621 61.68687439 C-23.51376725 58.74917518 -23.51539947 55.81174454 -23.50952148 52.87402344 C-23.50362592 49.12698473 -23.53422899 45.38124199 -23.57463837 41.63445377 C-23.6006055 38.73373081 -23.60338481 35.83331636 -23.5997467 32.93249321 C-23.60142922 31.55190204 -23.61098753 30.17129527 -23.62889099 28.79081917 C-23.74026141 19.14376172 -22.66234859 13.41374881 -16.16479492 6.28295898 C-15.61823242 5.83694336 -15.07166992 5.39092773 -14.50854492 4.93139648 C-13.96198242 4.46991211 -13.41541992 4.00842773 -12.85229492 3.53295898 C-8.68319629 0.75944845 -4.95798895 0.05060663 0 0 Z " fill="#997EF6" transform="translate(346.008544921875,430.693603515625)"/>
<path d="M0 0 C1.47013423 -0.00405077 2.94026452 -0.00988135 4.41038513 -0.01739502 C7.47767752 -0.02619627 10.54391513 -0.01352971 13.61108398 0.01464844 C17.52431033 0.048866 21.43507008 0.02910876 25.34820652 -0.00678635 C28.37943305 -0.02856269 31.4100833 -0.02152525 34.44132805 -0.00601959 C35.88329302 -0.00204462 37.32531197 -0.00683142 38.76721382 -0.02089691 C46.44782137 -0.07940695 52.33383641 -0.09237835 58.24082947 5.19500732 C63.19899789 10.47137628 65.86003941 13.60633309 65.9230957 21.04736328 C65.94234856 23.02048996 65.94234856 23.02048996 65.96199036 25.03347778 C65.97016039 26.47804386 65.97760361 27.92261419 65.984375 29.3671875 C65.98845053 30.09454983 65.99252605 30.82191216 65.99672508 31.57131577 C66.01759593 35.42547065 66.03188996 39.27958988 66.04125977 43.13378906 C66.05229172 47.1015486 66.08665059 51.06874227 66.12643147 55.03630257 C66.15267844 58.09739163 66.16095899 61.15834797 66.16454124 64.21953964 C66.16939095 65.68107779 66.18095863 67.14261066 66.19957924 68.60403824 C66.30736985 77.6291402 66.16539571 84.67562575 60 91.8203125 C59.44183594 92.26632812 58.88367188 92.71234375 58.30859375 93.171875 C57.47521484 93.86410156 57.47521484 93.86410156 56.625 94.5703125 C52.31199667 97.38586977 48.53667325 98.05395814 43.43041992 98.10327148 C42.17529099 98.11925888 40.92016205 98.13524628 39.6269989 98.15171814 C38.26435759 98.15809601 36.90171137 98.16348838 35.5390625 98.16796875 C34.13047698 98.17694483 32.72189239 98.18606684 31.31330872 98.19532776 C28.36371552 98.21178905 25.41423543 98.21951247 22.46459961 98.22241211 C18.70186477 98.22778962 14.94020669 98.26545368 11.17777538 98.31115627 C8.26850085 98.34103583 5.35948209 98.34813802 2.45006752 98.34913826 C1.06387723 98.35331993 -0.32231529 98.36567124 -1.70835304 98.38665581 C-11.40063574 98.5217069 -17.19946313 97.4964521 -24.3125 90.8828125 C-24.99505859 90.03589844 -24.99505859 90.03589844 -25.69140625 89.171875 C-26.40103516 88.31722656 -26.40103516 88.31722656 -27.125 87.4453125 C-29.55891997 83.89128403 -29.40122941 80.51044778 -29.44677734 76.34106445 C-29.45495483 75.69023392 -29.46313232 75.03940338 -29.47155762 74.36885071 C-29.49635771 72.21596176 -29.51291658 70.06313868 -29.52734375 67.91015625 C-29.53266743 67.17267843 -29.5379911 66.43520061 -29.5434761 65.67537498 C-29.5701885 61.76935237 -29.58956661 57.86336146 -29.60400391 53.95727539 C-29.61732355 50.73400367 -29.64514093 47.51136799 -29.68603516 44.28833008 C-29.73551718 40.38794641 -29.76014397 36.48813795 -29.76723099 32.58745384 C-29.77391821 31.1063528 -29.78907417 29.62526332 -29.8131218 28.14434242 C-30.03435609 13.6917746 -30.03435609 13.6917746 -25.88685608 8.42674255 C-17.96835151 0.52318456 -10.95571028 -0.10704502 0 0 Z " fill="#3892F8" transform="translate(217.25390625,296.203125)"/>
<path d="M0 0 C1.82297104 -0.01925285 1.82297104 -0.01925285 3.68276978 -0.03889465 C5.01686189 -0.04706514 6.35095864 -0.05450828 7.68505859 -0.0612793 C8.35725811 -0.06535482 9.02945763 -0.06943035 9.72202682 -0.07362938 C13.28440799 -0.09449871 16.8467506 -0.10879296 20.40917969 -0.11816406 C24.0742898 -0.12919136 27.73878653 -0.16354485 31.4036808 -0.20333576 C34.23315488 -0.22960045 37.06248553 -0.23786485 39.89207077 -0.24144554 C41.89498317 -0.24863544 43.89779715 -0.27503907 45.90054321 -0.30183411 C54.34472113 -0.28181833 59.72114969 0.6121414 66.45068359 5.95825195 C66.98951172 6.52543945 67.52833984 7.09262695 68.08349609 7.67700195 C68.63779297 8.24418945 69.19208984 8.81137695 69.76318359 9.39575195 C72.98937977 13.37182075 73.46489067 16.46104568 73.49902344 21.56274414 C73.51178314 22.85799011 73.52454285 24.15323608 73.53768921 25.48773193 C73.54074757 26.89977875 73.54297495 28.31182758 73.54443359 29.72387695 C73.55086484 31.17873261 73.55759344 32.63358697 73.56460571 34.08843994 C73.57657435 37.13817337 73.58028715 40.18779358 73.57910156 43.23754883 C73.57889881 47.12907011 73.60615696 51.01985753 73.64064598 54.91120529 C73.66298446 57.91741204 73.66693694 60.92344443 73.66588211 63.92972565 C73.66822932 65.36333994 73.67700295 66.79695969 73.69254684 68.23049164 C73.7816533 77.30012123 73.64316975 84.13936828 67.42724609 91.20043945 C66.57646484 91.86946289 66.57646484 91.86946289 65.70849609 92.55200195 C64.85771484 93.24422852 64.85771484 93.24422852 63.98974609 93.95043945 C59.84499171 96.80450278 56.89885339 97.43600039 51.82275391 97.48339844 C50.52750793 97.49938583 49.23226196 97.51537323 47.89776611 97.53184509 C46.48572179 97.53822333 45.07367272 97.54361559 43.66162109 97.5480957 C42.20676585 97.55706843 40.75191152 97.56619039 39.29705811 97.57545471 C36.24733239 97.59193396 33.19771627 97.59964246 30.14794922 97.60253906 C26.2562847 97.60791233 22.3656634 97.64555127 18.47429276 97.69128323 C15.46808193 97.72115902 12.46211871 97.72826492 9.4557724 97.72926521 C8.0221353 97.73344917 6.5884962 97.74580977 5.15500641 97.76678276 C-9.68308487 97.96653959 -9.68308487 97.96653959 -15.79150391 92.17700195 C-20.35750625 86.93791583 -21.90795486 82.70279987 -21.984375 75.81298828 C-22.00043793 74.49764603 -22.01650085 73.18230377 -22.03305054 71.82710266 C-22.04454005 70.38775278 -22.05514825 68.94839563 -22.06494141 67.5090332 C-22.07026508 66.78258795 -22.07558876 66.05614269 -22.08107376 65.30768394 C-22.1077854 61.46001619 -22.12716366 57.6123806 -22.14160156 53.76464844 C-22.15492047 50.58987485 -22.18273649 47.41574712 -22.22363281 44.24121094 C-22.27312145 40.39918057 -22.29774241 36.55773423 -22.30482864 32.71539879 C-22.31151486 31.25662546 -22.32666817 29.79786382 -22.35071945 28.33927345 C-22.47607604 20.27475102 -22.56112178 13.4034174 -16.79150391 7.17700195 C-14.40478516 5.1184082 -14.40478516 5.1184082 -12.10400391 3.73950195 C-11.33701172 3.26641602 -10.57001953 2.79333008 -9.77978516 2.3059082 C-6.23240778 0.29177842 -4.11343355 0.03774377 0 0 Z " fill="#8BBDFC" transform="translate(209.79150390625,430.822998046875)"/>
<path d="M0 0 C1.25850769 -0.00960754 2.51701538 -0.01921509 3.81365967 -0.02911377 C5.18989887 -0.03396275 6.56614018 -0.03824133 7.94238281 -0.04199219 C9.35622153 -0.04774727 10.77006023 -0.05350496 12.18389893 -0.05926514 C15.1496212 -0.06976832 18.11531643 -0.07561499 21.08105469 -0.07910156 C24.86830573 -0.08457535 28.65519526 -0.10858193 32.44233322 -0.13707352 C35.36441058 -0.15576612 38.28640216 -0.16090907 41.20853424 -0.16243744 C42.60389424 -0.16545118 43.99925319 -0.17343624 45.39455414 -0.18662262 C61.01925519 -0.32370668 61.01925519 -0.32370668 67.29394531 5.31738281 C68.27234375 6.47753906 68.27234375 6.47753906 69.27050781 7.66113281 C69.93824219 8.43457031 70.60597656 9.20800781 71.29394531 10.00488281 C74.18453559 13.89660435 74.01748447 17.22013596 74.0090332 21.92749023 C74.00917923 22.61067825 74.00932526 23.29386627 74.00947571 23.99775696 C74.0087795 26.25407088 74.00100077 28.51030207 73.99316406 30.76660156 C73.99129885 32.3317307 73.98987543 33.89686042 73.98887634 35.46199036 C73.98505933 39.58016575 73.97523599 43.69830584 73.96417236 47.81646729 C73.95394072 52.01924156 73.94937496 56.22202154 73.94433594 60.42480469 C73.933613 68.67026359 73.91654636 76.91569381 73.89550781 85.16113281 C72.67553101 85.35267944 72.67553101 85.35267944 71.4309082 85.5480957 C70.35832764 85.72074951 69.28574707 85.89340332 68.18066406 86.07128906 C67.11984619 86.24023682 66.05902832 86.40918457 64.96606445 86.58325195 C61.56942545 87.22250174 58.4509905 88.19583023 55.20800781 89.36425781 C50.84227564 90.86866552 46.35876622 91.9848348 41.89550781 93.16113281 C41.89550781 93.82113281 41.89550781 94.48113281 41.89550781 95.16113281 C40.4879956 96.03030168 39.06905571 96.8809843 37.64550781 97.72363281 C36.85660156 98.19929688 36.06769531 98.67496094 35.25488281 99.16503906 C32.58706156 100.29135432 31.55049013 100.17806411 28.89550781 99.16113281 C29.55550781 98.83113281 30.21550781 98.50113281 30.89550781 98.16113281 C29.85209229 98.15702393 28.80867676 98.15291504 27.73364258 98.14868164 C23.82495181 98.12674333 19.91724684 98.07230475 16.0090332 98.00854492 C14.32455974 97.98549203 12.63994474 97.97099931 10.95532227 97.96557617 C0.11474144 97.92381986 -8.39205235 97.87357265 -16.47949219 89.78613281 C-21.47301462 81.7196735 -21.57892454 74.90730773 -21.57324219 65.54003906 C-21.58035435 64.1118897 -21.58805487 62.68374317 -21.59631348 61.25559998 C-21.60971578 58.27082361 -21.61134615 55.28631159 -21.60546875 52.30151367 C-21.59957311 48.49394901 -21.63017613 44.68765969 -21.67058563 40.88034153 C-21.6965495 37.93329649 -21.69933236 34.98655518 -21.69569397 32.03941154 C-21.69737679 30.63649221 -21.70693807 29.23355756 -21.72483826 27.83075142 C-21.83539697 18.09726438 -20.83295712 12.2466451 -14.19042969 5.10253906 C-13.62582031 4.6475 -13.06121094 4.19246094 -12.47949219 3.72363281 C-11.62484375 3.01400391 -11.62484375 3.01400391 -10.75292969 2.29003906 C-7.28734532 -0.08331137 -4.06400218 0.02501765 0 0 Z " fill="#61E6CD" transform="translate(480.1044921875,296.8388671875)"/>
<path d="M0 0 C5.7230135 4.66596436 9.21594877 10.19765189 10.65625 17.45703125 C10.76520629 20.00683443 10.82368024 22.53016011 10.83325195 25.08032227 C10.84310875 26.22512306 10.84310875 26.22512306 10.85316467 27.39305115 C10.8728517 29.91568105 10.88455297 32.4382514 10.89453125 34.9609375 C10.89860678 35.82614454 10.9026823 36.69135159 10.90688133 37.58277702 C10.92772729 42.16659174 10.94203269 46.75037669 10.95141602 51.33422852 C10.96244857 56.04594052 10.996816 60.75717613 11.03658772 65.46872044 C11.06286455 69.1106803 11.07111785 72.75252882 11.07469749 76.39457512 C11.07953867 78.12994524 11.09108135 79.86531123 11.10973549 81.60058784 C11.21887587 92.43049766 11.17659739 102.72563772 4.40625 111.83203125 C-1.99750923 117.94471052 -8.6336728 121.25620147 -17.5625 121.5234375 C-25.70096696 121.05060403 -32.77358818 117.55349617 -38.28125 111.58203125 C-43.40259935 105.56727698 -44.79342555 99.67282722 -44.76367188 92.01831055 C-44.77214142 91.20429779 -44.78061096 90.39028503 -44.78933716 89.55160522 C-44.81261103 86.87799164 -44.81373149 84.20495695 -44.8125 81.53125 C-44.81960829 79.65948765 -44.82730827 77.78772746 -44.83557129 75.91596985 C-44.84899472 71.9980361 -44.85059489 68.08030378 -44.84472656 64.16235352 C-44.838838 59.16235892 -44.86939703 54.16333784 -44.90984344 49.1635313 C-44.93580247 45.29853688 -44.93859034 41.43377417 -44.93495178 37.56870461 C-44.93663592 35.72645437 -44.94620985 33.8841926 -44.96409607 32.04202843 C-45.06303982 20.59049107 -44.68614137 12.10776336 -37.23828125 2.8359375 C-26.02175599 -6.94958641 -12.69874935 -8.36000999 0 0 Z " fill="#1E2343" transform="translate(528.34375,77.54296875)"/>
<path d="M0 0 C7.40896278 7.6147673 10.55438289 15.54097236 10.54052734 26.18457031 C10.54724457 26.93845535 10.55396179 27.69234039 10.56088257 28.46907043 C10.57976373 30.94299042 10.58378195 33.4166376 10.5859375 35.890625 C10.59237311 37.62546903 10.59910203 39.36031199 10.60610962 41.09515381 C10.6180583 44.72638461 10.62179301 48.35752047 10.62060547 51.98876953 C10.62040261 56.61635943 10.64768154 61.24333298 10.68214989 65.87077713 C10.7045122 69.45355971 10.70844014 73.03619625 10.70738602 76.61904144 C10.70972884 78.32369863 10.71847711 80.02836065 10.73405075 81.7329483 C10.82287303 92.4602991 10.70680367 102.67493058 4 111.6875 C-2.8010966 118.17945585 -9.28797038 120.7993476 -18.75 121.3125 C-25.77758509 120.96559691 -31.52841089 117.93537307 -36.75 113.3125 C-42.64245996 106.27428393 -45.0561691 99.51809365 -45.0246582 90.33862305 C-45.02976913 89.56216431 -45.03488007 88.78570557 -45.04014587 87.98571777 C-45.05398771 85.43180522 -45.05308888 82.87816425 -45.05078125 80.32421875 C-45.05467179 78.53831381 -45.0590072 76.75240979 -45.06376648 74.96650696 C-45.07121755 71.22674559 -45.07094596 67.48707865 -45.06567383 63.74731445 C-45.05988759 58.97275027 -45.07679512 54.19857506 -45.1000185 49.42407513 C-45.11480716 45.73586292 -45.11562046 42.04774322 -45.11250877 38.35950661 C-45.11301964 36.60017948 -45.1182129 34.84084686 -45.12832069 33.08154869 C-45.2391844 11.08306437 -45.2391844 11.08306437 -36.78125 2.10546875 C-25.44070479 -7.90474327 -12.50145181 -7.67134543 0 0 Z " fill="#1E2243" transform="translate(250.75,77.6875)"/>
<path d="M0 0 C5.64697083 2.27382186 8.05204282 7.17317282 11.125 12.125 C12.26948896 13.92841225 13.41402101 15.73179717 14.55859375 17.53515625 C15.13077637 18.44539551 15.70295898 19.35563477 16.29248047 20.29345703 C18.8875976 24.40690692 21.5383236 28.48375117 24.1875 32.5625 C25.07703677 33.93866387 25.9663767 35.31495502 26.85546875 36.69140625 C29.20756025 41.05997771 29.20756025 41.05997771 33.03125 43.65234375 C40.12827136 44.47209464 44.61040914 42.93976822 51 40 C53.11979033 39.17400351 55.24513211 38.36215243 57.375 37.5625 C61.7566688 35.90066566 66.03401991 34.09743941 70.3125 32.1875 C75.25904273 30.13187868 78.68138156 29.06690905 84 30 C87.60199656 32.52906142 88.76443405 34.23787487 90.0625 38.4375 C89.98110637 43.07693675 89.21181683 44.63879634 86 48 C82.78653818 49.68237737 79.41824455 50.80408524 76 52 C74.03622997 52.79927028 72.07798347 53.61222352 70.125 54.4375 C67.03766614 55.73116432 63.94939783 57.02071801 60.8515625 58.2890625 C57.89133269 59.50447172 54.94255736 60.74246138 52 62 C51.19949219 62.33902344 50.39898438 62.67804687 49.57421875 63.02734375 C46.38980296 64.47692242 44.32948447 65.45085921 42.5 68.5 C40.23115992 72.28140014 37.10971091 73.6251951 33 75 C28.78143039 75.78063251 25.66310415 75.31880007 21.75 73.4375 C18.12781943 70.22693086 15.27836557 66.89646886 14.80541992 61.9753418 C14.76831909 60.91053589 14.76831909 60.91053589 14.73046875 59.82421875 C14.18198977 54.25831988 11.72391209 50.54673303 8.625 46 C8.09132813 45.18692383 7.55765625 44.37384766 7.0078125 43.53613281 C5.90044392 41.85092155 4.78612776 40.17025586 3.66503906 38.49414062 C1.55301721 35.33044337 -0.5162478 32.14026979 -2.58056641 28.9453125 C-3.49819248 27.52610135 -4.41949674 26.10925871 -5.34521484 24.6953125 C-13.95662158 11.50057406 -13.95662158 11.50057406 -13 6 C-9.21296226 0.3194434 -6.75669593 -0.45808108 0 0 Z " fill="#F9FCFD" transform="translate(551,475)"/>
<path d="M0 0 C7.40896278 7.6147673 10.55438289 15.54097236 10.54052734 26.18457031 C10.54724457 26.93845535 10.55396179 27.69234039 10.56088257 28.46907043 C10.57976373 30.94299042 10.58378195 33.4166376 10.5859375 35.890625 C10.59237311 37.62546903 10.59910203 39.36031199 10.60610962 41.09515381 C10.6180583 44.72638461 10.62179301 48.35752047 10.62060547 51.98876953 C10.62040261 56.61635943 10.64768154 61.24333298 10.68214989 65.87077713 C10.7045122 69.45355971 10.70844014 73.03619625 10.70738602 76.61904144 C10.70972884 78.32369863 10.71847711 80.02836065 10.73405075 81.7329483 C10.82287303 92.4602991 10.70680367 102.67493058 4 111.6875 C-2.8010966 118.17945585 -9.28797038 120.7993476 -18.75 121.3125 C-25.77758509 120.96559691 -31.52841089 117.93537307 -36.75 113.3125 C-42.64245996 106.27428393 -45.0561691 99.51809365 -45.0246582 90.33862305 C-45.02976913 89.56216431 -45.03488007 88.78570557 -45.04014587 87.98571777 C-45.05398771 85.43180522 -45.05308888 82.87816425 -45.05078125 80.32421875 C-45.05467179 78.53831381 -45.0590072 76.75240979 -45.06376648 74.96650696 C-45.07121755 71.22674559 -45.07094596 67.48707865 -45.06567383 63.74731445 C-45.05988759 58.97275027 -45.07679512 54.19857506 -45.1000185 49.42407513 C-45.11480716 45.73586292 -45.11562046 42.04774322 -45.11250877 38.35950661 C-45.11301964 36.60017948 -45.1182129 34.84084686 -45.12832069 33.08154869 C-45.2391844 11.08306437 -45.2391844 11.08306437 -36.78125 2.10546875 C-25.44070479 -7.90474327 -12.50145181 -7.67134543 0 0 Z M-36.3046875 9.3125 C-39.65572644 13.94961334 -40.04729212 17.68936851 -40.04052734 23.35058594 C-40.04724457 24.15761963 -40.05396179 24.96465332 -40.06088257 25.79614258 C-40.07987315 28.46311613 -40.08378765 31.12983804 -40.0859375 33.796875 C-40.09236599 35.65529483 -40.09909439 37.51371364 -40.10610962 39.37213135 C-40.11808596 43.26927027 -40.12179021 47.16632054 -40.12060547 51.06347656 C-40.12040256 56.04454617 -40.14767427 61.02504346 -40.18214989 66.00597763 C-40.20444905 69.84599388 -40.20844204 73.68587322 -40.20738602 77.52594757 C-40.2097386 79.36147275 -40.21854276 81.1970019 -40.23405075 83.03246307 C-40.25376683 85.60765438 -40.24785062 88.18162264 -40.23583984 90.75683594 C-40.24707886 91.50725159 -40.25831787 92.25766724 -40.26989746 93.03082275 C-40.19341922 99.52183335 -38.05679257 104.63213779 -33.8203125 109.5546875 C-27.81460792 114.59562026 -22.96785137 116.79391162 -15.046875 116.5546875 C-8.37074985 115.85074233 -4.03915645 113.1529829 0.70703125 108.51953125 C4.75102347 102.73508668 5.69659266 96.85911542 5.65405273 90.00390625 C5.66434761 88.82174026 5.66434761 88.82174026 5.67485046 87.61569214 C5.69300937 85.0352732 5.68929728 82.45546851 5.68359375 79.875 C5.68816029 78.06713669 5.69346727 76.2592751 5.69947815 74.45141602 C5.70838744 70.67229129 5.70601048 66.89337815 5.69604492 63.11425781 C5.68454889 58.28571996 5.70478747 53.45791276 5.73396206 48.62947083 C5.75235804 44.8992453 5.752025 41.16919386 5.74632454 37.43893433 C5.74617179 35.65924046 5.75217763 33.87953444 5.76461601 32.09988403 C5.77959179 29.60649476 5.76880243 27.11444285 5.75170898 24.62109375 C5.76621094 23.53294876 5.76621094 23.53294876 5.78100586 22.42282104 C5.68965645 16.01900734 3.50739282 10.88853077 -0.71484375 6.0703125 C-1.69130859 5.26207031 -1.69130859 5.26207031 -2.6875 4.4375 C-3.33589844 3.88320312 -3.98429687 3.32890625 -4.65234375 2.7578125 C-16.1740277 -5.18077793 -28.12954723 -0.4216205 -36.3046875 9.3125 Z " fill="#F9F9FA" transform="translate(250.75,77.6875)"/>
<path d="M0 0 C5.7230135 4.66596436 9.21594877 10.19765189 10.65625 17.45703125 C10.76520629 20.00683443 10.82368024 22.53016011 10.83325195 25.08032227 C10.84310875 26.22512306 10.84310875 26.22512306 10.85316467 27.39305115 C10.8728517 29.91568105 10.88455297 32.4382514 10.89453125 34.9609375 C10.89860678 35.82614454 10.9026823 36.69135159 10.90688133 37.58277702 C10.92772729 42.16659174 10.94203269 46.75037669 10.95141602 51.33422852 C10.96244857 56.04594052 10.996816 60.75717613 11.03658772 65.46872044 C11.06286455 69.1106803 11.07111785 72.75252882 11.07469749 76.39457512 C11.07953867 78.12994524 11.09108135 79.86531123 11.10973549 81.60058784 C11.21887587 92.43049766 11.17659739 102.72563772 4.40625 111.83203125 C-1.99750923 117.94471052 -8.6336728 121.25620147 -17.5625 121.5234375 C-25.70096696 121.05060403 -32.77358818 117.55349617 -38.28125 111.58203125 C-43.40259935 105.56727698 -44.79342555 99.67282722 -44.76367188 92.01831055 C-44.77214142 91.20429779 -44.78061096 90.39028503 -44.78933716 89.55160522 C-44.81261103 86.87799164 -44.81373149 84.20495695 -44.8125 81.53125 C-44.81960829 79.65948765 -44.82730827 77.78772746 -44.83557129 75.91596985 C-44.84899472 71.9980361 -44.85059489 68.08030378 -44.84472656 64.16235352 C-44.838838 59.16235892 -44.86939703 54.16333784 -44.90984344 49.1635313 C-44.93580247 45.29853688 -44.93859034 41.43377417 -44.93495178 37.56870461 C-44.93663592 35.72645437 -44.94620985 33.8841926 -44.96409607 32.04202843 C-45.06303982 20.59049107 -44.68614137 12.10776336 -37.23828125 2.8359375 C-26.02175599 -6.94958641 -12.69874935 -8.36000999 0 0 Z M-35.84375 8.39453125 C-39.73697747 13.90616433 -40.64295744 19.51181427 -40.63427734 26.13964844 C-40.64099457 26.88524017 -40.64771179 27.63083191 -40.65463257 28.39901733 C-40.67354537 30.85071582 -40.67753362 33.30213946 -40.6796875 35.75390625 C-40.68612113 37.47015492 -40.69284991 39.18640251 -40.69985962 40.90264893 C-40.71181635 44.49697408 -40.7155422 48.09120325 -40.71435547 51.68554688 C-40.71415261 56.2695474 -40.74142748 60.85292567 -40.77589989 65.43677902 C-40.79824651 68.98177868 -40.80219061 72.52663057 -40.80113602 76.07169342 C-40.80348135 77.7604308 -40.81224411 79.44917292 -40.82780075 81.13784027 C-40.91589963 91.6905303 -40.09187232 99.96989647 -34.71875 109.26953125 C-29.78190979 113.81662092 -24.04899583 116.72390429 -17.28125 117.01953125 C-9.87059761 116.56652899 -4.41322716 113.99203315 0.59375 108.51953125 C5.11982909 103.13745611 5.95796511 98.24740813 5.97851562 91.3371582 C5.98844543 90.53319107 5.99837524 89.72922394 6.00860596 88.90089417 C6.03774211 86.24899833 6.0514364 83.59734192 6.0625 80.9453125 C6.07401379 79.09311421 6.08552911 77.24091592 6.0970459 75.38871765 C6.11803683 71.50596003 6.12974041 67.62328486 6.13671875 63.74047852 C6.14766859 58.78517037 6.19569041 53.8309668 6.25266266 48.87600422 C6.29007007 45.04877124 6.3003348 41.22179993 6.3033905 37.39439964 C6.30941231 35.5688595 6.32536339 33.74332224 6.35176086 31.91796303 C6.67530764 17.59575292 6.67530764 17.59575292 -0.34375 5.45703125 C-4.27743458 2.25518899 -8.19412124 -0.16616665 -13.34375 -0.54296875 C-13.98828125 -0.61644531 -14.6328125 -0.68992187 -15.296875 -0.765625 C-23.60615625 -1.3321669 -30.67280202 1.83963126 -35.84375 8.39453125 Z " fill="#FAFAFA" transform="translate(528.34375,77.54296875)"/>
<path d="M0 0 C1.83469902 0.01016955 3.66940075 0.01986021 5.50410461 0.02911377 C10.43698117 0.05532722 15.36979319 0.088158 20.30262065 0.12226367 C25.47553335 0.15687508 30.64848023 0.18528032 35.82142639 0.21437073 C45.59576351 0.27026663 55.37005783 0.33166694 65.14434868 0.39509207 C76.28109814 0.46708661 87.41788165 0.53287296 98.55467212 0.59816253 C121.44412742 0.73249005 144.33351875 0.87535278 167.22290039 1.02172852 C167.55290039 21.15172852 167.88290039 41.28172852 168.22290039 62.02172852 C156.91986588 46.95101584 163.22290039 17.02678486 163.22290039 4.02172852 C99.53290039 4.02172852 35.84290039 4.02172852 -29.77709961 4.02172852 C-30.69565556 6.77739636 -30.88006304 8.23711188 -30.8112793 11.05566406 C-30.79506531 11.86468674 -30.77885132 12.67370941 -30.762146 13.50724792 C-30.73087616 14.8195916 -30.73087616 14.8195916 -30.69897461 16.15844727 C-30.67166469 18.03538237 -30.64566818 19.91233694 -30.62084961 21.78930664 C-30.57804595 24.72938328 -30.52811684 27.66842584 -30.45483398 30.60791016 C-30.09746035 45.60611567 -30.46165596 60.39977046 -40.24975586 72.73657227 C-41.77709961 74.02172852 -41.77709961 74.02172852 -43.89819336 74.52563477 C-44.82825195 74.77120117 -44.82825195 74.77120117 -45.77709961 75.02172852 C-46.10709961 76.01172852 -46.43709961 77.00172852 -46.77709961 78.02172852 C-48.26209961 79.01172852 -48.26209961 79.01172852 -49.77709961 80.02172852 C-50.76709961 79.69172852 -51.75709961 79.36172852 -52.77709961 79.02172852 C-52.11323242 78.46485352 -51.44936523 77.90797852 -50.76538086 77.33422852 C-40.58855315 68.53907231 -35.85236995 60.66355663 -34.47817993 47.06335449 C-34.34113288 44.08323136 -34.28425659 41.11427155 -34.26538086 38.13110352 C-34.24742966 37.06047668 -34.22947845 35.98984985 -34.21098328 34.88677979 C-34.15741983 31.51513442 -34.12315924 28.14362609 -34.08959961 24.77172852 C-34.05637883 22.46572007 -34.02188488 20.1597296 -33.98608398 17.85375977 C-33.90172531 12.24319982 -33.83429752 6.63262323 -33.77709961 1.02172852 C-22.49244449 0.08323646 -11.31719867 -0.08759202 0 0 Z " fill="#9C38ED" transform="translate(305.777099609375,124.978271484375)"/>
<path d="M0 0 C3.62596592 0.56526465 6.79018377 1.66903414 10.17260528 3.07417578 C16.63291519 5.72403577 22.96107405 7.62886929 29.86663818 8.68431091 C30.6874197 8.81054099 31.50820121 8.93677106 32.35385489 9.06682628 C40.39785471 10.20687103 48.32466295 10.34198947 56.43524885 10.21576011 C59.14384345 10.17394019 61.85206135 10.15189297 64.5609169 10.13413334 C67.5392963 10.11447238 70.51762295 10.09371232 73.49595332 10.06757039 C84.7131329 9.97071337 95.92920854 10.01477941 107.1465621 10.06108081 C110.86082284 10.07612745 114.5750853 10.08904405 118.28935623 10.10130405 C125.46959038 10.12504204 132.649818 10.15036669 139.83004463 10.17627272 C141.87324096 10.18364377 143.91643738 10.19098776 145.95963383 10.1983273 C158.75575052 10.2443399 171.55186464 10.29102807 184.34797287 10.33933926 C187.26469672 10.35034047 190.18142061 10.36133308 193.09814453 10.37231445 C193.8226361 10.37504276 194.54712767 10.37777106 195.29357353 10.38058204 C207.13601079 10.42506864 218.97845839 10.46560789 230.82091472 10.50465261 C243.06826865 10.54510261 255.31560519 10.58921566 267.56293321 10.63687855 C274.40528931 10.6634122 281.24764288 10.68833579 288.09001923 10.70907402 C294.48939964 10.72847488 300.88874927 10.75279779 307.28809929 10.78049088 C309.63307271 10.78983949 311.97805346 10.7975226 314.3230381 10.80341911 C317.52160878 10.81171317 320.72009892 10.82599697 323.91864014 10.84178162 C324.84554712 10.84275972 325.7724541 10.84373783 326.72744918 10.84474558 C331.58905725 10.87562988 336.20583083 11.18127306 341 12 C341 12.33 341 12.66 341 13 C302.5445583 13.06875136 264.08912589 13.121572 225.6336351 13.15319599 C221.08778789 13.15694785 216.54194079 13.16083085 211.99609375 13.16479492 C210.63866886 13.16597532 210.63866886 13.16597532 209.25382125 13.16717956 C194.62439553 13.18021338 179.99500537 13.20385602 165.36560071 13.23145839 C150.34088079 13.25956901 135.31617942 13.27618819 120.29143429 13.28226548 C111.02946216 13.28637022 101.7675906 13.29930806 92.50564945 13.3237494 C86.14389043 13.33967651 79.78218298 13.34438467 73.42040551 13.34050413 C69.75667242 13.33859337 66.09311436 13.34140448 62.42941284 13.35761642 C28.38265264 13.5008077 28.38265264 13.5008077 12.3125 7.0625 C11.66345703 6.82337891 11.01441406 6.58425781 10.34570312 6.33789062 C6.31612623 4.78426942 3.22798237 2.85765934 0 0 Z " fill="#6CEAE1" transform="translate(131,634)"/>
<path d="M0 0 C0.99 0.33 1.98 0.66 3 1 C4.1328125 3.87890625 4.1328125 3.87890625 5.125 7.5625 C5.45757813 8.76003906 5.79015625 9.95757812 6.1328125 11.19140625 C7.66839135 17.93550256 8.14766582 24.44285566 8.12025452 31.32702637 C8.12110894 32.12607092 8.12196337 32.92511548 8.12284368 33.74837351 C8.12448036 36.40453802 8.11900702 39.06063826 8.11352539 41.71679688 C8.1132431 43.62928262 8.11340207 45.54176847 8.1139679 47.45425415 C8.11425424 52.6313108 8.10838381 57.80834418 8.10139394 62.98539543 C8.0951333 68.40127316 8.09455446 73.81715144 8.09336853 79.23303223 C8.09026321 89.48215187 8.08206058 99.73126082 8.07201904 109.98037577 C8.0608331 121.65143815 8.0553412 133.32250105 8.05032361 144.99356747 C8.0398773 168.99571757 8.02229333 192.99785818 8 217 C3.7794035 215.6404241 -0.0681098 214.05956153 -4 212 C-1 211 -1 211 2.1875 212.4375 C3.115625 212.953125 4.04375 213.46875 5 214 C4.95532766 212.40556785 4.95532766 212.40556785 4.90975285 210.77892494 C4.20855329 185.38949607 3.85562168 160.02366595 3.89860606 134.62508345 C3.90504821 130.14097742 3.90545926 125.65686995 3.90663147 121.17276001 C3.90968549 112.75931838 3.91781488 104.34589043 3.92798096 95.93245471 C3.93933144 86.32102463 3.9446992 76.70959375 3.94967639 67.0981586 C3.96000577 47.39876477 3.97748441 27.6993835 4 8 C3.01 7.67 2.02 7.34 1 7 C0.67 4.69 0.34 2.38 0 0 Z " fill="#79C9FA" transform="translate(646,180)"/>
<path d="M0 0 C1.03898437 -0.00386719 2.07796875 -0.00773437 3.1484375 -0.01171875 C4.13328125 -0.01042969 5.118125 -0.00914063 6.1328125 -0.0078125 C7.0211377 -0.00668457 7.90946289 -0.00555664 8.82470703 -0.00439453 C10.875 0.125 10.875 0.125 11.875 1.125 C11.96833705 2.72110982 11.99245372 4.32133428 11.98852539 5.92016602 C11.98841209 7.45164024 11.98841209 7.45164024 11.98829651 9.01405334 C11.98313522 10.1244548 11.97797394 11.23485626 11.97265625 12.37890625 C11.9712413 13.50948959 11.96982635 14.64007294 11.96836853 15.80491638 C11.96275019 19.43247065 11.95019458 23.05996424 11.9375 26.6875 C11.93248736 29.13997307 11.92792405 31.5924471 11.92382812 34.04492188 C11.9127748 40.07163545 11.89601884 46.09831339 11.875 52.125 C10.39 51.135 10.39 51.135 8.875 50.125 C8.50750732 48.27896118 8.50750732 48.27896118 8.51855469 46.01416016 C8.51555359 45.16632965 8.51255249 44.31849915 8.50946045 43.44497681 C8.52798065 42.06842422 8.52798065 42.06842422 8.546875 40.6640625 C8.54874817 39.72194916 8.55062134 38.77983582 8.55255127 37.80917358 C8.55928203 35.8135017 8.57321673 33.81784323 8.59375 31.82226562 C8.62480261 28.76940629 8.63471024 25.71706385 8.640625 22.6640625 C8.64979923 20.72655622 8.66017634 18.78905518 8.671875 16.8515625 C8.67612488 15.93790924 8.68037476 15.02425598 8.68475342 14.08291626 C8.69436096 13.22878143 8.70396851 12.37464661 8.71386719 11.49462891 C8.72069519 10.74565338 8.72752319 9.99667786 8.73455811 9.2250061 C8.87763774 7.08555829 9.29081427 5.18413281 9.875 3.125 C5.59165389 3.16993698 1.30963313 3.24054438 -2.97290039 3.33251953 C-4.42233245 3.36032255 -5.87190467 3.38173365 -7.3215332 3.39599609 C-21.43877331 3.54299964 -34.2014831 6.15856798 -47.125 12.125 C-47.82367188 12.43566406 -48.52234375 12.74632812 -49.2421875 13.06640625 C-64.91995876 20.84786415 -77.57961933 35.56990753 -85.125 51.125 C-85.48078125 51.8159375 -85.8365625 52.506875 -86.203125 53.21875 C-90.2603308 61.57538283 -92.33351202 70.37726486 -92.171875 79.66796875 C-92.10541224 86.87680503 -92.34358089 94.04766741 -92.625 101.25 C-93.1155788 114.72682952 -93.20241122 128.1817043 -93.08789062 141.66650391 C-93.02761816 150.54349273 -93.34021663 159.27429023 -94.125 168.125 C-94.455 168.125 -94.785 168.125 -95.125 168.125 C-95.21810038 155.73689645 -95.28896701 143.34887754 -95.33224869 130.96049404 C-95.35303245 125.20669035 -95.38118016 119.45312783 -95.42675781 113.69946289 C-95.47054609 108.1362226 -95.49420618 102.57321278 -95.50450897 97.00981331 C-95.51184156 94.89815715 -95.52615856 92.78651213 -95.54792023 90.67495537 C-95.70208722 75.0812867 -94.72090171 61.20224119 -86.875 47.3125 C-86.48441406 46.6009375 -86.09382813 45.889375 -85.69140625 45.15625 C-82.39941327 39.30736927 -78.66446113 34.08035718 -74.125 29.125 C-73.47402344 28.3825 -72.82304688 27.64 -72.15234375 26.875 C-53.17981113 6.44849759 -27.02559459 -0.10448039 0 0 Z " fill="#DE46E1" transform="translate(183.125,124.875)"/>
<path d="M0 0 C1.83469902 0.01016955 3.66940075 0.01986021 5.50410461 0.02911377 C10.43698117 0.05532722 15.36979319 0.088158 20.30262065 0.12226367 C25.47553335 0.15687508 30.64848023 0.18528032 35.82142639 0.21437073 C45.59576351 0.27026663 55.37005783 0.33166694 65.14434868 0.39509207 C76.28109814 0.46708661 87.41788165 0.53287296 98.55467212 0.59816253 C121.44412742 0.73249005 144.33351875 0.87535278 167.22290039 1.02172852 C167.22290039 18.18172852 167.22290039 35.34172852 167.22290039 53.02172852 C166.89290039 53.02172852 166.56290039 53.02172852 166.22290039 53.02172852 C166.22290039 36.19172852 166.22290039 19.36172852 166.22290039 2.02172852 C100.55290039 2.02172852 34.88290039 2.02172852 -32.77709961 2.02172852 C-32.77709961 18.52172852 -32.77709961 35.02172852 -32.77709961 52.02172852 C-33.82790757 61.47900019 -35.96006135 68.20469026 -42.77709961 75.02172852 C-43.76709961 75.02172852 -44.75709961 75.02172852 -45.77709961 75.02172852 C-46.10709961 76.01172852 -46.43709961 77.00172852 -46.77709961 78.02172852 C-48.26209961 79.01172852 -48.26209961 79.01172852 -49.77709961 80.02172852 C-50.76709961 79.69172852 -51.75709961 79.36172852 -52.77709961 79.02172852 C-52.11323242 78.46485352 -51.44936523 77.90797852 -50.76538086 77.33422852 C-40.58855315 68.53907231 -35.85236995 60.66355663 -34.47817993 47.06335449 C-34.34113288 44.08323136 -34.28425659 41.11427155 -34.26538086 38.13110352 C-34.24742966 37.06047668 -34.22947845 35.98984985 -34.21098328 34.88677979 C-34.15741983 31.51513442 -34.12315924 28.14362609 -34.08959961 24.77172852 C-34.05637883 22.46572007 -34.02188488 20.1597296 -33.98608398 17.85375977 C-33.90172531 12.24319982 -33.83429752 6.63262323 -33.77709961 1.02172852 C-22.49244449 0.08323646 -11.31719867 -0.08759202 0 0 Z " fill="#C678ED" transform="translate(305.777099609375,124.978271484375)"/>
<path d="M0 0 C4.07961597 0.84991999 5.41004605 2.39294432 8 5.625 C8.62890625 9.21875 8.62890625 9.21875 8.5625 13.125 C8.56443359 15.05859375 8.56443359 15.05859375 8.56640625 17.03125 C7.92327942 21.11177886 6.94637158 22.7789529 4 25.625 C0.5625 26.8125 0.5625 26.8125 -3 26.625 C-6.05421698 24.54553312 -6.74246767 23.95441379 -8 20.625 C-8.68510285 15.53964307 -8.94328477 10.6798966 -8 5.625 C-5.4071344 2.3989928 -4.07721649 0.8494201 0 0 Z " fill="#F2F9FD" transform="translate(581,426.375)"/>
<path d="M0 0 C3.30784304 0.67507001 5.10662397 1.56527783 7.140625 4.3125 C9.26151607 9.63270133 9.09730478 16.07966382 8.0625 21.625 C5.43836295 24.89971345 4.15761143 26.42385708 0 27.1875 C-3.73864166 26.4715899 -4.69237624 25.69602552 -6.9375 22.625 C-7.52871214 19.61392529 -7.49615013 16.68458175 -7.4375 13.625 C-7.45296875 12.81804688 -7.4684375 12.01109375 -7.484375 11.1796875 C-7.45894996 7.32779349 -7.4113127 5.27210994 -5.08984375 2.1015625 C-2.9375 0.625 -2.9375 0.625 0 0 Z " fill="#F4FBFD" transform="translate(580.9375,617.375)"/>
<path d="M0 0 C1.1456543 -0.01740234 1.1456543 -0.01740234 2.31445312 -0.03515625 C5.70759486 -0.01743749 8.00814209 0.09175775 11.0625 1.65234375 C13.12289988 4.01858424 13.09131856 6.28422544 13.19140625 9.33984375 C12.18247664 12.60476502 10.44259968 13.6323865 7.5625 15.375 C3.93359375 15.90625 3.93359375 15.90625 0 15.875 C-1.30066406 15.8853125 -2.60132813 15.895625 -3.94140625 15.90625 C-7.4375 15.375 -7.4375 15.375 -9.875 13.59765625 C-12.43134605 9.96125399 -11.92344864 7.74853772 -11.4375 3.375 C-8.96154178 -0.8902249 -4.36917434 -0.06603286 0 0 Z " fill="#F7FCFD" transform="translate(484.4375,527.625)"/>
<path d="M0 0 C0.70769531 -0.01998047 1.41539062 -0.03996094 2.14453125 -0.06054688 C5.79105163 -0.0571516 7.96151399 0.3379026 11.09375 2.24609375 C13.125 4.4375 13.125 4.4375 13.75 7.9375 C13.125 11.4375 13.125 11.4375 11.05859375 13.625 C7.3454958 15.91911112 4.90301052 15.97198271 0.5625 15.9375 C-0.73816406 15.9478125 -2.03882813 15.958125 -3.37890625 15.96875 C-6.875 15.4375 -6.875 15.4375 -9.3125 13.66015625 C-11.86884605 10.02375399 -11.36094864 7.81103772 -10.875 3.4375 C-8.41546853 -0.64625037 -4.27414678 -0.04235641 0 0 Z " fill="#F5FAFD" transform="translate(676.875,527.5625)"/>
<path d="M0 0 C0.33 0 0.66 0 1 0 C1.16900533 7.81030807 1.32874521 15.62076709 1.48217773 23.43139648 C1.53474602 26.08609512 1.59071597 28.7406596 1.64819336 31.39526367 C1.73064818 35.22045055 1.80548929 39.04572401 1.87890625 42.87109375 C1.91945885 44.63881386 1.91945885 44.63881386 1.96083069 46.44224548 C1.98092697 47.56272781 2.00102325 48.68321014 2.02172852 49.83764648 C2.04171402 50.81249496 2.06169952 51.78734344 2.08229065 52.79173279 C2.01627489 55.36549054 1.81423265 57.79057269 1.5057373 60.33935547 C0.97528247 64.82230431 0.86494259 69.22234147 0.88647461 73.73266602 C0.88632858 74.55328018 0.88618256 75.37389435 0.8860321 76.21937561 C0.88672172 78.89758059 0.89446896 81.57571361 0.90234375 84.25390625 C0.90421132 86.12434349 0.90563362 87.99478121 0.90663147 89.86521912 C0.91042998 94.76255672 0.9202372 99.65986416 0.93133545 104.55718994 C0.94160719 109.56481519 0.94614139 114.57244536 0.95117188 119.58007812 C0.96186211 129.38673192 0.97890614 139.19336344 1 149 C0.34 149.33 -0.32 149.66 -1 150 C-1.02343383 132.50959445 -1.04103043 115.01919386 -1.05181217 97.52877617 C-1.05695295 89.40638578 -1.06395305 81.28400519 -1.07543945 73.16162109 C-1.08545441 66.07632093 -1.09186953 58.99102787 -1.09408849 51.90572083 C-1.09538411 48.15942704 -1.09839628 44.41315354 -1.10573006 40.6668663 C-1.11259814 37.12927138 -1.1145954 33.59170481 -1.11310768 30.05410385 C-1.11350714 28.16027207 -1.11884541 26.26644325 -1.12442017 24.37261963 C-1.11477706 16.21031372 -0.68025809 8.1333663 0 0 Z " fill="#1AA4E6" transform="translate(89,422)"/>
<path d="M0 0 C0.66 0 1.32 0 2 0 C1.83923477 0.65614792 1.67846954 1.31229584 1.51283264 1.98832703 C0.87601705 5.72810518 0.82338799 9.40492626 0.79467773 13.18676758 C0.78477814 13.99704407 0.77487854 14.80732056 0.76467896 15.64215088 C0.73319381 18.30958169 0.70835807 20.97703029 0.68359375 23.64453125 C0.663013 25.49827018 0.64201623 27.35200454 0.62062073 29.20573425 C0.56551583 34.07677497 0.51605561 38.94785724 0.46777344 43.81896973 C0.4174737 48.79276207 0.36183191 53.76649433 0.30664062 58.74023438 C0.19920077 68.49343822 0.0977245 78.24669431 0 88 C-0.99 88.495 -0.99 88.495 -2 89 C-3.21403061 85.20609762 -3.15487587 81.43717526 -3.16113281 77.49682617 C-3.16609772 76.74670761 -3.17106262 75.99658905 -3.17617798 75.22373962 C-3.19076008 72.7468066 -3.19759511 70.26993762 -3.203125 67.79296875 C-3.20887984 66.06667581 -3.21463753 64.34038288 -3.22039795 62.61408997 C-3.23089679 58.99524641 -3.23674672 55.376425 -3.24023438 51.75756836 C-3.24571579 47.13074401 -3.26974094 42.50421441 -3.29820633 37.87748241 C-3.3168719 34.31117408 -3.3220404 30.74493619 -3.32357025 27.17858315 C-3.32658862 25.47341616 -3.33458951 23.76825016 -3.34775543 22.06313133 C-3.36489779 19.67231482 -3.362916 17.28221123 -3.35644531 14.89135742 C-3.3656601 14.19345093 -3.37487488 13.49554443 -3.3843689 12.77648926 C-3.34214632 7.77158632 -2.16674915 4.40878548 0 0 Z " fill="#292E4E" transform="translate(491,89)"/>
<path d="M0 0 C0.33 0 0.66 0 1 0 C1.33 42.24 1.66 84.48 2 128 C-1 125 -1 125 -1.3719368 123.04689884 C-1.37047024 122.30133449 -1.36900368 121.55577013 -1.36749268 120.78761292 C-1.37306183 119.92890594 -1.37863098 119.07019897 -1.3843689 118.18547058 C-1.37515411 117.24584976 -1.36593933 116.30622894 -1.35644531 115.33813477 C-1.35848969 114.34569763 -1.36053406 113.3532605 -1.36264038 112.33074951 C-1.36565865 109.03411688 -1.34711842 105.73797995 -1.328125 102.44140625 C-1.32506501 100.13948185 -1.32319071 97.83755559 -1.32244873 95.53562927 C-1.31783679 90.69417293 -1.30339243 85.85288207 -1.28125 81.01147461 C-1.25323617 74.86032213 -1.24206562 68.70930135 -1.2375679 62.55809116 C-1.23235539 56.64417981 -1.21783971 50.73030017 -1.203125 44.81640625 C-1.20124428 43.71158968 -1.19936356 42.60677311 -1.19742584 41.46847725 C-1.16701722 27.61551462 -0.83547105 13.82870868 0 0 Z " fill="#2CACEB" transform="translate(135,416)"/>
<path d="M0 0 C0.66 0.33 1.32 0.66 2 1 C1.09378906 1.88300781 0.18757813 2.76601563 -0.74609375 3.67578125 C-7.98191121 10.78125051 -14.88389354 17.88757604 -21 26 C-21.52722656 26.69867188 -22.05445313 27.39734375 -22.59765625 28.1171875 C-39.52965234 52.04774198 -44.18121485 79.37075359 -45 108 C-45.33 108 -45.66 108 -46 108 C-46.83317234 75.39412075 -46.83317234 75.39412075 -42 61 C-41.79101074 60.33935547 -41.58202148 59.67871094 -41.36669922 58.99804688 C-33.96324522 35.7728294 -18.46733895 15.62956819 0 0 Z " fill="#54C7F7" transform="translate(502,436)"/>
<path d="M0 0 C0.66 0 1.32 0 2 0 C2.78667145 12.72706294 3.13887515 25.38699076 3.09765625 38.13671875 C3.09578372 39.88076232 3.09436379 41.62480642 3.09336853 43.36885071 C3.08960891 47.88792456 3.07983739 52.4069646 3.06866455 56.92602539 C3.05830674 61.56591332 3.05384061 66.20580689 3.04882812 70.84570312 C3.03820694 79.89715001 3.02121282 88.94857216 3 98 C-0.63 96.35 -4.26 94.7 -8 93 C-5 92 -5 92 -1.8125 93.4375 C-0.884375 93.953125 0.04375 94.46875 1 95 C0.96970703 94.00524658 0.93941406 93.01049316 0.90820312 91.9855957 C-0.00553405 61.32057627 -0.11936033 30.67695774 0 0 Z " fill="#1CCCDD" transform="translate(650,299)"/>
<path d="M0 0 C21.78 0 43.56 0 66 0 C62.53322756 2.31118163 61.23668119 2.24417896 57.15161133 2.22705078 C55.35008354 2.22682419 55.35008354 2.22682419 53.51216125 2.22659302 C52.21521835 2.21627045 50.91827545 2.20594788 49.58203125 2.1953125 C48.24110627 2.19158155 46.90017856 2.18873497 45.55924988 2.18673706 C42.03285167 2.17910699 38.50661866 2.15946403 34.98028564 2.1373291 C31.38076004 2.1168571 27.78120769 2.10773245 24.18164062 2.09765625 C17.12102624 2.07621745 10.06052391 2.04208913 3 2 C2.07895275 4.76314176 1.88624938 6.32163579 1.91821289 9.16088867 C1.9247438 9.99573288 1.93127472 10.83057709 1.93800354 11.6907196 C1.95515663 13.04070793 1.95515663 13.04070793 1.97265625 14.41796875 C1.98531002 16.33137835 1.99767042 18.24478991 2.00976562 20.15820312 C2.03450861 23.16876351 2.06240777 26.17922156 2.09594727 29.18969727 C2.12633608 32.09912736 2.14398719 35.00842956 2.16015625 37.91796875 C2.17361588 38.80783981 2.1870755 39.69771088 2.20094299 40.61454773 C2.22270177 46.09234318 1.5454655 50.7393193 0 56 C-0.33 56 -0.66 56 -1 56 C-0.67 37.52 -0.34 19.04 0 0 Z " fill="#BC2FE4" transform="translate(273,127)"/>
<path d="M0 0 C2 2 2 2 2.13525391 5.51123047 C2.09257661 7.04686754 2.03879439 8.58221852 1.9765625 10.1171875 C1.95153656 10.94942841 1.92651062 11.78166931 1.90072632 12.63912964 C1.84592703 14.4416416 1.78671563 16.24402357 1.72363281 18.04626465 C1.55702509 22.8244833 1.42264187 27.60357271 1.2890625 32.3828125 C1.2613678 33.35516846 1.2336731 34.32752441 1.20513916 35.3293457 C0.91074699 46.25249829 0.94211475 57.17137364 1.03759766 68.09716797 C1.09797362 76.78966119 0.76041043 85.34014723 0 94 C-0.33 94 -0.66 94 -1 94 C-1.02316936 82.48219892 -1.04093856 70.96440339 -1.05181217 59.44658375 C-1.05703092 54.09841399 -1.06411033 48.75026019 -1.07543945 43.40209961 C-1.08630406 38.24092642 -1.09228444 33.07976857 -1.09487724 27.91858482 C-1.09672503 25.94941657 -1.10033327 23.98024915 -1.10573006 22.01108742 C-1.11298786 19.25322276 -1.11398893 16.4954215 -1.11352539 13.73754883 C-1.11712067 12.92330948 -1.12071594 12.10907013 -1.12442017 11.27015686 C-1.11735907 7.38826168 -0.95171672 3.7726613 0 0 Z " fill="#B42BE4" transform="translate(89,199)"/>
<path d="M0 0 C2.43937786 4.3504112 3.6425737 9.14184855 5.05664062 13.89257812 C6.09623038 17.31577554 7.21536175 20.61111595 8.66015625 23.88671875 C10 27 10 27 10 29 C10.66 29.33 11.32 29.66 12 30 C12.144375 30.66 12.28875 31.32 12.4375 32 C12.623125 32.66 12.80875 33.32 13 34 C13.99 34.33 14.98 34.66 16 35 C16.67441131 36.6635479 17.3400321 38.33066942 18 40 C19.28659163 41.37849103 20.62913085 42.70529025 22 44 C22.98612892 45.18172474 23.96477185 46.36972024 24.9375 47.5625 C27.3520953 50.43059797 29.68345599 52.19959039 33 54 C33.33 54.66 33.66 55.32 34 56 C34.99 56.33 35.98 56.66 37 57 C37 57.66 37 58.32 37 59 C37.639375 59.103125 38.27875 59.20625 38.9375 59.3125 C39.618125 59.539375 40.29875 59.76625 41 60 C41.33 60.99 41.66 61.98 42 63 C26.01691284 57.5283125 13.26111464 39.92317407 6.03149414 25.29467773 C-2.07987256 8.11728039 -2.07987256 8.11728039 0 0 Z " fill="#52E2D5" transform="translate(89,571)"/>
<path d="M0 0 C0.66 0 1.32 0 2 0 C2.01030746 0.61894638 2.02061493 1.23789276 2.03123474 1.87559509 C2.13986645 8.34888064 2.25441411 14.82204279 2.37231445 21.29516602 C2.41548264 23.70724899 2.45716955 26.11935896 2.49731445 28.53149414 C2.55545834 32.00935993 2.61902318 35.48709205 2.68359375 38.96484375 C2.70866249 40.56851051 2.70866249 40.56851051 2.73423767 42.20457458 C2.85144927 48.2010088 3.23762325 54.05020565 4 60 C-1.53617986 53.96053107 -1.29318097 45.69995042 -1.23046875 37.98828125 C-1.23001053 37.05702927 -1.22955231 36.12577728 -1.2290802 35.16630554 C-1.22607615 33.2107108 -1.21824575 31.25511806 -1.20581055 29.29956055 C-1.18749049 26.31094879 -1.18530164 23.3226466 -1.18554688 20.33398438 C-1.18063303 18.42708066 -1.17480529 16.52017904 -1.16796875 14.61328125 C-1.16685593 13.7236116 -1.1657431 12.83394196 -1.16459656 11.91731262 C-1.13326846 7.81857365 -1.03029282 3.99733059 0 0 Z " fill="#744DED" transform="translate(470,127)"/>
<path d="M0 0 C2.00720923 0.28674418 4.0085944 0.61866701 6 1 C5.01 1.33 4.02 1.66 3 2 C3 2.66 3 3.32 3 4 C-4.61742768 5.01456609 -12.13242759 5.21716164 -19.8125 5.25 C-21.00681641 5.270625 -22.20113281 5.29125 -23.43164062 5.3125 C-31.38468159 5.34713491 -38.39105634 4.31701901 -46 2 C-46 1.67 -46 1.34 -46 1 C-45.09870361 1.03552979 -44.19740723 1.07105957 -43.26879883 1.10766602 C-39.86011687 1.23844168 -36.45131764 1.36244891 -33.04223633 1.48217773 C-31.57892325 1.53489097 -30.11569905 1.59014521 -28.65258789 1.64819336 C-19.41119156 2.01277675 -10.19259229 2.29767663 -1 1 C-0.67 0.67 -0.34 0.34 0 0 Z " fill="#4A6DB7" transform="translate(601,687)"/>
<path d="M0 0 C2.429107 2.2178803 3.90820066 4.40933831 5.4375 7.3125 C6.94829438 10.12349319 8.49192638 12.81639047 10.3125 15.4375 C12 18 12 18 12 20 C12.66 20 13.32 20 14 20 C14 20.99 14 21.98 14 23 C14.66 23 15.32 23 16 23 C17.7265625 24.6796875 17.7265625 24.6796875 19.625 26.875 C20.25664062 27.59429688 20.88828125 28.31359375 21.5390625 29.0546875 C23 31 23 31 23 33 C23.66 33 24.32 33 25 33 C26.33203125 34.42578125 26.33203125 34.42578125 27.8125 36.3125 C30.27554567 39.31414779 32.59196428 41.09550945 36 43 C36 43.66 36 44.32 36 45 C36.99 45 37.98 45 39 45 C40.9249647 46.82193842 42.37535531 48.89235283 44 51 C39.5169342 49.54155345 36.31702487 47.05166947 32.8125 44 C32.24225098 43.50653076 31.67200195 43.01306152 31.08447266 42.50463867 C29.37898146 41.01466084 27.68736926 39.51044714 26 38 C25.11441406 37.21238281 24.22882813 36.42476562 23.31640625 35.61328125 C14.09299378 26.92113734 4.90938926 14.79880845 0 3 C0 2.01 0 1.02 0 0 Z " fill="#2AC5F7" transform="translate(468,589)"/>
<path d="M0 0 C1.53732788 -0.0009668 1.53732788 -0.0009668 3.10571289 -0.00195312 C10.42746994 0.05246994 10.42746994 0.05246994 11.5625 1.1875 C11.65583705 2.78360982 11.67995372 4.38383428 11.67602539 5.98266602 C11.67594986 7.00364883 11.67587433 8.02463165 11.67579651 9.07655334 C11.67063522 10.1869548 11.66547394 11.29735626 11.66015625 12.44140625 C11.6587413 13.57198959 11.65732635 14.70257294 11.65586853 15.86741638 C11.65025019 19.49497065 11.63769458 23.12246424 11.625 26.75 C11.61998736 29.20247307 11.61542405 31.6549471 11.61132812 34.10742188 C11.6002748 40.13413545 11.58351884 46.16081339 11.5625 52.1875 C11.2325 52.1875 10.9025 52.1875 10.5625 52.1875 C10.5625 35.6875 10.5625 19.1875 10.5625 2.1875 C5.32375 2.331875 0.085 2.47625 -5.3125 2.625 C-7.79112549 2.68965454 -7.79112549 2.68965454 -10.31982422 2.75561523 C-11.6142041 2.79372314 -12.90858398 2.83183105 -14.2421875 2.87109375 C-15.26324585 2.8958075 -15.26324585 2.8958075 -16.30493164 2.92102051 C-19.9954701 2.99324475 -19.9954701 2.99324475 -23.4375 4.1875 C-25.11404729 3.90807545 -26.78358154 3.57921753 -28.4375 3.1875 C-28.4375 2.8575 -28.4375 2.5275 -28.4375 2.1875 C-18.92143219 0.64062105 -9.64067985 -0.00600619 0 0 Z " fill="#E174E5" transform="translate(183.4375,124.8125)"/>
<path d="M0 0 C9.57 0 19.14 0 29 0 C28.67 0.66 28.34 1.32 28 2 C27.2479126 1.99476318 26.4958252 1.98952637 25.72094727 1.98413086 C22.33480658 1.96342773 18.94867916 1.95036123 15.5625 1.9375 C14.37849609 1.92912109 13.19449219 1.92074219 11.97460938 1.91210938 C10.84990234 1.90888672 9.72519531 1.90566406 8.56640625 1.90234375 C7.52427979 1.89710693 6.48215332 1.89187012 5.40844727 1.88647461 C3.04871253 1.72694444 3.04871253 1.72694444 2 3 C1.92411535 5.24751371 1.91698604 7.4973929 1.9375 9.74609375 C1.94128662 10.4312355 1.94507324 11.11637726 1.94897461 11.82228088 C1.96529065 14.75781621 1.99303397 17.69321305 2.02050781 20.62866211 C2.09065576 28.81843552 2.02696154 36.85651587 1 45 C0.67 45 0.34 45 0 45 C0 30.15 0 15.3 0 0 Z " fill="#5455F7" transform="translate(551,127)"/>
<path d="M0 0 C10.23 0 20.46 0 31 0 C31 0.33 31 0.66 31 1 C21.1 1 11.2 1 1 1 C1.11988423 7.19316806 1.24253075 13.38615135 1.37231445 19.57910156 C1.41562358 21.68583927 1.45730153 23.79261117 1.49731445 25.89941406 C1.55511427 28.92783919 1.61878096 31.95609285 1.68359375 34.984375 C1.70030624 35.92617615 1.71701874 36.86797729 1.73423767 37.83831787 C1.75418289 38.71892883 1.77412811 39.59953979 1.79467773 40.50683594 C1.81022202 41.27960876 1.8257663 42.05238159 1.84178162 42.84857178 C1.93456759 45.0234954 1.93456759 45.0234954 2.57533264 47.15582275 C3 49 3 49 2 51 C1.34 51 0.68 51 0 51 C-0.33 51.99 -0.66 52.98 -1 54 C-0.67 36.18 -0.34 18.36 0 0 Z " fill="#8682F3" transform="translate(550,126)"/>
<path d="M0 0 C0.33 0.99 0.66 1.98 1 3 C-0.00390625 4.7265625 -0.00390625 4.7265625 -1.5625 6.625 C-6.83896098 13.30283052 -11.31319856 20.39530662 -15.60546875 27.73828125 C-16.95775846 29.93149061 -18.42155339 31.9652473 -20 34 C-21 31 -21 31 -19.4453125 27.84765625 C-18.6843755 26.57835934 -17.91001582 25.3170477 -17.125 24.0625 C-16.71878418 23.39951904 -16.31256836 22.73653809 -15.89404297 22.0534668 C-11.96545618 15.74490313 -7.57674271 9.85418696 -3 4 C-1.99679263 2.66907823 -0.99548642 1.33670661 0 0 Z " fill="#5775CC" transform="translate(464,432)"/>
<path d="M0 0 C10.12388 0.42270898 17.41924203 3.88805908 26 9 C26 9.66 26 10.32 26 11 C26.680625 11.165 27.36125 11.33 28.0625 11.5 C32.39632353 13.71301627 34.97802936 17.25519489 38 21 C35 21 35 21 33.37890625 19.49609375 C32.77949219 18.81675781 32.18007813 18.13742187 31.5625 17.4375 C22.30642137 7.9462397 11.59931412 4.57422535 -1 2 C-0.67 1.34 -0.34 0.68 0 0 Z " fill="#3B97F8" transform="translate(558,243)"/>
<path d="M0 0 C9.14215838 1.50310262 15.81423659 12.10448897 21 19 C20.67 19.66 20.34 20.32 20 21 C15.73298756 17.66964883 12.30670146 14.12205932 8.8125 9.99609375 C6.50849236 7.45870602 3.97444285 5.34252866 1.28515625 3.2265625 C0.86105469 2.82179687 0.43695312 2.41703125 0 2 C0 1.34 0 0.68 0 0 Z " fill="#6995FA" transform="translate(618,143)"/>
<path d="M0 0 C0.99 0 1.98 0 3 0 C1.20730695 6.16238235 -1.22379339 11.88589012 -3.9375 17.6875 C-4.27330078 18.41187256 -4.60910156 19.13624512 -4.95507812 19.88256836 C-6.99811599 24.19043423 -9.25510778 28.10065647 -12 32 C-12.625 30.1875 -12.625 30.1875 -13 28 C-12.01 26.515 -12.01 26.515 -11 25 C-10.34 25 -9.68 25 -9 25 C-9 23.68 -9 22.36 -9 21 C-8.34 21 -7.68 21 -7 21 C-7 19.68 -7 18.36 -7 17 C-6.34 17 -5.68 17 -5 17 C-5 15.68 -5 14.36 -5 13 C-4.34 13 -3.68 13 -3 13 C-3 11.35 -3 9.7 -3 8 C-2.34 8 -1.68 8 -1 8 C-1 6.35 -1 4.7 -1 3 C-0.34 3 0.32 3 1 3 C0.67 2.01 0.34 1.02 0 0 Z " fill="#4E72BA" transform="translate(724,588)"/>
<path d="M0 0 C0.99 0.33 1.98 0.66 3 1 C2.73445313 1.68964844 2.46890625 2.37929687 2.1953125 3.08984375 C0.21727301 8.35258386 -1.45234658 13.47325622 -2.5625 18.984375 C-3.159185 21.73338802 -4.05055769 24.35512501 -5 27 C-5.33 27 -5.66 27 -6 27 C-6.45403756 21.43803994 -5.56694977 16.61834001 -4.125 11.25 C-3.86444824 10.2753479 -3.86444824 10.2753479 -3.59863281 9.28100586 C-2.6824956 6.00297885 -1.66699022 2.97355012 0 0 Z " fill="#DE57E6" transform="translate(94,177)"/>
<path d="M0 0 C1 3 1 3 -0.1875 5.8125 C-2.4750079 9.83535871 -4.71501435 13.71501435 -8 17 C-8.99 17 -9.98 17 -11 17 C-11.33 17.99 -11.66 18.98 -12 20 C-12.99 20.66 -13.98 21.32 -15 22 C-15.99 21.67 -16.98 21.34 -18 21 C-17.3709375 20.48953125 -16.741875 19.9790625 -16.09375 19.453125 C-9.22931197 13.62248787 -4.65252189 7.68055988 0 0 Z " fill="#AF5AEA" transform="translate(271,183)"/>
<path d="M0 0 C2.26162118 2.86516231 4.0066559 5.76353228 5.6875 9 C10.07041316 17.15374867 15.13714088 24.8342833 21 32 C20.67 32.66 20.34 33.32 20 34 C19.38125 33.195625 18.7625 32.39125 18.125 31.5625 C16.25835959 28.96125481 16.25835959 28.96125481 14 28 C13.17546242 26.67784677 12.41351312 25.31621547 11.6875 23.9375 C10.0331745 20.86240084 8.32570712 17.87471108 6.4375 14.9375 C0 4.75158228 0 4.75158228 0 0 Z " fill="#15B3B6" transform="translate(440,601)"/>
<path d="M0 0 C0.33 0 0.66 0 1 0 C1.33 17.16 1.66 34.32 2 52 C-1 49 -1 49 -1.32279968 46.77900696 C-1.29837296 45.91518906 -1.27394623 45.05137115 -1.2487793 44.16137695 C-1.22853195 43.1805867 -1.20828461 42.19979645 -1.18742371 41.18928528 C-1.15006607 40.13295395 -1.11270844 39.07662262 -1.07421875 37.98828125 C-1.04777786 36.90491989 -1.02133698 35.82155853 -0.99409485 34.70536804 C-0.9062293 31.2405246 -0.79711346 27.77671708 -0.6875 24.3125 C-0.62425205 21.96553208 -0.56238565 19.61852648 -0.50195312 17.27148438 C-0.35067192 11.51378968 -0.18193349 5.75680322 0 0 Z " fill="#3BC5E7" transform="translate(135,492)"/>
<path d="M0 0 C2 1 2 1 3.375 4.1875 C4 8 4 8 2.4375 11.3125 C-0.17715944 14.19532963 -1.32701988 14.94116849 -5 16 C-7.6528635 16.03329954 -10.12243136 15.96769837 -12.75 15.75 C-13.77673828 15.69005859 -13.77673828 15.69005859 -14.82421875 15.62890625 C-16.55752279 15.5019117 -18.28158663 15.25985763 -20 15 C-20.33 14.34 -20.66 13.68 -21 13 C-19.81921875 13.03480469 -18.6384375 13.06960938 -17.421875 13.10546875 C-15.86459758 13.13361232 -14.30730475 13.16091187 -12.75 13.1875 C-11.97269531 13.21263672 -11.19539062 13.23777344 -10.39453125 13.26367188 C-6.98421822 13.30739384 -4.58831416 13.27599924 -1.46875 11.8125 C0.50645287 9.37501561 0.41095493 7.91088234 0.25 4.8125 C0.19585938 3.46091797 0.19585938 3.46091797 0.140625 2.08203125 C0.09421875 1.39496094 0.0478125 0.70789063 0 0 Z " fill="#2199FC" transform="translate(689,529)"/>
<path d="M0 0 C2.39442092 8.30791501 -1.17312149 17.819261 -3 26 C-3.66 25.67 -4.32 25.34 -5 25 C-5.31747363 19.08705358 -4.18406936 14.21095967 -2.5 8.5625 C-2.26152344 7.73556641 -2.02304687 6.90863281 -1.77734375 6.05664062 C-1.193157 4.03535448 -0.59772561 2.01732395 0 0 Z " fill="#6680D0" transform="translate(433,486)"/>
<path d="M0 0 C4.52308255 0.72298785 8.67575603 2.25260907 12.9375 3.875 C13.62779297 4.13152344 14.31808594 4.38804687 15.02929688 4.65234375 C19.15436173 6.20852936 23.08623411 7.95430703 27 10 C22.39262278 11.53579241 19.04008334 9.47975745 14.625 7.8125 C13.77421875 7.50763672 12.9234375 7.20277344 12.046875 6.88867188 C7.39218096 5.15947479 3.69798464 3.43166887 0 0 Z " fill="#58E3D5" transform="translate(131,634)"/>
<path d="M0 0 C0 0.33 0 0.66 0 1 C-1.25554687 1.09796875 -2.51109375 1.1959375 -3.8046875 1.296875 C-15.88620072 2.28108555 -15.88620072 2.28108555 -27.28515625 6.1953125 C-29 7 -29 7 -31 7 C-31 6.34 -31 5.68 -31 5 C-25.25 3 -25.25 3 -23 3 C-23 2.34 -23 1.68 -23 1 C-15.34916042 -0.24911667 -7.72559014 -0.09053426 0 0 Z " fill="#A043E6" transform="translate(193,244)"/>
<path d="M0 0 C0.99 0.33 1.98 0.66 3 1 C5.87415022 8.08444384 7.61094259 15.36321758 7 23 C4.25217311 17.68753468 3.90330982 13.89810092 4 8 C3.01 7.67 2.02 7.34 1 7 C0.67 4.69 0.34 2.38 0 0 Z " fill="#6DA8FA" transform="translate(646,180)"/>
<path d="M0 0 C2.87523714 0.31042917 5.75017727 0.62327519 8.625 0.9375 C9.43324219 1.02451172 10.24148437 1.11152344 11.07421875 1.20117188 C15.41041058 1.67709537 19.70390836 2.22837189 24 3 C24 3.33 24 3.66 24 4 C15.47081601 5.37567484 7.92051981 4.69624258 0 1 C0 0.67 0 0.34 0 0 Z " fill="#31E1CF" transform="translate(153,642)"/>
<path d="M0 0 C1.18096039 3.54288117 0.77717768 4.23990554 -0.58203125 7.59765625 C-0.93716797 8.48130859 -1.29230469 9.36496094 -1.65820312 10.27539062 C-2.03912109 11.19513672 -2.42003906 12.11488281 -2.8125 13.0625 C-3.18181641 13.98611328 -3.55113281 14.90972656 -3.93164062 15.86132812 C-6.72371459 22.72371459 -6.72371459 22.72371459 -9 25 C-8.51792121 20.08279631 -7.52068323 17.16882226 -5 13 C-4.16728756 10.4526383 -3.4422116 7.89251544 -2.74609375 5.3046875 C-2 3 -2 3 0 0 Z " fill="#1C51B0" transform="translate(703,567)"/>
<path d="M0 0 C2.297231 3.4458465 2.13889188 4.07158207 1.625 8 C0.97898299 13.69254987 0.90037032 19.27682825 1 25 C0.34 25.33 -0.32 25.66 -1 26 C-1.02892857 22.04168191 -1.04677427 18.08339083 -1.0625 14.125 C-1.07087891 12.99707031 -1.07925781 11.86914062 -1.08789062 10.70703125 C-1.09111328 9.63066406 -1.09433594 8.55429687 -1.09765625 7.4453125 C-1.10289307 6.45031738 -1.10812988 5.45532227 -1.11352539 4.43017578 C-1 2 -1 2 0 0 Z " fill="#41A4FB" transform="translate(189,309)"/>
<path d="M0 0 C-0.33 0.66 -0.66 1.32 -1 2 C-3.27655884 2.56134328 -5.55324334 2.89246368 -7.87109375 3.2421875 C-10.15294644 3.80298281 -10.15294644 3.80298281 -11.16015625 5.8984375 C-11.57587891 6.93871094 -11.57587891 6.93871094 -12 8 C-14 10.75 -14 10.75 -16 13 C-16.66 13 -17.32 13 -18 13 C-16.61613025 7.77204763 -13.24038711 5.05057385 -9 2 C-5.80014039 0.1810684 -3.69486727 -0.2052704 0 0 Z " fill="#CF5EE8" transform="translate(343,297)"/>
<path d="M0 0 C0.33 0 0.66 0 1 0 C1.03758423 1.01368652 1.03758423 1.01368652 1.07592773 2.04785156 C1.19210742 5.1154168 1.31473437 8.18269158 1.4375 11.25 C1.47681641 12.31347656 1.51613281 13.37695312 1.55664062 14.47265625 C1.59853516 15.49746094 1.64042969 16.52226562 1.68359375 17.578125 C1.72025146 18.52075195 1.75690918 19.46337891 1.79467773 20.43457031 C1.92133211 22.96547991 1.92133211 22.96547991 2.58227539 25.21386719 C3 27 3 27 2 29 C1.34 29 0.68 29 0 29 C-0.33 29.99 -0.66 30.98 -1 32 C-0.67 21.44 -0.34 10.88 0 0 Z " fill="#6E80F3" transform="translate(550,148)"/>
<path d="M0 0 C0.33 0 0.66 0 1 0 C2.16558465 7.32168224 3.24984418 14.62346781 4 22 C-0.93745356 16.61368702 -1.22753527 9.73061299 -1.16796875 2.78515625 C-1 1 -1 1 0 0 Z " fill="#6253F1" transform="translate(470,165)"/>
<path d="M0 0 C-3.01431321 2.42285223 -6.05517439 4.12756366 -9.5625 5.75 C-10.51253906 6.19859375 -11.46257813 6.6471875 -12.44140625 7.109375 C-15 8 -15 8 -18 7 C-17.34 7 -16.68 7 -16 7 C-16 6.34 -16 5.68 -16 5 C-15.37351562 4.72285156 -14.74703125 4.44570313 -14.1015625 4.16015625 C-13.28429687 3.79792969 -12.46703125 3.43570313 -11.625 3.0625 C-10.81289063 2.70285156 -10.00078125 2.34320312 -9.1640625 1.97265625 C-5.75342283 0.43971532 -3.78992753 -0.09973494 0 0 Z " fill="#5A7AC1" transform="translate(652,674)"/>
<path d="M0 0 C3.96 0 7.92 0 12 0 C12 0.66 12 1.32 12 2 C13.65 2 15.3 2 17 2 C17.33 2.99 17.66 3.98 18 5 C11.69632197 4.41632611 6.01339937 2.95928381 0 1 C0 0.67 0 0.34 0 0 Z " fill="#6482C2" transform="translate(533,684)"/>
<path d="M0 0 C1.68054361 3.10423557 2.73989499 6.16498934 3.6875 9.5625 C3.95949219 10.51253906 4.23148437 11.46257813 4.51171875 12.44140625 C5 15 5 15 4 18 C4 17.34 4 16.68 4 16 C3.34 16 2.68 16 2 16 C1.46530198 14.27507022 0.94780825 12.544802 0.4375 10.8125 C0.14746094 9.84957031 -0.14257812 8.88664063 -0.44140625 7.89453125 C-1.02461026 4.87247412 -0.81178385 2.94070045 0 0 Z " fill="#47DDDB" transform="translate(89,571)"/>
<path d="M0 0 C-0.59538574 0.02505615 -1.19077148 0.0501123 -1.80419922 0.07592773 C-4.49469136 0.19177494 -7.1848234 0.31455196 -9.875 0.4375 C-10.81214844 0.47681641 -11.74929687 0.51613281 -12.71484375 0.55664062 C-14.05869141 0.61948242 -14.05869141 0.61948242 -15.4296875 0.68359375 C-16.25710449 0.72025146 -17.08452148 0.75690918 -17.93701172 0.79467773 C-20.06179429 0.88238327 -20.06179429 0.88238327 -22 2 C-23.67654729 1.72057545 -25.34608154 1.39171753 -27 1 C-27 0.67 -27 0.34 -27 0 C-24.50072231 -0.33970765 -22.00080405 -0.67188032 -19.5 -1 C-18.80390625 -1.09539062 -18.1078125 -1.19078125 -17.390625 -1.2890625 C-4.44985465 -2.96656977 -4.44985465 -2.96656977 0 0 Z " fill="#EC87EB" transform="translate(182,127)"/>
<path d="M0 0 C-2.61943903 2.61943903 -5.57473973 3.44197838 -9 4.625 C-9.64195312 4.85445313 -10.28390625 5.08390625 -10.9453125 5.3203125 C-15.72442336 7 -15.72442336 7 -18 7 C-17.67 6.01 -17.34 5.02 -17 4 C-15.14453125 3.12109375 -15.14453125 3.12109375 -12.8125 2.4375 C-11.59820313 2.07205078 -11.59820313 2.07205078 -10.359375 1.69921875 C-9.58078125 1.46847656 -8.8021875 1.23773438 -8 1 C-6.2984375 0.38125 -6.2984375 0.38125 -4.5625 -0.25 C-2 -1 -2 -1 0 0 Z " fill="#3D9EFC" transform="translate(625,506)"/>
<path d="M0 0 C0.33 0 0.66 0 1 0 C1.27263672 0.99580078 1.27263672 0.99580078 1.55078125 2.01171875 C2.90696267 6.77574066 4.26039451 10.82536306 7 15 C7 15.66 7 16.32 7 17 C4 16 4 16 2.578125 13.671875 C2.13984375 12.70765625 1.7015625 11.7434375 1.25 10.75 C0.80140625 9.79609375 0.3528125 8.8421875 -0.109375 7.859375 C-1.0821971 4.73610406 -0.92615883 3.09472585 0 0 Z " fill="#CC63EA" transform="translate(195,177)"/>
<path d="M0 0 C2.46200213 2.24666667 3.98692 4.50860051 5.5625 7.4375 C5.97628906 8.19933594 6.39007813 8.96117187 6.81640625 9.74609375 C7.90457363 11.81828047 8.96288277 13.90186883 10 16 C9.34 16.33 8.68 16.66 8 17 C6.65869239 14.73354942 5.32683766 12.46239903 4 10.1875 C3.42765625 9.22360352 3.42765625 9.22360352 2.84375 8.24023438 C0 3.33984375 0 3.33984375 0 0 Z " fill="#36CAF7" transform="translate(468,589)"/>
<path d="M0 0 C2.97 0.495 2.97 0.495 6 1 C6 1.66 6 2.32 6 3 C8.31 3 10.62 3 13 3 C13.33 4.32 13.66 5.64 14 7 C4.22210581 3.99633316 4.22210581 3.99633316 0 1 C0 0.67 0 0.34 0 0 Z " fill="#617EC1" transform="translate(508,673)"/>
<path d="M0 0 C2.94995547 3.45856848 5.22675738 6.80021485 7 11 C6.67 11.66 6.34 12.32 6 13 C3.65082102 10.84658594 2.17556996 8.78332063 0.75 5.9375 C0.39421875 5.24527344 0.0384375 4.55304688 -0.328125 3.83984375 C-0.54984375 3.23269531 -0.7715625 2.62554687 -1 2 C-0.67 1.34 -0.34 0.68 0 0 Z " fill="#4E72C0" transform="translate(713,454)"/>
<path d="M0 0 C6.0546875 -0.1953125 6.0546875 -0.1953125 8 0 C8.66 0.66 9.32 1.32 10 2 C0.58997722 4.29612756 0.58997722 4.29612756 -4 4 C-3.01 3.67 -2.02 3.34 -1 3 C-0.67 2.01 -0.34 1.02 0 0 Z " fill="#5A7BBF" transform="translate(608,686)"/>
<path d="M0 0 C0.66 0 1.32 0 2 0 C2.86343824 2.12124966 3.71550648 4.24713072 4.5625 6.375 C5.27599609 8.15003906 5.27599609 8.15003906 6.00390625 9.9609375 C7 13 7 13 6 15 C2.35219334 10.8310781 0 5.55196264 0 0 Z " fill="#3EC7F5" transform="translate(461,573)"/>
<path d="M0 0 C0 0.66 0 1.32 0 2 C-2.31 2.66 -4.62 3.32 -7 4 C-7 4.66 -7 5.32 -7 6 C-9.31 6.33 -11.62 6.66 -14 7 C-14 6.34 -14 5.68 -14 5 C-12.04350603 4.16235732 -10.08474444 3.33000941 -8.125 2.5 C-6.48917969 1.80390625 -6.48917969 1.80390625 -4.8203125 1.09375 C-2 0 -2 0 0 0 Z " fill="#34A1FB" transform="translate(617,531)"/>
<path d="M0 0 C0.33 0.66 0.66 1.32 1 2 C1.99 2.33 2.98 2.66 4 3 C4.68132451 4.66072849 5.34742127 6.327767 6 8 C6.99 8.66 7.98 9.32 9 10 C8.67 10.66 8.34 11.32 8 12 C2.25 7.375 2.25 7.375 0 4 C0 2.68 0 1.36 0 0 Z " fill="#3BE1D0" transform="translate(101,603)"/>
<path d="M0 0 C1.26977059 3.80931176 0.52074507 5.81618993 -0.4375 9.6875 C-0.86869141 11.45673828 -0.86869141 11.45673828 -1.30859375 13.26171875 C-1.65083984 14.61716797 -1.65083984 14.61716797 -2 16 C-2.33 16 -2.66 16 -3 16 C-3 12.7 -3 9.4 -3 6 C-2.34 6 -1.68 6 -1 6 C-1.33 4.35 -1.66 2.7 -2 1 C-1.34 0.67 -0.68 0.34 0 0 Z " fill="#5E7FC3" transform="translate(733,562)"/>
<path d="M0 0 C0.99 0.33 1.98 0.66 3 1 C0.21751321 3.93706939 -2.87938211 6.43415863 -6 9 C-6.66 8.67 -7.32 8.34 -8 8 C-3.375 2.25 -3.375 2.25 0 0 Z " fill="#5DB1FC" transform="translate(198,299)"/>
<path d="M0 0 C0.99 0.33 1.98 0.66 3 1 C2.01 3.31 1.02 5.62 0 8 C-0.66 8 -1.32 8 -2 8 C-2.33 9.98 -2.66 11.96 -3 14 C-4.37095624 10.30962722 -3.60010967 8.29116165 -2.0625 4.75 C-1.68222656 3.85796875 -1.30195312 2.9659375 -0.91015625 2.046875 C-0.60980469 1.37140625 -0.30945313 0.6959375 0 0 Z " fill="#E675EA" transform="translate(94,177)"/>
<path d="M0 0 C0.66 0.33 1.32 0.66 2 1 C0.02 1.99 0.02 1.99 -2 3 C-1.34 2.01 -0.68 1.02 0 0 Z M-7 5 C-6.01 5.33 -5.02 5.66 -4 6 C-5.28062485 7.7074998 -6.61767557 9.37373596 -8 11 C-8.66 11 -9.32 11 -10 11 C-9.42655063 8.13275314 -9.1385485 7.1385485 -7 5 Z " fill="#E33CE2" transform="translate(119,146)"/>
<path d="M0 0 C1.15518918 0.90484792 2.29885406 1.8244206 3.4375 2.75 C4.07558594 3.26046875 4.71367187 3.7709375 5.37109375 4.296875 C7.18810554 6.19667629 7.60423197 7.43586908 8 10 C7.01 9.67 6.02 9.34 5 9 C4.855625 8.360625 4.71125 7.72125 4.5625 7.0625 C4.19895007 4.79688294 4.19895007 4.79688294 1.9375 3.75 C1.298125 3.5025 0.65875 3.255 0 3 C0 2.01 0 1.02 0 0 Z " fill="#4DA7FC" transform="translate(274,301)"/>
<path d="M0 0 C3 1 3 1 4.75 3.9375 C5.1625 4.948125 5.575 5.95875 6 7 C5.67 7.66 5.34 8.32 5 9 C4.34 9 3.68 9 3 9 C2.87625 8.360625 2.7525 7.72125 2.625 7.0625 C2.315625 6.0415625 2.315625 6.0415625 2 5 C1.34 4.67 0.68 4.34 0 4 C0 2.68 0 1.36 0 0 Z " fill="#689EFA" transform="translate(640,167)"/>
<path d="M0 0 C0 0.66 0 1.32 0 2 C-1.423125 2.12375 -1.423125 2.12375 -2.875 2.25 C-6.10461791 2.65074923 -6.10461791 2.65074923 -7.375 5.0625 C-7.58125 5.701875 -7.7875 6.34125 -8 7 C-8.66 6.67 -9.32 6.34 -10 6 C-5.38461538 0 -5.38461538 0 0 0 Z " fill="#2E9BFB" transform="translate(602,538)"/>
<path d="M0 0 C0.33 0 0.66 0 1 0 C1.33 5.61 1.66 11.22 2 17 C-1 14 -1 14 -1.07421875 10.64453125 C-0.94660156 9.37996094 -0.81898438 8.11539063 -0.6875 6.8125 C-0.56761719 5.54019531 -0.44773438 4.26789062 -0.32421875 2.95703125 C-0.21722656 1.98121094 -0.11023438 1.00539063 0 0 Z " fill="#29CBDD" transform="translate(135,527)"/>
<path d="M0 0 C1.45945288 0.08708669 2.91765868 0.19526907 4.375 0.3125 C5.59316406 0.39951172 5.59316406 0.39951172 6.8359375 0.48828125 C9 1 9 1 11 4 C7.1936543 3.32829194 3.64793184 2.27253436 0 1 C0 0.67 0 0.34 0 0 Z " fill="#C85AE8" transform="translate(398,297)"/>
<path d="M0 0 C0.66 0 1.32 0 2 0 C0.68775452 3.93673644 -0.91910327 6.22719294 -4 9 C-3.4739075 5.21213403 -2.61896089 2.82847776 0 0 Z " fill="#5074BC" transform="translate(709,620)"/>
<path d="M0 0 C4.26086957 6.39130435 4.26086957 6.39130435 3.625 10.3125 C3.41875 10.869375 3.2125 11.42625 3 12 C3 11.34 3 10.68 3 10 C2.34 10 1.68 10 1 10 C0.67 6.7 0.34 3.4 0 0 Z " fill="#5477C0" transform="translate(725,478)"/>
<path d="M0 0 C0 3 0 3 -2.25 5.625 C-4.72881204 7.76579221 -5.83568489 8.64840943 -9 9 C-6 6 -3 3 0 0 Z " fill="#BD81ED" transform="translate(262,196)"/>
<path d="M0 0 C0.33 0 0.66 0 1 0 C1.36923077 5.53846154 1.36923077 5.53846154 -0.5 7.875 C-1.2425 8.431875 -1.2425 8.431875 -2 9 C-2.125 5.625 -2.125 5.625 -2 2 C-1.34 1.34 -0.68 0.68 0 0 Z " fill="#4368B9" transform="translate(734,554)"/>
<path d="M0 0 C0 0.66 0 1.32 0 2 C-4.15267176 5.11450382 -4.15267176 5.11450382 -7.3125 4.6875 C-7.869375 4.460625 -8.42625 4.23375 -9 4 C-6.43425105 1.43425105 -3.68548192 0 0 0 Z " fill="#2D9FFB" transform="translate(591,547)"/>
<path d="M0 0 C0.33 0 0.66 0 1 0 C1.33 2.31 1.66 4.62 2 7 C0.35 7.66 -1.3 8.32 -3 9 C-2.34 8.01 -1.68 7.02 -1 6 C-0.60986284 4.0103005 -0.26797351 2.00980131 0 0 Z M2 0 C2.33 0 2.66 0 3 0 C3 1.65 3 3.3 3 5 C2.67 5 2.34 5 2 5 C2 3.35 2 1.7 2 0 Z " fill="#48CFFC" transform="translate(497,533)"/>
<path d="M0 0 C0.33 0 0.66 0 1 0 C0.67 3.3 0.34 6.6 0 10 C-0.66 9.67 -1.32 9.34 -2 9 C-2 6.69 -2 4.38 -2 2 C-1.34 2 -0.68 2 0 2 C0 1.34 0 0.68 0 0 Z " fill="#4E6DC7" transform="translate(430,502)"/>
<path d="M0 0 C0.99 0.33 1.98 0.66 3 1 C2.04882866 2.1725131 1.08882991 3.33787015 0.125 4.5 C-0.40867187 5.1496875 -0.94234375 5.799375 -1.4921875 6.46875 C-1.98976563 6.9740625 -2.48734375 7.479375 -3 8 C-3.66 8 -4.32 8 -5 8 C-3.8141763 4.62496331 -2.72426311 2.35277269 0 0 Z " fill="#C757E3" transform="translate(330,302)"/>
<path d="M0 0 C3.60296594 -0.41176754 4.78402067 -0.1535853 7.8125 2 C8.534375 2.66 9.25625 3.32 10 4 C6.7 3.34 3.4 2.68 0 2 C0 1.34 0 0.68 0 0 Z " fill="#50ADFD" transform="translate(264,297)"/>
<path d="M0 0 C2.88575819 0.39803561 3.82189513 0.79009069 5.75 3.0625 C6.1625 3.701875 6.575 4.34125 7 5 C3.47967572 5 2.5614657 4.29648649 0 2 C0 1.34 0 0.68 0 0 Z " fill="#5D85FA" transform="translate(618,143)"/>
<path d="M0 0 C0.99 0 1.98 0 3 0 C2.01 2.97 1.02 5.94 0 9 C-0.33 9 -0.66 9 -1 9 C-1 7.02 -1 5.04 -1 3 C-0.34 3 0.32 3 1 3 C0.67 2.01 0.34 1.02 0 0 Z " fill="#597ABD" transform="translate(724,588)"/>
<path d="M0 0 C0.66 0.99 1.32 1.98 2 3 C-0.75 8.875 -0.75 8.875 -3 10 C-2.01 6.7 -1.02 3.4 0 0 Z " fill="#5E7BCE" transform="translate(437,476)"/>
<path d="M0 0 C1.14926266 0.95421808 2.29430541 1.91352045 3.4375 2.875 C4.07558594 3.40867188 4.71367187 3.94234375 5.37109375 4.4921875 C7 6 7 6 8 8 C4.21479387 7.45925627 2.40822445 5.92427254 0 3 C0 2.01 0 1.02 0 0 Z " fill="#CA6CED" transform="translate(202,194)"/>
<path d="M0 0 C0.33 0.99 0.66 1.98 1 3 C-0.32 4.32 -1.64 5.64 -3 7 C-3.66 6.67 -4.32 6.34 -5 6 C-2.25 1.125 -2.25 1.125 0 0 Z " fill="#A24CEC" transform="translate(266,193)"/>
</svg>
