<?xml version="1.0" encoding="UTF-8"?>
<svg version="1.1" xmlns="http://www.w3.org/2000/svg" width="640" height="640">
<path d="M0 0 C2.52955333 -0.00217212 5.05865896 -0.02034727 7.58813477 -0.03930664 C22.64657751 -0.09258246 37.38377865 1.18284914 52.12133789 4.37280273 C53.12366455 4.58783447 54.12599121 4.80286621 55.15869141 5.02441406 C88.85107621 12.47336602 123.11443534 24.67095073 150.49633789 46.18530273 C151.48891602 46.93424805 152.48149414 47.68319336 153.50415039 48.45483398 C169.14583991 60.6229603 176.37470669 76.55774037 181.49633789 95.18530273 C181.78250977 96.18303711 182.06868164 97.18077148 182.36352539 98.20874023 C197.22625789 155.36130953 186.99597332 227.9027454 158.49633789 279.18530273 C151.74253769 290.45807381 144.25225059 301.36995575 135.49633789 311.18530273 C134.64813477 312.14178711 133.79993164 313.09827148 132.92602539 314.08374023 C123.16788127 324.96046233 113.03894481 335.19002975 101.49633789 344.18530273 C100.48958008 344.98581055 99.48282227 345.78631836 98.44555664 346.61108398 C74.1717543 365.77106553 32.1526787 396.16684834 0.14086914 393.88842773 C-33.96957219 387.3076352 -66.88893533 366.8962395 -93.50366211 345.18530273 C-94.05973145 344.73219727 -94.61580078 344.2790918 -95.1887207 343.81225586 C-108.20525986 333.11734795 -120.16588176 321.51460194 -130.50366211 308.18530273 C-131.28999023 307.21592773 -132.07631836 306.24655273 -132.88647461 305.24780273 C-139.94596003 296.39578339 -145.84987303 286.98562542 -151.50366211 277.18530273 C-151.91003906 276.4838916 -152.31641602 275.78248047 -152.73510742 275.05981445 C-167.46281785 249.33192725 -175.10291636 220.34169478 -179.50366211 191.18530273 C-179.61548828 190.46632813 -179.72731445 189.74735352 -179.8425293 189.0065918 C-185.73781408 149.71089231 -186.977445 97.62164716 -164.50366211 63.18530273 C-135.81186304 25.5874073 -77.5630167 8.28516503 -33.02709961 1.87670898 C-31.18688005 1.63895741 -29.34574019 1.40819767 -27.50366211 1.18530273 C-26.68486572 1.08290283 -25.86606934 0.98050293 -25.02246094 0.875 C-16.70096469 -0.02862309 -8.36043444 -0.00079966 0 0 Z " fill="#6F748B" transform="translate(317.503662109375,203.814697265625)"/>
<path d="M0 0 C3.66064214 3.00343529 6.86314843 5.66728805 7.80078125 10.47265625 C8.30155858 15.64735533 8.19260984 19.30618944 5.234375 23.8203125 C0.64301796 29.11225808 -5.58419363 31.7051238 -11.94921875 34.28515625 C-19.45167261 37.39101081 -25.78629323 41.53450749 -32.19921875 46.47265625 C-33.01664551 47.10059082 -33.01664551 47.10059082 -33.85058594 47.74121094 C-39.83932008 52.39990135 -45.21755299 56.93134822 -49.19921875 63.47265625 C-48.36003906 63.84003906 -48.36003906 63.84003906 -47.50390625 64.21484375 C-20.29822171 76.89916612 1.28423616 101.47327933 12.01025391 129.24267578 C16.15528412 140.93529654 18.97329291 152.97883839 18.86328125 165.41015625 C18.85876953 166.09400391 18.85425781 166.77785156 18.84960938 167.48242188 C18.83797685 169.14587229 18.82004819 170.80927675 18.80078125 172.47265625 C14.52038553 171.17494898 10.60684705 169.47856804 6.58740234 167.55395508 C-27.55350221 151.36139203 -67.43196937 142.36357598 -105.19921875 141.47265625 C-105.92351074 141.45219238 -106.64780273 141.43172852 -107.39404297 141.41064453 C-152.29768252 140.2732486 -207.07740527 148.38988785 -246.0234375 172.19921875 C-248.19921875 173.47265625 -248.19921875 173.47265625 -251.19921875 173.47265625 C-252.37574807 143.99406053 -243.44388579 115.4508116 -223.19921875 93.47265625 C-222.70325195 92.92899414 -222.20728516 92.38533203 -221.69628906 91.82519531 C-210.79782435 80.00369063 -198.48031286 70.86822284 -184.19921875 63.47265625 C-196.55774319 48.10800425 -211.74283948 39.16459429 -229.6171875 31.42578125 C-235.51514542 28.725778 -238.71826057 25.56920518 -241.57421875 19.59765625 C-242.57325364 14.60248178 -242.06908789 10.44130745 -240.01171875 5.78515625 C-237.30761771 2.3350963 -234.15472153 -0.54959236 -230.19921875 -2.52734375 C-213.92378546 -4.27831629 -198.28489373 5.12453884 -185.88671875 14.91015625 C-180.13634784 19.55160712 -174.58251133 24.41002911 -169.19921875 29.47265625 C-168.58820313 30.03082031 -167.9771875 30.58898437 -167.34765625 31.1640625 C-162.65581024 35.60953303 -158.91246742 40.69217572 -155.1171875 45.8984375 C-153.29589302 48.47235039 -153.29589302 48.47235039 -151.19921875 50.47265625 C-148.51094853 50.07795428 -148.51094853 50.07795428 -145.51171875 49.16015625 C-136.10176344 46.51771645 -127.03993863 46.23887064 -117.32421875 46.22265625 C-116.28808441 46.21865311 -116.28808441 46.21865311 -115.23101807 46.21456909 C-105.69576284 46.19698454 -96.63223486 46.73520446 -87.31640625 48.9140625 C-84.12936509 49.48517389 -82.23656135 49.562713 -79.19921875 48.47265625 C-77.63462298 46.99661894 -77.63462298 46.99661894 -76.44921875 45.03515625 C-73.40504733 40.65028758 -69.96047423 36.79058106 -66.34765625 32.8671875 C-64.171052 30.49992406 -64.171052 30.49992406 -62.2421875 27.94140625 C-58.51324657 23.43530555 -53.78922657 20.06142715 -49.19921875 16.47265625 C-48.35230469 15.79847656 -47.50539063 15.12429687 -46.6328125 14.4296875 C-35.19895207 5.68409349 -14.20743945 -9.86697838 0 0 Z " fill="#FE6B15" transform="translate(436.19921875,45.52734375)"/>
<path d="M0 0 C4.93097824 4.14650443 6.989371 7.76324247 7.67211914 14.18945312 C8.55724582 38.3181728 -11.87332718 64.90131328 -27.3125 81.6953125 C-39.0943852 94.1077518 -52.96392161 103.67888502 -68.25 111.3125 C-68.91 111.3125 -69.57 111.3125 -70.25 111.3125 C-70.46092285 110.76424561 -70.6718457 110.21599121 -70.88916016 109.65112305 C-77.56318192 92.21609479 -77.56318192 92.21609479 -87.125 76.25 C-89.25 73.3125 -89.25 73.3125 -89.25 71.3125 C-88.29480469 70.96058594 -87.33960938 70.60867188 -86.35546875 70.24609375 C-57.43630483 59.32065897 -39.41701196 38.72482893 -26.84375 11.23828125 C-23.79597661 4.70315176 -21.03937237 1.12480852 -14.375 -2.0625 C-8.94697046 -3.14810591 -4.91416952 -2.55158802 0 0 Z " fill="#E2733F" transform="translate(585.25,192.6875)"/>
<path d="M0 0 C5.0178411 4.98362854 7.27855163 11.25592729 9.97167969 17.65112305 C13.35302749 25.49035887 17.7756911 32.04849068 23.15625 38.64453125 C23.58276855 39.17272461 24.00928711 39.70091797 24.44873047 40.24511719 C36.01499013 54.3231314 50.97847576 63.69837863 68.15625 69.64453125 C67.48687599 73.621971 65.52731183 76.59251593 63.46875 80.01953125 C58.01725918 89.31681893 53.28332339 99.00916431 51.15625 109.64453125 C30.54243775 107.03318459 8.99796126 83.77987805 -3.09375 68.33203125 C-15.06774826 52.39350406 -29.51096225 29.31796317 -27.84375 8.64453125 C-26.0989713 3.70099161 -23.31581108 0.3560977 -18.84375 -2.35546875 C-12.08765208 -5.4912104 -5.94343438 -4.36943163 0 0 Z " fill="#F94D2F" transform="translate(74.84375,194.35546875)"/>
<path d="M0 0 C0.20044922 0.59312988 0.40089844 1.18625977 0.60742188 1.79736328 C5.61708724 16.47136607 11.3445382 29.13170281 20 42 C18.94941406 42.56847656 17.89882812 43.13695312 16.81640625 43.72265625 C9.05228808 47.97377456 1.7740974 52.25228099 -5 58 C-5.99 58.7425 -6.98 59.485 -8 60.25 C-18.67395894 69.33609728 -26.31520037 82.63391947 -32.625 95 C-35.70486164 100.88691502 -38.93614923 104.96807462 -45 108 C-49.95482094 108.54360446 -53.87125852 108.56437074 -58.375 106.3125 C-61.82402384 103.27407423 -65.56074254 99.92419963 -66.2734375 95.1796875 C-67.39282421 69.7782198 -47.35425415 43.66676514 -31.4375 25.75 C-29.96686606 24.15873815 -28.48790829 22.57512139 -27 21 C-26.30519531 20.25234375 -25.61039063 19.5046875 -24.89453125 18.734375 C-6.91346154 0 -6.91346154 0 0 0 Z " fill="#0956BC" transform="translate(139,447)"/>
<path d="M0 0 C6.32991258 3.78835677 11.67893932 8.25375121 17.01269531 13.30395508 C19.77550072 15.96635999 19.77550072 15.96635999 23 18 C23 18.66 23 19.32 23 20 C23.66 20 24.32 20 25 20 C26.41706502 21.54888502 27.75809496 23.16761534 29.0625 24.8125 C32.61546172 29.27732107 32.61546172 29.27732107 36.27734375 33.65234375 C49.38222975 48.96824742 65.51569935 74.12200168 64.38671875 95.10546875 C63.26951932 100.57861749 59.3603641 103.90184656 55 107 C51.2399119 108.88004405 47.09484799 108.50435078 43 108 C34.90054883 105.21492556 31.78822696 98.42907192 28.09472656 91.23730469 C27.10971545 89.32228308 26.11926863 87.41023142 25.125 85.5 C24.79306641 84.85925537 24.46113281 84.21851074 24.11914062 83.55834961 C21.43475597 78.50967127 18.23078947 74.17457945 14.46875 69.85546875 C13 68 13 68 13 66 C12.34 66 11.68 66 11 66 C10.236875 65.05125 9.47375 64.1025 8.6875 63.125 C1.37266131 54.32935251 -8.84786606 48.00485962 -19 43 C-17.50696356 38.90176733 -15.49528148 35.35843315 -13.25 31.625 C-7.40793041 21.6600566 -3.47290869 10.99754419 0 0 Z " fill="#007BCB" transform="translate(507,447)"/>
<path d="M0 0 C0 15.18 0 30.36 0 46 C-3.815625 46.70125 -7.63125 47.4025 -11.5625 48.125 C-30.73178407 51.87349504 -46.70219633 59.18494754 -61.875 71.4375 C-66.6064967 75.22497898 -70.7557888 78.06121776 -77 78 C-83.74807256 76.98778912 -86.60992185 73.88457708 -90.8125 68.8125 C-92.62531851 64.51898247 -92.62237331 60.58819392 -92 56 C-89.22288098 49.23831891 -83.97479175 44.25638374 -79 39 C-78.44441406 38.3915625 -77.88882813 37.783125 -77.31640625 37.15625 C-65.10045225 24.23963031 -18.45172923 -9.22586462 0 0 Z " fill="#6D5F92" transform="translate(122,342)"/>
<path d="M0 0 C27.51053457 3.05672606 51.94023245 16.6775228 73 34 C73.68578125 34.51949219 74.3715625 35.03898437 75.078125 35.57421875 C81.30134059 40.41611312 88.50321252 48.50963755 91 56 C91.53476918 61.97501722 91.51280722 66.9124861 88 72 C83.65005475 76.12100076 80.22081424 78.03640679 74.1875 77.9375 C68.09731513 76.92058601 63.80543621 73.34368782 58.9453125 69.7265625 C40.51758497 56.08133895 22.87937063 50.03753599 0 46 C0 30.82 0 15.64 0 0 Z " fill="#1A9BC9" transform="translate(519,342)"/>
<path d="M0 0 C0.33 0 0.66 0 1 0 C2.22514693 26.59320348 2.83828264 51.88334066 -3 78 C-3.2367041 79.0720166 -3.4734082 80.1440332 -3.71728516 81.24853516 C-5.23265018 87.91050173 -6.9980258 94.46840563 -9 101 C-9.26006836 101.84916992 -9.52013672 102.69833984 -9.78808594 103.57324219 C-17.93667226 129.55496481 -30.81823895 153.61831056 -49 174 C-49.84820312 174.95648437 -50.69640625 175.91296875 -51.5703125 176.8984375 C-61.32845662 187.77515959 -71.45739308 198.00472702 -83 207 C-84.00675781 207.80050781 -85.01351563 208.60101562 -86.05078125 209.42578125 C-110.32458359 228.5857628 -152.3436592 258.98154561 -184.35546875 256.703125 C-218.46591008 250.12233246 -251.38527322 229.71093676 -278 208 C-278.55606934 207.54689453 -279.11213867 207.09378906 -279.68505859 206.62695312 C-292.70159775 195.93204521 -304.66221965 184.32929921 -315 171 C-315.78632813 170.030625 -316.57265625 169.06125 -317.3828125 168.0625 C-324.44229793 159.21048066 -330.34621092 149.80032268 -336 140 C-336.40637695 139.29858887 -336.81275391 138.59717773 -337.23144531 137.87451172 C-353.71932586 109.07177736 -365.38365808 71.90044045 -365.0625 38.5 C-365.05347656 37.2728125 -365.04445313 36.045625 -365.03515625 34.78125 C-365.02355469 33.8634375 -365.01195312 32.945625 -365 32 C-364.67 32 -364.34 32 -364 32 C-363.91959473 32.6705542 -363.83918945 33.3411084 -363.75634766 34.03198242 C-363.38627056 37.08472251 -363.00574201 40.13607249 -362.625 43.1875 C-362.49867188 44.24259766 -362.37234375 45.29769531 -362.2421875 46.38476562 C-362.11328125 47.40634766 -361.984375 48.42792969 -361.8515625 49.48046875 C-361.73635254 50.41785889 -361.62114258 51.35524902 -361.50244141 52.32104492 C-360.9841034 55.08475867 -360.08766362 57.41505455 -359 60 C-358.62109375 62.421875 -358.62109375 62.421875 -358.4375 64.75 C-358.39963531 67.6724823 -358.39963531 67.6724823 -357 70 C-357.020625 70.804375 -357.04125 71.60875 -357.0625 72.4375 C-357.29058908 75.16918103 -357.29058908 75.16918103 -355 77 C-355.020625 77.886875 -355.04125 78.77375 -355.0625 79.6875 C-354.98597588 83.74327854 -353.67604499 86.32559367 -352 90 C-351.32073865 92.32969803 -350.65575308 94.66357607 -350 97 C-349.19642581 99.57255806 -348.35148786 102.13045616 -347.5 104.6875 C-347.18095703 105.66299805 -347.18095703 105.66299805 -346.85546875 106.65820312 C-345.77435829 109.91148336 -344.58520334 112.96336576 -343 116 C-342.566875 117.216875 -342.13375 118.43375 -341.6875 119.6875 C-340.22876323 123.66925598 -338.30085417 127.25459527 -336.18359375 130.921875 C-335.04651627 132.91832788 -334.01268363 134.93817614 -333 137 C-332.65839844 137.67160156 -332.31679688 138.34320313 -331.96484375 139.03515625 C-331.62582031 139.70417969 -331.28679687 140.37320313 -330.9375 141.0625 C-330.59589844 141.73410156 -330.25429688 142.40570313 -329.90234375 143.09765625 C-329 145 -329 145 -328 148 C-327.34 148.33 -326.68 148.66 -326 149 C-325.13560123 150.09551663 -324.32201559 151.23158829 -323.5390625 152.38671875 C-323.06726563 153.07830078 -322.59546875 153.76988281 -322.109375 154.48242188 C-321.61953125 155.21009766 -321.1296875 155.93777344 -320.625 156.6875 C-320.14289063 157.39583984 -319.66078125 158.10417969 -319.1640625 158.83398438 C-317.01928619 161.98995277 -314.89666246 165.15784349 -312.80859375 168.3515625 C-310.36793554 171.92557172 -307.39901717 174.74570875 -304.1875 177.625 C-303 179 -303 179 -303 182 C-302.01 182 -301.02 182 -300 182 C-298.421875 183.5390625 -298.421875 183.5390625 -296.75 185.625 C-293.85401982 189.10758597 -290.83986513 191.97654568 -287.28515625 194.7734375 C-286.86105469 195.17820312 -286.43695313 195.58296875 -286 196 C-286 196.66 -286 197.32 -286 198 C-285.46503906 198.22816406 -284.93007813 198.45632813 -284.37890625 198.69140625 C-281.25408148 200.41031643 -278.64198054 202.63786195 -275.9375 204.9375 C-275.40833984 205.38029297 -274.87917969 205.82308594 -274.33398438 206.27929688 C-272.28615929 208.00337546 -270.27436974 209.71340586 -268.421875 211.6484375 C-266.5690835 213.40960745 -264.56124786 214.4816497 -262.3125 215.6875 C-261.50425781 216.12449219 -260.69601562 216.56148437 -259.86328125 217.01171875 C-259.24839844 217.33785156 -258.63351562 217.66398438 -258 218 C-258 218.66 -258 219.32 -258 220 C-256.9790625 220.3403125 -256.9790625 220.3403125 -255.9375 220.6875 C-253.01684778 221.99247227 -250.73382661 223.65717908 -248.1796875 225.55859375 C-243.72062791 228.5073267 -238.81590382 230.69880458 -234 233 C-234 233.66 -234 234.32 -234 235 C-233.360625 235.0825 -232.72125 235.165 -232.0625 235.25 C-228.52808921 236.11556999 -225.45874144 237.49734325 -222.16015625 239.01171875 C-219.80353332 240.0898844 -217.41658785 241.06454664 -215 242 C-215 242.66 -215 243.32 -215 244 C-214.33871094 244.11601563 -213.67742187 244.23203125 -212.99609375 244.3515625 C-209.28465277 245.15482091 -205.68414167 246.2451285 -202.0625 247.375 C-201.37220703 247.58382812 -200.68191406 247.79265625 -199.97070312 248.0078125 C-196.72439836 249.01709019 -193.87968711 250.06336977 -190.85546875 251.65625 C-187.68616544 253.14768685 -185.71822253 253.28787233 -182.25 253.125 C-177.16666667 252.91666667 -177.16666667 252.91666667 -175 254 C-175 253.34 -175 252.68 -175 252 C-174.48695313 251.8865625 -173.97390625 251.773125 -173.4453125 251.65625 C-170.18639553 250.78165247 -167.05038332 249.64022115 -163.875 248.5 C-162.63492188 248.0565625 -161.39484375 247.613125 -160.1171875 247.15625 C-157.14620529 246.11820256 -157.14620529 246.11820256 -155 245 C-154.34 245.33 -153.68 245.66 -153 246 C-153 245.34 -153 244.68 -153 244 C-150.91870896 243.01649975 -148.83488641 242.03835542 -146.75 241.0625 C-145.58984375 240.51722656 -144.4296875 239.97195313 -143.234375 239.41015625 C-140.75269154 238.32816624 -138.63077233 237.51675885 -136 237 C-135.0925 236.814375 -134.185 236.62875 -133.25 236.4375 C-132.13625 236.2209375 -132.13625 236.2209375 -131 236 C-130.67 235.01 -130.34 234.02 -130 233 C-127.75987385 231.70987499 -125.58659675 230.58315922 -123.25 229.5 C-115.09684222 225.68461048 -115.09684222 225.68461048 -107.9375 220.3125 C-105 218 -105 218 -101 218 C-100.67 217.01 -100.34 216.02 -100 215 C-99.01 215 -98.02 215 -97 215 C-97 214.34 -97 213.68 -97 213 C-95.20963542 212.0234375 -93.41927083 211.046875 -91.62890625 210.0703125 C-89.83381685 209.08589976 -89.83381685 209.08589976 -89 207 C-88.01 207 -87.02 207 -86 207 C-86 206.34 -86 205.68 -86 205 C-85.34 205 -84.68 205 -84 205 C-83.67 204.01 -83.34 203.02 -83 202 C-81.44670393 200.64758557 -79.83311531 199.36342792 -78.1875 198.125 C-74.52781694 195.3680748 -71.80135413 192.61966014 -69 189 C-67.33333333 187.66666667 -65.66666667 186.33333333 -64 185 C-63.38125 184.21625 -62.7625 183.4325 -62.125 182.625 C-59.80290467 179.7565293 -57.26698333 177.62224093 -54.390625 175.33203125 C-53.93171875 174.89246094 -53.4728125 174.45289063 -53 174 C-53 173.34 -53 172.68 -53 172 C-48.69767442 167.23255814 -48.69767442 167.23255814 -45 166 C-44.31653318 164.34015202 -43.65411685 162.67163195 -43 161 C-41.73193585 159.13401953 -40.39654961 157.34058923 -39.0234375 155.55078125 C-37.81639569 154.03146529 -37.81639569 154.03146529 -38 152 C-37.58492188 151.58878906 -37.16984375 151.17757812 -36.7421875 150.75390625 C-27.51626327 141.46592424 -22.18674267 127.18229967 -18.14208984 114.97558594 C-17.11250371 111.91152632 -16.16336559 109.26122116 -14.44140625 106.5078125 C-12.47323529 103.08351506 -11.82421456 99.51693608 -11.0625 95.6875 C-10.72459155 94.07511404 -10.38470653 92.4631412 -10.04296875 90.8515625 C-9.78652588 89.63581543 -9.78652588 89.63581543 -9.52490234 88.39550781 C-8.72868333 84.76178641 -7.80479171 81.1639165 -6.875 77.5625 C-5.49898397 72.18388841 -4.31724986 66.80797817 -3.39453125 61.33203125 C-3.13392872 59.79163809 -2.83899635 58.25661721 -2.50830078 56.72973633 C-0.23037046 44.4965284 -0.70941885 31.53115893 -0.4375 19.125 C-0.39418657 17.2617116 -0.35056882 15.39843025 -0.30664062 13.53515625 C-0.20092575 9.02351091 -0.0993041 4.51179081 0 0 Z " fill="#0C45A3" transform="translate(502,341)"/>
<path d="M0 0 C2.52955333 -0.00217212 5.05865896 -0.02034727 7.58813477 -0.03930664 C22.64657751 -0.09258246 37.38377865 1.18284914 52.12133789 4.37280273 C53.12366455 4.58783447 54.12599121 4.80286621 55.15869141 5.02441406 C88.85107621 12.47336602 123.11443534 24.67095073 150.49633789 46.18530273 C151.48891602 46.93424805 152.48149414 47.68319336 153.50415039 48.45483398 C171.38157167 62.36220122 178.59684657 81.78573079 183.49633789 103.18530273 C183.70626225 105.90592242 183.59405371 108.44925974 183.49633789 111.18530273 C181.63857024 108.05031982 181.29493313 105.81058841 181.49633789 102.18530273 C180.83633789 102.18530273 180.17633789 102.18530273 179.49633789 102.18530273 C179.30102539 100.19962565 179.10571289 98.21394857 178.91040039 96.22827148 C178.56968398 93.88542131 178.56968398 93.88542131 176.49633789 91.18530273 C176.35196289 90.07155273 176.20758789 88.95780273 176.05883789 87.81030273 C175.48444648 84.10866923 174.39649306 82.32468953 172.49633789 79.18530273 C172.30883789 76.37280273 172.30883789 76.37280273 172.49633789 74.18530273 C171.83633789 74.18530273 171.17633789 74.18530273 170.49633789 74.18530273 C170.14571289 73.38092773 169.79508789 72.57655273 169.43383789 71.74780273 C166.11865996 65.13315862 161.36588438 59.63192887 155.49633789 55.18530273 C155.49633789 54.52530273 155.49633789 53.86530273 155.49633789 53.18530273 C154.83633789 52.99967773 154.17633789 52.81405273 153.49633789 52.62280273 C149.92777431 50.91286602 147.52583791 48.63695747 144.61352539 45.99389648 C141.47533965 43.31312158 138.05315908 41.25820283 134.49633789 39.18530273 C133.58883789 38.62842773 132.68133789 38.07155273 131.74633789 37.49780273 C129.69762046 36.30271757 127.63271634 35.21392939 125.49633789 34.18530273 C125.49633789 33.52530273 125.49633789 32.86530273 125.49633789 32.18530273 C123.85665039 31.72124023 123.85665039 31.72124023 122.18383789 31.24780273 C119.94225795 30.60192377 117.70940279 29.92299103 115.49633789 29.18530273 C115.49633789 28.52530273 115.49633789 27.86530273 115.49633789 27.18530273 C114.79508789 27.24717773 114.09383789 27.30905273 113.37133789 27.37280273 C109.78213393 27.13872422 107.63573159 25.91517273 104.49633789 24.18530273 C97.12421432 20.33169269 89.54129808 17.31038656 81.49633789 15.18530273 C77.63190402 14.11184888 73.83858946 12.95835818 70.05883789 11.62280273 C67.09841202 10.61413975 64.35598985 9.95075096 61.24633789 9.62280273 C57.85375843 9.2270018 55.59615452 8.49048868 52.49633789 7.18530273 C48.12246369 6.26984069 43.71913149 5.92238659 39.27636719 5.51635742 C36.78859327 5.22010543 34.48247457 4.73060557 32.04711914 4.16186523 C23.57152681 2.59241664 14.94882508 2.92507401 6.36206055 2.97949219 C3.37157679 2.99780127 0.38140328 3.00000094 -2.60913086 2.99975586 C-4.53491475 3.00467087 -6.46069657 3.01049912 -8.38647461 3.01733398 C-9.26796173 3.01844681 -10.14944885 3.01955963 -11.05764771 3.02070618 C-17.43616822 3.06888025 -23.73777482 3.43212528 -30.00366211 4.68530273 C-32.27015222 5.13860076 -34.45587319 5.39698555 -36.75366211 5.62280273 C-40.70507691 6.03770129 -44.4992785 6.76944884 -48.36303711 7.68530273 C-49.87454265 8.03835512 -51.3939937 8.35818266 -52.91772461 8.65405273 C-55.69148562 9.22388883 -58.39885985 9.93329109 -61.12866211 10.68530273 C-62.06967773 10.94311523 -63.01069336 11.20092773 -63.98022461 11.46655273 C-65.83469177 11.9947601 -67.6743873 12.57554446 -69.50366211 13.18530273 C-70.24616211 13.30905273 -70.98866211 13.43280273 -71.75366211 13.56030273 C-74.50369456 14.18531011 -76.84871731 15.20795925 -79.40991211 16.36499023 C-81.9416129 17.35688793 -84.49469021 18.01264862 -87.12866211 18.68530273 C-91.07555989 19.70577289 -94.05204806 20.98882107 -97.50366211 23.18530273 C-98.82366211 23.18530273 -100.14366211 23.18530273 -101.50366211 23.18530273 C-101.50366211 23.84530273 -101.50366211 24.50530273 -101.50366211 25.18530273 C-102.20491211 25.28842773 -102.90616211 25.39155273 -103.62866211 25.49780273 C-106.92575678 26.28623842 -109.51171597 27.59773948 -112.50366211 29.18530273 C-113.43178711 29.63905273 -114.35991211 30.09280273 -115.31616211 30.56030273 C-119.44014169 32.6627237 -123.47457461 34.90734719 -127.50366211 37.18530273 C-128.49366211 37.74217773 -129.48366211 38.29905273 -130.50366211 38.87280273 C-132.63693416 40.03316569 -132.63693416 40.03316569 -133.50366211 42.18530273 C-135.08065089 43.02981039 -136.69082035 43.81307387 -138.31616211 44.56030273 C-142.06486275 46.36245982 -144.71435443 48.0473316 -147.50366211 51.18530273 C-148.16366211 51.18530273 -148.82366211 51.18530273 -149.50366211 51.18530273 C-149.83366211 52.17530273 -150.16366211 53.16530273 -150.50366211 54.18530273 C-151.32866211 54.84530273 -152.15366211 55.50530273 -153.00366211 56.18530273 C-165.15629209 65.93089006 -169.83025208 78.28657433 -172.99975586 92.98608398 C-173.45325592 94.96531294 -174.00396913 96.92166239 -174.56616211 98.87280273 C-176.45431569 105.54427871 -176.7796015 112.14502803 -177.12475586 119.04077148 C-177.50366211 122.18530273 -177.50366211 122.18530273 -179.50366211 125.18530273 C-178.84366211 125.51530273 -178.18366211 125.84530273 -177.50366211 126.18530273 C-177.64078613 126.88623047 -177.77791016 127.5871582 -177.91918945 128.30932617 C-179.39154037 136.36837138 -179.91548728 144.25471871 -180.12866211 152.43530273 C-180.18666992 154.28575195 -180.18666992 154.28575195 -180.24584961 156.17358398 C-180.33898971 159.17735211 -180.42480742 162.18113152 -180.50366211 165.18530273 C-180.83366211 165.18530273 -181.16366211 165.18530273 -181.50366211 165.18530273 C-184.9034536 131.03047437 -183.14485898 88.49105424 -161.81616211 59.87280273 C-130.35512081 23.49217775 -73.4395325 6.74362996 -27.50366211 1.18530273 C-26.68486572 1.08290283 -25.86606934 0.98050293 -25.02246094 0.875 C-16.70096469 -0.02862309 -8.36043444 -0.00079966 0 0 Z " fill="#FE7403" transform="translate(317.503662109375,203.814697265625)"/>
<path d="M0 0 C0.33 0 0.66 0 1 0 C2.22514693 26.59320348 2.83828264 51.88334066 -3 78 C-3.2367041 79.0720166 -3.4734082 80.1440332 -3.71728516 81.24853516 C-5.23265018 87.91050173 -6.9980258 94.46840563 -9 101 C-9.26006836 101.84916992 -9.52013672 102.69833984 -9.78808594 103.57324219 C-17.93667226 129.55496481 -30.81823895 153.61831056 -49 174 C-49.84820312 174.95648437 -50.69640625 175.91296875 -51.5703125 176.8984375 C-61.32845662 187.77515959 -71.45739308 198.00472702 -83 207 C-84.00675781 207.80050781 -85.01351562 208.60101562 -86.05078125 209.42578125 C-106.12875471 225.27387937 -145.59342032 256.07053252 -172 253 C-170.42183864 249.84367728 -167.23690361 249.49773193 -164.0625 248.4375 C-159.44966997 246.9204475 -159.44966997 246.9204475 -155 245 C-154.34 245.33 -153.68 245.66 -153 246 C-153 245.34 -153 244.68 -153 244 C-150.91870896 243.01649975 -148.83488641 242.03835542 -146.75 241.0625 C-145.58984375 240.51722656 -144.4296875 239.97195313 -143.234375 239.41015625 C-140.75269154 238.32816624 -138.63077233 237.51675885 -136 237 C-135.0925 236.814375 -134.185 236.62875 -133.25 236.4375 C-132.13625 236.2209375 -132.13625 236.2209375 -131 236 C-130.67 235.01 -130.34 234.02 -130 233 C-127.75987385 231.70987499 -125.58659675 230.58315922 -123.25 229.5 C-115.09684222 225.68461048 -115.09684222 225.68461048 -107.9375 220.3125 C-105 218 -105 218 -101 218 C-100.67 217.01 -100.34 216.02 -100 215 C-99.01 215 -98.02 215 -97 215 C-97 214.34 -97 213.68 -97 213 C-95.20963542 212.0234375 -93.41927083 211.046875 -91.62890625 210.0703125 C-89.83381685 209.08589976 -89.83381685 209.08589976 -89 207 C-88.01 207 -87.02 207 -86 207 C-86 206.34 -86 205.68 -86 205 C-85.34 205 -84.68 205 -84 205 C-83.67 204.01 -83.34 203.02 -83 202 C-81.44670393 200.64758557 -79.83311531 199.36342792 -78.1875 198.125 C-74.52781694 195.3680748 -71.80135413 192.61966014 -69 189 C-67.33333333 187.66666667 -65.66666667 186.33333333 -64 185 C-63.38125 184.21625 -62.7625 183.4325 -62.125 182.625 C-59.80290467 179.7565293 -57.26698333 177.62224093 -54.390625 175.33203125 C-53.70226562 174.67267578 -53.70226562 174.67267578 -53 174 C-53 173.34 -53 172.68 -53 172 C-48.69767442 167.23255814 -48.69767442 167.23255814 -45 166 C-44.31653318 164.34015202 -43.65411685 162.67163195 -43 161 C-41.73193585 159.13401953 -40.39654961 157.34058923 -39.0234375 155.55078125 C-37.81639569 154.03146529 -37.81639569 154.03146529 -38 152 C-37.58492187 151.58878906 -37.16984375 151.17757812 -36.7421875 150.75390625 C-27.51626327 141.46592424 -22.18674267 127.18229967 -18.14208984 114.97558594 C-17.11250371 111.91152632 -16.16336559 109.26122116 -14.44140625 106.5078125 C-12.47323529 103.08351506 -11.82421456 99.51693608 -11.0625 95.6875 C-10.72459155 94.07511404 -10.38470653 92.4631412 -10.04296875 90.8515625 C-9.78652588 89.63581543 -9.78652588 89.63581543 -9.52490234 88.39550781 C-8.72868333 84.76178641 -7.80479171 81.1639165 -6.875 77.5625 C-5.49898397 72.18388841 -4.31724986 66.80797817 -3.39453125 61.33203125 C-3.13392872 59.79163809 -2.83899635 58.25661721 -2.50830078 56.72973633 C-0.23037046 44.4965284 -0.70941885 31.53115893 -0.4375 19.125 C-0.39418657 17.2617116 -0.35056882 15.39843025 -0.30664062 13.53515625 C-0.20092575 9.02351091 -0.0993041 4.51179081 0 0 Z " fill="#0756AB" transform="translate(502,341)"/>
<path d="M0 0 C3.66064214 3.00343529 6.86314843 5.66728805 7.80078125 10.47265625 C8.30155858 15.64735533 8.19260984 19.30618944 5.234375 23.8203125 C0.64301796 29.11225808 -5.58419363 31.7051238 -11.94921875 34.28515625 C-19.45167261 37.39101081 -25.78629323 41.53450749 -32.19921875 46.47265625 C-33.01664551 47.10059082 -33.01664551 47.10059082 -33.85058594 47.74121094 C-39.83932008 52.39990135 -45.21755299 56.93134822 -49.19921875 63.47265625 C-48.63976562 63.71757813 -48.0803125 63.9625 -47.50390625 64.21484375 C-28.46778998 73.09020342 -4.96308281 91.80353148 3.80078125 111.47265625 C3.4453125 113.72265625 3.4453125 113.72265625 2.80078125 115.47265625 C2.27871094 114.60125 1.75664062 113.72984375 1.21875 112.83203125 C-5.51856554 101.83711736 -13.18417927 92.67571804 -23.19921875 84.47265625 C-23.81796875 83.83328125 -24.43671875 83.19390625 -25.07421875 82.53515625 C-32.71420693 75.11987361 -42.61535463 69.03197025 -52.19921875 64.47265625 C-50.71053168 59.87125984 -48.4529202 56.97038531 -45.19921875 53.47265625 C-44.53921875 53.47265625 -43.87921875 53.47265625 -43.19921875 53.47265625 C-43.19921875 52.81265625 -43.19921875 52.15265625 -43.19921875 51.47265625 C-42.53921875 51.47265625 -41.87921875 51.47265625 -41.19921875 51.47265625 C-41.19921875 50.81265625 -41.19921875 50.15265625 -41.19921875 49.47265625 C-40.62171875 49.24578125 -40.04421875 49.01890625 -39.44921875 48.78515625 C-36.64190988 47.14755941 -35.20813911 45.00000767 -33.19921875 42.47265625 C-32.20921875 42.14265625 -31.21921875 41.81265625 -30.19921875 41.47265625 C-29.53921875 40.81265625 -28.87921875 40.15265625 -28.19921875 39.47265625 C-25.86026339 38.13693638 -23.51917367 36.85084839 -21.13671875 35.59765625 C-20.4622168 35.24123047 -19.78771484 34.88480469 -19.09277344 34.51757812 C-5.65332924 27.47265625 -5.65332924 27.47265625 -1.19921875 27.47265625 C-1.19921875 26.81265625 -1.19921875 26.15265625 -1.19921875 25.47265625 C-0.53921875 25.47265625 0.12078125 25.47265625 0.80078125 25.47265625 C0.80078125 24.48265625 0.80078125 23.49265625 0.80078125 22.47265625 C1.46078125 22.47265625 2.12078125 22.47265625 2.80078125 22.47265625 C5.3717648 17.78439213 5.06507689 13.52067725 3.80078125 8.47265625 C1.42921607 4.4918147 -0.74385794 2.72929648 -5.19921875 1.47265625 C-6.18921875 1.47265625 -7.17921875 1.47265625 -8.19921875 1.47265625 C-8.19921875 0.81265625 -8.19921875 0.15265625 -8.19921875 -0.52734375 C-9.78389603 -0.24306958 -11.36692445 0.05040443 -12.94921875 0.34765625 C-13.8309375 0.51007812 -14.71265625 0.6725 -15.62109375 0.83984375 C-18.07404856 1.44193266 -19.96984696 2.31919867 -22.19921875 3.47265625 C-22.85921875 3.47265625 -23.51921875 3.47265625 -24.19921875 3.47265625 C-24.52921875 4.13265625 -24.85921875 4.79265625 -25.19921875 5.47265625 C-26.85279879 6.17115127 -28.52202777 6.83292769 -30.19921875 7.47265625 C-37.04926375 11.13584257 -43.22014322 15.53389606 -49.19921875 20.47265625 C-49.82054687 20.98183594 -50.441875 21.49101563 -51.08203125 22.015625 C-55.56734566 25.8159437 -59.7659277 29.90896304 -63.94921875 34.03515625 C-64.78211426 34.84847412 -64.78211426 34.84847412 -65.63183594 35.67822266 C-69.92946224 39.96674933 -73.05985206 44.58558016 -76.19921875 49.78515625 C-78.19921875 52.47265625 -78.19921875 52.47265625 -80.05859375 53.23046875 C-82.63346957 53.52178682 -84.0702796 53.0263809 -86.44921875 52.03515625 C-87.50882812 51.60396484 -87.50882812 51.60396484 -88.58984375 51.1640625 C-89.1209375 50.93589844 -89.65203125 50.70773438 -90.19921875 50.47265625 C-90.19921875 49.81265625 -90.19921875 49.15265625 -90.19921875 48.47265625 C-89.55855469 48.64925781 -88.91789062 48.82585937 -88.2578125 49.0078125 C-85.38651832 49.58549464 -83.11234251 49.84108073 -80.19921875 49.47265625 C-77.94516406 47.59735665 -76.59883307 45.60260952 -74.98828125 43.15625 C-73.04919961 40.24762755 -70.88173595 37.78953155 -68.51171875 35.22265625 C-66.32648082 32.84722888 -64.22033514 30.49998086 -62.24609375 27.9453125 C-58.51502528 23.43812482 -53.79099769 20.06281192 -49.19921875 16.47265625 C-48.35230469 15.79847656 -47.50539063 15.12429687 -46.6328125 14.4296875 C-35.19895207 5.68409349 -14.20743945 -9.86697838 0 0 Z " fill="#FD7702" transform="translate(436.19921875,45.52734375)"/>
<path d="M0 0 C0.66 0.33 1.32 0.66 2 1 C1.38253906 1.58265625 0.76507813 2.1653125 0.12890625 2.765625 C-7.53558408 10.18513162 -15.01867392 17.95781591 -19 28 C-19.66 28.33 -20.32 28.66 -21 29 C-21.3449145 30.33038449 -21.67516582 31.66457061 -22 33 C-22.96887581 35.01526169 -23.9641321 37.01833966 -25 39 C-25.66 39 -26.32 39 -27 39 C-26.67 39.99 -26.34 40.98 -26 42 C-26.43054688 42.556875 -26.86109375 43.11375 -27.3046875 43.6875 C-29.62334961 46.85028334 -30.27402173 50.24207995 -31.125 54 C-31.37830078 55.06734375 -31.37830078 55.06734375 -31.63671875 56.15625 C-32.09788337 58.10258258 -32.54934183 60.05120793 -33 62 C-33.22429687 62.763125 -33.44859375 63.52625 -33.6796875 64.3125 C-34.18881335 66.24621941 -34.18881335 66.24621941 -33 69 C-33.309375 69.5775 -33.61875 70.155 -33.9375 70.75 C-35.24463903 73.10335018 -35.24463903 73.10335018 -35 76.4375 C-35 79.91708548 -35.50211131 81.91060458 -37 85 C-32.71093278 84.49540386 -28.88701855 83.94350927 -25 82 C-24.505 81.01 -24.505 81.01 -24 80 C-21.89963255 79.25937456 -19.76820672 78.605586 -17.625 78 C-13.91162815 76.94609402 -11.22324407 76.14882938 -8 74 C-4.2558612 72.23805233 -0.51739293 71.41689359 3.5234375 70.66015625 C6.13122728 70.04079029 6.13122728 70.04079029 8.92578125 68.6484375 C18.3518828 64.49676456 29.11783599 62.99127395 39.16552734 60.828125 C41.48117942 60.32801728 43.79475945 59.81796921 46.10400391 59.2890625 C67.01846339 54.59878053 88.55120374 55.56658103 109.85546875 55.76171875 C111.38368004 55.77309372 111.38368004 55.77309372 112.94276428 55.78469849 C118.05877246 55.8522243 122.95651547 56.12728348 128 57 C128 57.33 128 57.66 128 58 C126.37880249 57.98428955 126.37880249 57.98428955 124.72485352 57.96826172 C72.65943032 57.50941059 13.02959119 60.6942195 -32.82421875 88.7265625 C-35 90 -35 90 -38 90 C-39.17613119 60.53137963 -30.25394073 31.96980614 -10 10 C-6.74196697 6.58964637 -3.39824421 3.27054401 0 0 Z " fill="#FC3D14" transform="translate(223,129)"/>
<path d="M0 0 C0.20044922 0.59312988 0.40089844 1.18625977 0.60742188 1.79736328 C5.61708724 16.47136607 11.3445382 29.13170281 20 42 C18.94941406 42.56847656 17.89882812 43.13695312 16.81640625 43.72265625 C9.05228808 47.97377456 1.7740974 52.25228099 -5 58 C-5.99 58.7425 -6.98 59.485 -8 60.25 C-18.67395894 69.33609728 -26.31520037 82.63391947 -32.625 95 C-35.70486164 100.88691502 -38.93614923 104.96807462 -45 108 C-49.95482094 108.54360446 -53.87125852 108.56437074 -58.375 106.3125 C-61.82402384 103.27407423 -65.56074254 99.92419963 -66.2734375 95.1796875 C-67.39282421 69.7782198 -47.35425415 43.66676514 -31.4375 25.75 C-29.96686606 24.15873815 -28.48790829 22.57512139 -27 21 C-26.30519531 20.25234375 -25.61039063 19.5046875 -24.89453125 18.734375 C-6.91346154 0 -6.91346154 0 0 0 Z M-9.0625 7.5 C-9.64596191 7.95487793 -10.22942383 8.40975586 -10.83056641 8.87841797 C-18.6241627 15.00394881 -25.64745168 21.37958341 -32 29 C-32.79535156 29.91910156 -33.59070313 30.83820313 -34.41015625 31.78515625 C-39.89385521 38.1952116 -44.68935653 44.736861 -49 52 C-49.64710937 53.03382813 -50.29421875 54.06765625 -50.9609375 55.1328125 C-58.1386975 66.98574186 -66.93672834 82.73589093 -64 97 C-61.8901567 101.45411364 -59.61810742 104.19291449 -55 106 C-50.09276785 106.66580537 -46.22881347 106.55644383 -41.6875 104.5 C-37.32736221 100.44405787 -34.83794384 95.5474008 -32.0390625 90.37890625 C-20.40318103 69.03558387 -5.61307575 52.15801823 17 42 C16.64808594 41.36835938 16.29617187 40.73671875 15.93359375 40.0859375 C9.25146811 27.97785605 3.32924641 16.12739235 -1 3 C-4.32385436 3 -6.53944561 5.51949177 -9.0625 7.5 Z " fill="#123991" transform="translate(139,447)"/>
<path d="M0 0 C5.0178411 4.98362854 7.27855163 11.25592729 9.97167969 17.65112305 C13.35302749 25.49035887 17.7756911 32.04849068 23.15625 38.64453125 C23.58276855 39.17272461 24.00928711 39.70091797 24.44873047 40.24511719 C31.33121625 48.62221881 39.16145182 54.70323035 48.15625 60.64453125 C49.64125 61.63453125 49.64125 61.63453125 51.15625 62.64453125 C50.82625 63.30453125 50.49625 63.96453125 50.15625 64.64453125 C29.35605961 52.64757104 13.53052894 34.34721233 4.58911133 12.11254883 C2.62857754 7.31966299 0.53594133 3.1143406 -3.96875 0.33203125 C-9.82258059 -1.06779781 -14.93196413 -1.34550072 -20.34375 1.45703125 C-23.00144382 3.78251335 -24.68217129 5.39955494 -25.14672852 8.97900391 C-25.1808888 15.85950559 -24.09196957 21.55727745 -21.78125 28.01953125 C-21.30425659 29.39069092 -21.30425659 29.39069092 -20.81762695 30.78955078 C-18.16077989 38.20355035 -15.0230404 44.94759604 -10.84375 51.64453125 C-10.4631543 52.25522461 -10.08255859 52.86591797 -9.69042969 53.49511719 C-5.06399594 60.84817034 -0.29249511 67.73031943 5.7578125 74.0078125 C7.15625 75.64453125 7.15625 75.64453125 7.15625 77.64453125 C8.14625 77.97453125 9.13625 78.30453125 10.15625 78.64453125 C11.8643221 80.26873729 13.52652488 81.94172428 15.15625 83.64453125 C22.91040571 91.37270989 37.42678616 105.64453125 49.15625 105.64453125 C49.445 104.69578125 49.73375 103.74703125 50.03125 102.76953125 C51.15625 99.64453125 51.15625 99.64453125 53.15625 97.64453125 C52.60312265 101.67445907 52.0004438 105.66476049 51.15625 109.64453125 C30.54243775 107.03318459 8.99796126 83.77987805 -3.09375 68.33203125 C-15.06774826 52.39350406 -29.51096225 29.31796317 -27.84375 8.64453125 C-26.0989713 3.70099161 -23.31581108 0.3560977 -18.84375 -2.35546875 C-12.08765208 -5.4912104 -5.94343438 -4.36943163 0 0 Z " fill="#F83615" transform="translate(74.84375,194.35546875)"/>
<path d="M0 0 C6.32991258 3.78835677 11.67893932 8.25375121 17.01269531 13.30395508 C19.77550072 15.96635999 19.77550072 15.96635999 23 18 C23 18.66 23 19.32 23 20 C23.66 20 24.32 20 25 20 C26.41706502 21.54888502 27.75809496 23.16761534 29.0625 24.8125 C32.61546172 29.27732107 32.61546172 29.27732107 36.27734375 33.65234375 C49.38222975 48.96824742 65.51569935 74.12200168 64.38671875 95.10546875 C63.26951932 100.57861749 59.3603641 103.90184656 55 107 C51.2399119 108.88004405 47.09484799 108.50435078 43 108 C34.90054883 105.21492556 31.78822696 98.42907192 28.09472656 91.23730469 C27.10971545 89.32228308 26.11926863 87.41023142 25.125 85.5 C24.79306641 84.85925537 24.46113281 84.21851074 24.11914062 83.55834961 C21.43475597 78.50967127 18.23078947 74.17457945 14.46875 69.85546875 C13 68 13 68 13 66 C12.34 66 11.68 66 11 66 C9.63899818 64.36679781 8.27975802 62.73209371 6.9296875 61.08984375 C3.37698579 57.24228218 -0.84225536 54.16350136 -5 51 C-4.67 50.34 -4.34 49.68 -4 49 C12.63138607 61.59078902 23.82033669 75.57891124 32.78173828 94.27783203 C35.17063463 99.08435124 37.47797455 102.02318928 42 105 C46.66696916 106.03305307 51.71710101 106.13070138 56.07421875 103.97265625 C59.34136877 101.37001132 60.70547044 99.00578355 61.30859375 94.8984375 C62.49711386 71.632256 44.25318483 46.60422562 30 30 C29.29101562 29.16726563 28.58203125 28.33453125 27.8515625 27.4765625 C19.99674337 18.48747346 11.48940264 9.84985917 1 4 C0.48953125 5.56234375 0.48953125 5.56234375 -0.03125 7.15625 C-3.53361336 17.60683055 -7.88042454 27.25206634 -13 37 C-14.00451211 38.99773757 -15.00615855 40.99693256 -16 43 C-14.68 43.66 -13.36 44.32 -12 45 C-16.75 44.125 -16.75 44.125 -19 43 C-17.50696356 38.90176733 -15.49528148 35.35843315 -13.25 31.625 C-7.40793041 21.6600566 -3.47290869 10.99754419 0 0 Z " fill="#0660AB" transform="translate(507,447)"/>
<path d="M0 0 C27.51053457 3.05672606 51.94023245 16.6775228 73 34 C73.68578125 34.51949219 74.3715625 35.03898437 75.078125 35.57421875 C81.30134059 40.41611312 88.50321252 48.50963755 91 56 C91.53476918 61.97501722 91.51280722 66.9124861 88 72 C83.65005475 76.12100076 80.22081424 78.03640679 74.1875 77.9375 C68.09731513 76.92058601 63.80543621 73.34368782 58.9453125 69.7265625 C51.9889277 64.58248047 45.10367742 60.25389507 37.2421875 56.6003418 C34.01370792 55.08881898 31.28333852 53.79644829 29 51 C33.40347169 51.64461468 37.16455881 53.2371295 41.125 55.1875 C41.80715576 55.52338135 42.48931152 55.8592627 43.19213867 56.20532227 C51.86921517 60.69265779 59.4962614 66.73006636 67.16918945 72.72827148 C70.9763089 75.37279544 74.49833534 75.37513872 79 75 C83.33295158 73.52608614 85.55841701 71.70377289 88 67.8125 C89.44882498 62.28885477 89.43006671 57.99157338 86.9375 52.77734375 C82.94800163 46.35107791 76.84427668 38.42213834 70 35 C70 34.34 70 33.68 70 33 C69.46890625 32.76539063 68.9378125 32.53078125 68.390625 32.2890625 C65.91151759 30.95228889 63.73189115 29.36738345 61.48535156 27.67504883 C50.65844468 19.56400787 38.97157923 14.04078445 26.4375 9.0625 C25.69983398 8.76770752 24.96216797 8.47291504 24.20214844 8.16918945 C19.76831131 6.46988855 15.70720286 5.57552673 11 5 C10.67 4.67 10.34 4.34 10 4 C7.66702567 3.95907063 5.33294775 3.95758277 3 4 C3.00523682 4.96824707 3.01047363 5.93649414 3.01586914 6.93408203 C3.034047 10.54588894 3.04547854 14.15769184 3.05493164 17.76953125 C3.05994272 19.32910849 3.06675337 20.88868108 3.07543945 22.44824219 C3.08764686 24.69727736 3.09326068 26.9462501 3.09765625 29.1953125 C3.10281754 29.8861795 3.10797882 30.57704651 3.11329651 31.28884888 C3.11375529 35.29915055 2.7735266 39.06545295 2 43 C3.258125 43.268125 4.51625 43.53625 5.8125 43.8125 C11.26120106 45.0185023 16.62778989 46.49377287 22 48 C22 48.33 22 48.66 22 49 C14.59868798 48.2473242 7.38008518 47.13539772 0 46 C0 30.82 0 15.64 0 0 Z " fill="#1B7EAA" transform="translate(519,342)"/>
<path d="M0 0 C4.93097824 4.14650443 6.989371 7.76324247 7.67211914 14.18945312 C8.45175612 35.44250379 -8.28286522 58.97806814 -21.25 74.3125 C-21.25 70.16278689 -19.02734233 67.9917192 -16.625 64.8125 C-5.06489294 49.03616275 3.88493049 30.97598018 4.24609375 11.16015625 C3.63172567 7.63358671 2.49123799 6.536618 -0.25 4.3125 C-3.91694612 1.78685157 -3.91694612 1.78685157 -8.25 1.3125 C-9.45076172 1.22935547 -9.45076172 1.22935547 -10.67578125 1.14453125 C-15.16441752 1.43741647 -18.07814543 4.30569669 -21.25 7.3125 C-22.66666667 9.64583333 -22.66666667 9.64583333 -23.25 12.3125 C-24.86162358 16.95776797 -26.55795641 21.17089448 -29.25 25.3125 C-29.65605469 25.99957031 -30.06210937 26.68664062 -30.48046875 27.39453125 C-30.92003906 28.13058594 -31.35960937 28.86664063 -31.8125 29.625 C-32.22628906 30.32238281 -32.64007812 31.01976562 -33.06640625 31.73828125 C-33.45699219 32.25777344 -33.84757813 32.77726562 -34.25 33.3125 C-34.91 33.3125 -35.57 33.3125 -36.25 33.3125 C-36.53875 33.89 -36.8275 34.4675 -37.125 35.0625 C-37.49625 35.805 -37.8675 36.5475 -38.25 37.3125 C-38.518125 37.9725 -38.78625 38.6325 -39.0625 39.3125 C-40.6537864 41.9925613 -42.8106986 43.37214661 -45.25 45.3125 C-46.14350286 46.35948801 -47.01697316 47.42374669 -47.875 48.5 C-52.0033723 53.49750331 -57.17253064 57.32822244 -62.25 61.3125 C-63.24 60.6525 -64.23 59.9925 -65.25 59.3125 C-64.49976563 58.77882812 -63.74953125 58.24515625 -62.9765625 57.6953125 C-45.65626897 45.08683686 -35.64154402 30.4712365 -26.84375 11.23828125 C-23.79597661 4.70315176 -21.03937237 1.12480852 -14.375 -2.0625 C-8.94697046 -3.14810591 -4.91416952 -2.55158802 0 0 Z " fill="#FB6C14" transform="translate(585.25,192.6875)"/>
<path d="M0 0 C16.14509123 7.41120573 29.07981585 17.22466239 42.00390625 29.37890625 C42.61492187 29.93707031 43.2259375 30.49523437 43.85546875 31.0703125 C48.54731476 35.51578303 52.29065758 40.59842572 56.0859375 45.8046875 C57.90723198 48.37860039 57.90723198 48.37860039 60.00390625 50.37890625 C62.69217647 49.98420428 62.69217647 49.98420428 65.69140625 49.06640625 C74.56031087 46.57590063 83.07727359 46.19252793 92.22729492 46.19360352 C94.30082919 46.19142263 96.37382548 46.17323802 98.44726562 46.15429688 C105.84898048 46.12402877 112.82045415 46.48683149 120.00390625 48.37890625 C119.67390625 49.36890625 119.34390625 50.35890625 119.00390625 51.37890625 C118.34390625 51.37890625 117.68390625 51.37890625 117.00390625 51.37890625 C117.00390625 50.71890625 117.00390625 50.05890625 117.00390625 49.37890625 C114.03390625 49.87390625 114.03390625 49.87390625 111.00390625 50.37890625 C111.00390625 49.71890625 111.00390625 49.05890625 111.00390625 48.37890625 C109.82828125 48.75015625 108.65265625 49.12140625 107.44140625 49.50390625 C103.05468525 50.6198265 100.33863588 49.67172035 96.00390625 48.37890625 C93.70018886 48.46514166 91.4872399 48.75634385 89.20703125 49.08984375 C86.13973604 49.49229028 83.09393712 49.37890625 80.00390625 49.37890625 C77.24750306 49.85705782 74.56219137 50.48933497 71.84765625 51.16796875 C70.74421875 51.44382813 69.64078125 51.7196875 68.50390625 52.00390625 C67.40046875 52.28492188 66.29703125 52.5659375 65.16015625 52.85546875 C61.2475712 53.50433805 58.53517859 53.14454242 55.00390625 51.37890625 C54.27314977 49.06484405 53.60252367 46.73061756 53.00390625 44.37890625 C52.34390625 44.37890625 51.68390625 44.37890625 51.00390625 44.37890625 C49.27734375 42.48046875 49.27734375 42.48046875 47.37890625 40.00390625 C46.74726563 39.19179687 46.115625 38.3796875 45.46484375 37.54296875 C44.00390625 35.37890625 44.00390625 35.37890625 44.00390625 33.37890625 C43.01390625 33.37890625 42.02390625 33.37890625 41.00390625 33.37890625 C40.92140625 32.76015625 40.83890625 32.14140625 40.75390625 31.50390625 C40.50640625 30.80265625 40.25890625 30.10140625 40.00390625 29.37890625 C39.45605469 29.11851563 38.90820312 28.858125 38.34375 28.58984375 C35.70501325 27.22422039 33.72487862 25.43513097 31.5378418 23.44335938 C25.79441846 18.22369454 19.90109782 13.78760929 13.19140625 9.87890625 C12.51118408 9.48251953 11.83096191 9.08613281 11.13012695 8.67773438 C4.16170703 4.73763467 -2.63502748 1.00522427 -10.74609375 0.44140625 C-11.8134375 0.34988281 -12.88078125 0.25835937 -13.98046875 0.1640625 C-17.43729967 0.41033931 -19.12698278 1.52802872 -21.99609375 3.37890625 C-22.65609375 3.04890625 -23.31609375 2.71890625 -23.99609375 2.37890625 C-22.99609375 -0.62109375 -22.99609375 -0.62109375 -21.25 -1.78515625 C-14.23008142 -4.38873091 -6.71104993 -2.73978852 0 0 Z " fill="#FD7701" transform="translate(224.99609375,45.62109375)"/>
<path d="M0 0 C0.33 0 0.66 0 1 0 C2.22514693 26.59320348 2.83828264 51.88334066 -3 78 C-3.2367041 79.0720166 -3.4734082 80.1440332 -3.71728516 81.24853516 C-5.23265018 87.91050173 -6.9980258 94.46840563 -9 101 C-9.26006836 101.84916992 -9.52013672 102.69833984 -9.78808594 103.57324219 C-12.9292813 113.5889263 -16.80718671 123.17897353 -21.25 132.6875 C-21.67442383 133.60354004 -22.09884766 134.51958008 -22.53613281 135.46337891 C-22.94186523 136.30433105 -23.34759766 137.1452832 -23.765625 138.01171875 C-24.12430664 138.75897217 -24.48298828 139.50622559 -24.85253906 140.27612305 C-26 142 -26 142 -29 143 C-30.44870619 144.85804317 -30.44870619 144.85804317 -31.6875 147.0625 C-32.12449219 147.79597656 -32.56148438 148.52945313 -33.01171875 149.28515625 C-33.33785156 149.85105469 -33.66398437 150.41695312 -34 151 C-34.33 150.34 -34.66 149.68 -35 149 C-33.87482475 146.95206199 -32.64651205 144.9604404 -31.375 143 C-30.62224197 141.80903043 -29.87225102 140.61630753 -29.125 139.421875 C-28.75761719 138.83470703 -28.39023437 138.24753906 -28.01171875 137.64257812 C-23.60476345 130.48765649 -20.77345441 122.91701265 -18.14208984 114.97558594 C-17.11250371 111.91152632 -16.16336559 109.26122116 -14.44140625 106.5078125 C-12.47323529 103.08351506 -11.82421456 99.51693608 -11.0625 95.6875 C-10.72459155 94.07511404 -10.38470653 92.4631412 -10.04296875 90.8515625 C-9.87200684 90.04106445 -9.70104492 89.23056641 -9.52490234 88.39550781 C-8.72868333 84.76178641 -7.80479171 81.1639165 -6.875 77.5625 C-5.49898397 72.18388841 -4.31724986 66.80797817 -3.39453125 61.33203125 C-3.13392872 59.79163809 -2.83899635 58.25661721 -2.50830078 56.72973633 C-0.23037046 44.4965284 -0.70941885 31.53115893 -0.4375 19.125 C-0.39418657 17.2617116 -0.35056882 15.39843025 -0.30664062 13.53515625 C-0.20092575 9.02351091 -0.0993041 4.51179081 0 0 Z " fill="#0582C3" transform="translate(502,341)"/>
<path d="M0 0 C0.33 0 0.66 0 1 0 C1.08040527 0.6705542 1.16081055 1.3411084 1.24365234 2.03198242 C1.61372944 5.08472251 1.99425799 8.13607249 2.375 11.1875 C2.50132812 12.24259766 2.62765625 13.29769531 2.7578125 14.38476562 C2.88671875 15.40634766 3.015625 16.42792969 3.1484375 17.48046875 C3.26364746 18.41785889 3.37885742 19.35524902 3.49755859 20.32104492 C4.0158966 23.08475867 4.91233638 25.41505455 6 28 C6.37890625 30.421875 6.37890625 30.421875 6.5625 32.75 C6.60036469 35.6724823 6.60036469 35.6724823 8 38 C7.979375 38.804375 7.95875 39.60875 7.9375 40.4375 C7.70941092 43.16918103 7.70941092 43.16918103 10 45 C9.979375 45.886875 9.95875 46.77375 9.9375 47.6875 C10.01402412 51.74327854 11.32395501 54.32559367 13 58 C13.67926135 60.32969803 14.34424692 62.66357607 15 65 C15.80357419 67.57255806 16.64851214 70.13045616 17.5 72.6875 C17.81904297 73.66299805 17.81904297 73.66299805 18.14453125 74.65820312 C19.22564171 77.91148336 20.41479666 80.96336576 22 84 C22.433125 85.216875 22.86625 86.43375 23.3125 87.6875 C24.77123677 91.66925598 26.69914583 95.25459527 28.81640625 98.921875 C31.21380908 103.13117633 33.27166707 107.47341375 35 112 C34.505 113.485 34.505 113.485 34 115 C11.30446997 88.76480015 -0.38934281 40.49165198 -0.0625 6.5 C-0.05347656 5.2728125 -0.04445312 4.045625 -0.03515625 2.78125 C-0.02355469 1.8634375 -0.01195312 0.945625 0 0 Z " fill="#1345A0" transform="translate(137,373)"/>
<path d="M0 0 C0 15.18 0 30.36 0 46 C-21 50 -21 50 -26 50 C-23.41138727 47.41138727 -21.43420683 47.22614096 -17.875 46.4375 C-16.77929688 46.18871094 -15.68359375 45.93992187 -14.5546875 45.68359375 C-10.7057148 44.94340669 -6.89293586 44.44721911 -3 44 C-3.03029297 43.21987549 -3.06058594 42.43975098 -3.09179688 41.63598633 C-3.23042264 38.02825075 -3.36522805 34.42038152 -3.5 30.8125 C-3.54769531 29.58595703 -3.59539062 28.35941406 -3.64453125 27.09570312 C-3.94138594 19.05942249 -4.0608504 11.04154898 -4 3 C-8.29406585 4.2418536 -12.58476744 5.49497346 -16.875 6.75 C-18.07898438 7.09804688 -19.28296875 7.44609375 -20.5234375 7.8046875 C-30.02573397 10.59340494 -39.05307406 13.74048829 -47.75 18.5 C-49.32007813 19.35078125 -49.32007813 19.35078125 -50.921875 20.21875 C-54.07925235 21.99646896 -54.07925235 21.99646896 -57.265625 24.21875 C-60 26 -60 26 -62 26 C-62 26.66 -62 27.32 -62 28 C-63.32 28.33 -64.64 28.66 -66 29 C-62.9954749 24.75042355 -59.63685752 22.1912746 -55.1875 19.625 C-54.52443848 19.23779785 -53.86137695 18.8505957 -53.17822266 18.45166016 C-11.25516277 -5.62758138 -11.25516277 -5.62758138 0 0 Z " fill="#8E5070" transform="translate(122,342)"/>
<path d="M0 0 C0 3 0 3 -1.4375 5.75 C-3.5311384 10.10476788 -4.78068051 13.49405869 -3.29296875 18.26953125 C-0.08240784 25.11040839 4.27777224 27.16865109 11 30 C24.65389948 36.58942399 35.68962322 43.90519182 47 54 C47.82242188 54.72445312 48.64484375 55.44890625 49.4921875 56.1953125 C51.4375 58 51.4375 58 54 61 C53.90844727 63.02807617 53.90844727 63.02807617 53 65 C51.26928711 66.3527832 51.26928711 66.3527832 49.02734375 67.55078125 C48.20943359 68.00259766 47.39152344 68.45441406 46.54882812 68.91992188 C45.68708984 69.37947266 44.82535156 69.83902344 43.9375 70.3125 C37.82688481 73.59194213 32.65181673 76.87278002 27.69360352 81.76635742 C26.85526978 82.3770105 26.85526978 82.3770105 26 83 C25.01 82.67 24.02 82.34 23 82 C29.64828145 76.15338242 36.39170462 71.32657327 44.04711914 66.92016602 C46.63290642 65.43158476 48.87908483 64.12091517 51 62 C39.39171119 49.62632951 27.5619199 40.67038381 12.0078125 33.7890625 C9.20912927 32.55000848 6.42877827 31.28289584 3.671875 29.953125 C3.03604492 29.64793945 2.40021484 29.34275391 1.74511719 29.02832031 C-2.23292791 26.68423442 -4.40014171 23.25424914 -6.375 19.125 C-7.39232927 14.03835363 -6.90532821 9.8518077 -4.625 5.1875 C-3.19585604 3.26365237 -1.77462468 1.6056128 0 0 Z " fill="#FD6B04" transform="translate(201,46)"/>
<path d="M0 0 C0 3.70257023 -0.7360524 4.05823837 -3.25 6.625 C-10.24541119 14.32701838 -12.35030567 23.84905543 -14.49609375 33.80078125 C-14.94959381 35.78001021 -15.50030702 37.73635966 -16.0625 39.6875 C-17.95065358 46.35897597 -18.27593939 52.95972529 -18.62109375 59.85546875 C-19 63 -19 63 -21 66 C-20.34 66.33 -19.68 66.66 -19 67 C-19.13712402 67.70092773 -19.27424805 68.40185547 -19.41552734 69.12402344 C-20.88787826 77.18306865 -21.41182517 85.06941598 -21.625 93.25 C-21.66367188 94.48363281 -21.70234375 95.71726562 -21.7421875 96.98828125 C-21.8353276 99.99204937 -21.92114531 102.99582878 -22 106 C-22.33 106 -22.66 106 -23 106 C-26.28723938 72.97588748 -24.0764605 35.21469511 -7 6 C-4.80090595 3.80090595 -2.43929746 1.92576115 0 0 Z " fill="#F5482A" transform="translate(159,263)"/>
<path d="M0 0 C0.495 1.485 0.495 1.485 1 3 C-0.32274962 5.56358585 -1.68714363 7.90056179 -3.25 10.3125 C-3.70455566 11.0238208 -4.15911133 11.7351416 -4.62744141 12.46801758 C-16.40730179 30.59320474 -33.66402017 53.16495848 -52 65 C-53.32 65 -54.64 65 -56 65 C-54.7607016 61.2821048 -53.28718934 60.45770911 -50.1875 58.125 C-46.52781694 55.3680748 -43.80135413 52.61966014 -41 49 C-39.33333333 47.66666667 -37.66666667 46.33333333 -36 45 C-35.071875 43.824375 -35.071875 43.824375 -34.125 42.625 C-31.80290467 39.7565293 -29.26698333 37.62224093 -26.390625 35.33203125 C-25.93171875 34.89246094 -25.4728125 34.45289063 -25 34 C-25 33.34 -25 32.68 -25 32 C-20.69767442 27.23255814 -20.69767442 27.23255814 -17 26 C-16.31653318 24.34015202 -15.65411685 22.67163195 -15 21 C-13.73193585 19.13401953 -12.39654961 17.34058923 -11.0234375 15.55078125 C-9.81639569 14.03146529 -9.81639569 14.03146529 -10 12 C-9.40703125 11.77570313 -8.8140625 11.55140625 -8.203125 11.3203125 C-5.35498583 9.61344896 -4.37197983 7.75032788 -2.75 4.875 C-2.22921875 3.96492188 -1.7084375 3.05484375 -1.171875 2.1171875 C-0.78515625 1.41851562 -0.3984375 0.71984375 0 0 Z " fill="#0668B4" transform="translate(474,481)"/>
<path d="M0 0 C-1.41042956 0.84384675 -2.82864132 1.67469496 -4.25 2.5 C-5.03890625 2.9640625 -5.8278125 3.428125 -6.640625 3.90625 C-9 5 -9 5 -13 5 C-13 5.66 -13 6.32 -13 7 C-13.70125 7.103125 -14.4025 7.20625 -15.125 7.3125 C-18.42209467 8.10093568 -21.00805386 9.41243674 -24 11 C-24.928125 11.45375 -25.85625 11.9075 -26.8125 12.375 C-30.93647958 14.47742096 -34.9709125 16.72204445 -39 19 C-39.99 19.556875 -40.98 20.11375 -42 20.6875 C-44.13327205 21.84786296 -44.13327205 21.84786296 -45 24 C-46.57698878 24.84450766 -48.18715824 25.62777114 -49.8125 26.375 C-53.56120064 28.17715708 -56.21069233 29.86202887 -59 33 C-59.66 33 -60.32 33 -61 33 C-61.33 33.99 -61.66 34.98 -62 36 C-63.75555829 37.60620903 -65.57802906 39.14032489 -67.4375 40.625 C-68.42621094 41.42164063 -69.41492188 42.21828125 -70.43359375 43.0390625 C-73 45 -73 45 -75 46 C-64.35841418 23.10293858 -29.35141353 9.0185304 -7.5703125 0.125 C-4.05729511 -0.9819464 -3.27791973 -1.05210504 0 0 Z " fill="#FD560E" transform="translate(229,222)"/>
<path d="M0 0 C11.83327748 1.31480861 22.42174408 4.872173 33.4375 9.1875 C34.08219238 9.43717529 34.72688477 9.68685059 35.39111328 9.9440918 C39.87805027 11.75610054 39.87805027 11.75610054 41 14 C35.26603588 13.17099314 30.08640009 10.7228667 24.76953125 8.52734375 C20.11451254 6.65751271 15.97830504 5.57192016 11 5 C10.67 4.67 10.34 4.34 10 4 C7.66702567 3.95907063 5.33294775 3.95758277 3 4 C3.00523682 4.96824707 3.01047363 5.93649414 3.01586914 6.93408203 C3.034047 10.54588894 3.04547854 14.15769184 3.05493164 17.76953125 C3.05994272 19.32910849 3.06675337 20.88868108 3.07543945 22.44824219 C3.08764686 24.69727736 3.09326068 26.9462501 3.09765625 29.1953125 C3.10281754 29.8861795 3.10797882 30.57704651 3.11329651 31.28884888 C3.11375529 35.29915055 2.7735266 39.06545295 2 43 C3.258125 43.268125 4.51625 43.53625 5.8125 43.8125 C11.26120106 45.0185023 16.62778989 46.49377287 22 48 C22 48.33 22 48.66 22 49 C14.59868798 48.2473242 7.38008518 47.13539772 0 46 C0 30.82 0 15.64 0 0 Z " fill="#347FA3" transform="translate(519,342)"/>
<path d="M0 0 C0.66 0.33 1.32 0.66 2 1 C1.3201001 1.61089478 1.3201001 1.61089478 0.62646484 2.23413086 C-1.46662308 4.12527288 -3.54572057 6.0311904 -5.625 7.9375 C-6.33785156 8.57751953 -7.05070312 9.21753906 -7.78515625 9.87695312 C-13.47641687 15.12439985 -19.6336897 21.2177801 -21.0625 29.125 C-20.97259886 34.69887042 -19.52450114 38.19831683 -15.9375 42.4375 C-11.11477328 45.00278017 -6.26171534 44.91897535 -1.03125 43.4453125 C4.16122691 41.13510032 8.42844016 37.37552409 12.84838867 33.87036133 C18.42977498 29.51689617 24.41484997 25.65901831 31 23 C31.99 23.33 32.98 23.66 34 24 C32.9584375 24.58265625 31.916875 25.1653125 30.84375 25.765625 C22.26940228 30.64566298 14.21986002 35.74532924 6.61914062 42.06347656 C2.07258437 45.69444046 -2.16695506 47.46716056 -8 48 C-14.74807256 46.98778912 -17.60992185 43.88457708 -21.8125 38.8125 C-23.62531851 34.51898247 -23.62237331 30.58819392 -23 26 C-18.95438429 16.14980524 -8.83364318 5.88909546 0 0 Z " fill="#424D8C" transform="translate(53,372)"/>
<path d="M0 0 C5.0178411 4.98362854 7.27855163 11.25592729 9.97167969 17.65112305 C13.35302749 25.49035887 17.7756911 32.04849068 23.15625 38.64453125 C23.58276855 39.17272461 24.00928711 39.70091797 24.44873047 40.24511719 C31.33121625 48.62221881 39.16145182 54.70323035 48.15625 60.64453125 C49.64125 61.63453125 49.64125 61.63453125 51.15625 62.64453125 C50.82625 63.30453125 50.49625 63.96453125 50.15625 64.64453125 C29.35605961 52.64757104 13.53052894 34.34721233 4.58911133 12.11254883 C2.62857754 7.31966299 0.53594133 3.1143406 -3.96875 0.33203125 C-9.77354746 -1.05607249 -16.07218173 -0.89455362 -21.84375 0.64453125 C-19.60750355 -2.43030761 -16.73887984 -3.40691818 -13.08984375 -4.18359375 C-8.07008654 -4.5677143 -4.01289115 -2.95015514 0 0 Z " fill="#FB3D11" transform="translate(74.84375,194.35546875)"/>
<path d="M0 0 C0 4.1777868 -1.63992566 5.07317155 -4.5625 8 C-13.10692307 16.39960234 -31.45698867 34 -44 34 C-45.31391118 30.72973178 -46.62588516 27.45868982 -47.9375 24.1875 C-48.31068359 23.25873047 -48.68386719 22.32996094 -49.06835938 21.37304688 C-49.42607422 20.48037109 -49.78378906 19.58769531 -50.15234375 18.66796875 C-50.48226318 17.84578857 -50.81218262 17.0236084 -51.15209961 16.17651367 C-51.81716342 14.46933143 -52.42062266 12.73813203 -53 11 C-51.68 11 -50.36 11 -49 11 C-48.731875 12.216875 -48.46375 13.43375 -48.1875 14.6875 C-47.52211096 17.39658395 -46.90959161 19.14826975 -45.4375 21.5625 C-43.60879332 24.66335045 -43.34801493 27.45024776 -43 31 C-42.34 30.34 -41.68 29.68 -41 29 C-39.6846659 28.29848848 -38.34882408 27.63474075 -37 27 C-36.34 26.62875 -35.68 26.2575 -35 25.875 C-33 25 -33 25 -29 25 C-28.67 24.01 -28.34 23.02 -28 22 C-25.9375 21.3125 -25.9375 21.3125 -24 21 C-24 20.34 -24 19.68 -24 19 C-23.195625 18.731875 -22.39125 18.46375 -21.5625 18.1875 C-20.2940625 17.5996875 -20.2940625 17.5996875 -19 17 C-18.505 15.515 -18.505 15.515 -18 14 C-16.865625 13.484375 -15.73125 12.96875 -14.5625 12.4375 C-8.56264258 9.68257454 -4.43580793 4.76303966 0 0 Z " fill="#BA5744" transform="translate(559,270)"/>
<path d="M0 0 C0.20044922 0.59312988 0.40089844 1.18625977 0.60742188 1.79736328 C5.61708724 16.47136607 11.3445382 29.13170281 20 42 C18.35 42.66 16.7 43.32 15 44 C14.67 43.34 14.34 42.68 14 42 C14.66 41.67 15.32 41.34 16 41 C15.41992188 40.09121094 14.83984375 39.18242187 14.2421875 38.24609375 C7.3224592 27.19500719 1.6310212 15.89200387 -1 3 C-7.33725372 7.19337427 -13.09205352 11.70067212 -18.671875 16.859375 C-20.71695892 18.73975418 -22.8023974 20.53623817 -24.9375 22.3125 C-27.32952068 24.3378194 -29.27152314 26.35644716 -31 29 C-31.99 28.67 -32.98 28.34 -34 28 C-7.0175177 0 -7.0175177 0 0 0 Z " fill="#13439C" transform="translate(139,447)"/>
<path d="M0 0 C8.13116879 1.38402873 13.12709029 6.37216511 18.140625 12.703125 C25.31446099 22.94363897 29.62275798 33.90279316 32.875 45.875 C33.09051514 46.6594751 33.30603027 47.4439502 33.52807617 48.25219727 C34.82040966 53.30316998 35.20181896 57.7883221 35 63 C33.14223235 59.86501708 32.79859524 57.62528568 33 54 C32.34 54 31.68 54 31 54 C30.8046875 52.01432292 30.609375 50.02864583 30.4140625 48.04296875 C30.07334609 45.70011858 30.07334609 45.70011858 28 43 C27.855625 41.88625 27.71125 40.7725 27.5625 39.625 C26.98810859 35.92336649 25.90015516 34.13938679 24 31 C23.8125 28.1875 23.8125 28.1875 24 26 C23.34 26 22.68 26 22 26 C21.649375 25.195625 21.29875 24.39125 20.9375 23.5625 C17.62232207 16.94785589 12.86954649 11.44662613 7 7 C7 6.34 7 5.68 7 5 C6.21625 4.731875 5.4325 4.46375 4.625 4.1875 C2 3 2 3 0 0 Z " fill="#EB6333" transform="translate(466,252)"/>
<path d="M0 0 C6.32991258 3.78835677 11.67893932 8.25375121 17.01269531 13.30395508 C19.77550072 15.96635999 19.77550072 15.96635999 23 18 C23 18.66 23 19.32 23 20 C23.66 20 24.32 20 25 20 C26.54091405 21.69588264 28.00923297 23.45821672 29.4375 25.25 C30.21996094 26.22453125 31.00242187 27.1990625 31.80859375 28.203125 C33.5683617 30.44910335 35.30216098 32.70709843 37 35 C36.01 35 35.02 35 34 35 C32.08984375 32.9453125 32.08984375 32.9453125 29.9375 30.125 C21.75569742 19.83516455 12.52255649 11.75172657 2 4 C-0.19431491 7.29147236 -1.37826726 10.61876451 -2.6875 14.3125 C-5.56115769 22.21167948 -9.10778645 29.55484575 -13 37 C-14.00367309 38.99815924 -15.00481346 40.9976005 -16 43 C-14.68 43.66 -13.36 44.32 -12 45 C-16.75 44.125 -16.75 44.125 -19 43 C-17.50696356 38.90176733 -15.49528148 35.35843315 -13.25 31.625 C-7.40793041 21.6600566 -3.47290869 10.99754419 0 0 Z " fill="#0972B7" transform="translate(507,447)"/>
<path d="M0 0 C1.16067993 0.00459229 2.32135986 0.00918457 3.51721191 0.01391602 C6.86454354 0.0325944 10.21143523 0.06302918 13.55859375 0.1015625 C15.06796761 0.1176506 15.06796761 0.1176506 16.60783386 0.13406372 C21.68549975 0.21932076 26.55568093 0.51524758 31.5625 1.375 C31.5625 1.705 31.5625 2.035 31.5625 2.375 C30.48170166 2.36452637 29.40090332 2.35405273 28.28735352 2.34326172 C2.37123978 2.11468115 -23.060986 2.42855713 -48.71533203 6.58520508 C-49.5711084 6.71693115 -50.42688477 6.84865723 -51.30859375 6.984375 C-52.06068115 7.10780273 -52.81276855 7.23123047 -53.58764648 7.35839844 C-54.19809814 7.36387695 -54.8085498 7.36935547 -55.4375 7.375 C-56.0975 6.715 -56.7575 6.055 -57.4375 5.375 C-38.25252033 0.80946053 -19.66178566 -0.09379261 0 0 Z " fill="#FE490D" transform="translate(319.4375,184.625)"/>
<path d="M0 0 C0.33 0 0.66 0 1 0 C3.2868599 55.88064414 3.2868599 55.88064414 -2 73 C-2.99 73.99 -2.99 73.99 -4 75 C-4.34718222 62.34713671 -4.34718222 62.34713671 -2.53149414 56.29150391 C0.20707653 44.4843269 -0.70212217 31.19825153 -0.4375 19.125 C-0.39418657 17.2617116 -0.35056882 15.39843025 -0.30664062 13.53515625 C-0.20092575 9.02351091 -0.0993041 4.51179081 0 0 Z " fill="#1D8CBB" transform="translate(502,341)"/>
<path d="M0 0 C0.33 0 0.66 0 1 0 C1.08040527 0.6705542 1.16081055 1.3411084 1.24365234 2.03198242 C1.61372944 5.08472251 1.99425799 8.13607249 2.375 11.1875 C2.50132812 12.24259766 2.62765625 13.29769531 2.7578125 14.38476562 C2.88671875 15.40634766 3.015625 16.42792969 3.1484375 17.48046875 C3.26364746 18.41785889 3.37885742 19.35524902 3.49755859 20.32104492 C4.0158966 23.08475867 4.91233638 25.41505455 6 28 C6.37890625 30.421875 6.37890625 30.421875 6.5625 32.75 C6.60036469 35.6724823 6.60036469 35.6724823 8 38 C7.979375 38.804375 7.95875 39.60875 7.9375 40.4375 C7.70941092 43.16918103 7.70941092 43.16918103 10 45 C10.25 48 10.25 48 10 51 C9.34 51.66 8.68 52.32 8 53 C5.57077612 46.40071045 4.06437855 39.85968315 2.875 32.9375 C2.70613281 31.99583984 2.53726563 31.05417969 2.36328125 30.08398438 C0.96777237 22.18892038 -0.13986293 14.54574438 -0.0625 6.5 C-0.05347656 5.2728125 -0.04445312 4.045625 -0.03515625 2.78125 C-0.02355469 1.8634375 -0.01195312 0.945625 0 0 Z " fill="#434F8D" transform="translate(137,373)"/>
<path d="M0 0 C4.96818192 1.49789754 7.97183325 4.43029311 11.625 7.9375 C12.19734375 8.47568359 12.7696875 9.01386719 13.359375 9.56835938 C14.9158433 11.03614518 16.46407832 12.51073858 18 14 C18.57669434 14.47123291 19.15338867 14.94246582 19.74755859 15.42797852 C21 17 21 17 20.93579102 19.02807617 C19.71876454 21.59262689 18.51844133 22.21964591 16.02734375 23.55078125 C14.80047852 24.22850586 14.80047852 24.22850586 13.54882812 24.91992188 C12.68708984 25.37947266 11.82535156 25.83902344 10.9375 26.3125 C4.82688481 29.59194213 -0.34818327 32.87278002 -5.30639648 37.76635742 C-5.86528564 38.17345947 -6.4241748 38.58056152 -7 39 C-7.99 38.67 -8.98 38.34 -10 38 C-3.35171855 32.15338242 3.39170462 27.32657327 11.04711914 22.92016602 C13.63290642 21.43158476 15.87908483 20.12091517 18 18 C16.12818806 16.10092866 14.25269944 14.20573596 12.375 12.3125 C11.85292969 11.78205078 11.33085937 11.25160156 10.79296875 10.70507812 C8.15787685 8.05372022 5.49789295 5.53390124 2.6015625 3.16796875 C1.74304688 2.45253906 0.88453125 1.73710938 0 1 C0 0.67 0 0.34 0 0 Z " fill="#FE5A08" transform="translate(234,90)"/>
<path d="M0 0 C5.34291232 1.57547415 10.09071882 3.9183782 15 6.5 C15.83144531 6.93707275 16.66289062 7.37414551 17.51953125 7.82446289 C26.12015666 12.44762934 35.30341032 17.76861322 42 25 C36.65972408 24.58920954 34.57213596 23.89687559 31 20 C28.40523031 18.21334714 25.70692003 16.61010413 23 15 C22.0925 14.443125 21.185 13.88625 20.25 13.3125 C18.20128257 12.11741483 16.13637844 11.02862666 14 10 C14 9.34 14 8.68 14 8 C12.3603125 7.5359375 12.3603125 7.5359375 10.6875 7.0625 C8.44592006 6.41662103 6.2130649 5.7376883 4 5 C4 4.34 4 3.68 4 3 C2.35 3 0.7 3 -1 3 C-0.67 2.01 -0.34 1.02 0 0 Z " fill="#F65E20" transform="translate(429,228)"/>
<path d="M0 0 C18.77626486 10.62532818 30.14367428 28.96769738 39 48 C38.34 48.66 37.68 49.32 37 50 C36.70867188 49.41621582 36.41734375 48.83243164 36.1171875 48.23095703 C28.9631016 33.64713538 28.9631016 33.64713538 19.36328125 20.64453125 C18 19 18 19 18 17 C17.34 17 16.68 17 16 17 C14.63771426 15.36525712 13.27773889 13.72853183 11.9296875 12.08203125 C8.94641344 8.86323555 5.47839329 6.32817431 1.9765625 3.69921875 C1.32429688 3.13847656 0.67203125 2.57773437 0 2 C0 1.34 0 0.68 0 0 Z " fill="#085EAB" transform="translate(502,496)"/>
<path d="M0 0 C2.37068912 3.55603368 2.34465108 6.17993345 2.4140625 10.29296875 C2.43342865 10.99899734 2.4527948 11.70502594 2.4727478 12.43244934 C2.53245224 14.68401061 2.5788914 16.93562328 2.625 19.1875 C2.66318829 20.71551689 2.70224052 22.24351245 2.7421875 23.77148438 C2.83814596 27.51414935 2.92221011 31.2569151 3 35 C-0.39436356 35.67429967 -3.79070193 36.3380828 -7.1875 37 C-8.14720703 37.19078125 -9.10691406 37.3815625 -10.09570312 37.578125 C-11.02705078 37.75859375 -11.95839844 37.9390625 -12.91796875 38.125 C-14.19837036 38.37636719 -14.19837036 38.37636719 -15.50463867 38.6328125 C-18.04045103 39.00595229 -20.44081397 39.06412996 -23 39 C-20.41138727 36.41138727 -18.43420683 36.22614096 -14.875 35.4375 C-13.77929688 35.18871094 -12.68359375 34.93992187 -11.5546875 34.68359375 C-7.73248972 33.94855572 -3.86217658 33.48277207 0 33 C0 22.11 0 11.22 0 0 Z " fill="#604A77" transform="translate(119,353)"/>
<path d="M0 0 C0.66 0.33 1.32 0.66 2 1 C-0.52369894 20.55866678 -12.54847455 38.27530778 -25 53 C-25 48.85028689 -22.77734233 46.6792192 -20.375 43.5 C-10.76378564 30.38336031 -3.69815432 15.89557557 0 0 Z " fill="#EB5B1B" transform="translate(589,214)"/>
<path d="M0 0 C0.33 0 0.66 0 1 0 C0.88597936 2.27141109 0.75841495 4.54214552 0.625 6.8125 C0.55539063 8.07707031 0.48578125 9.34164063 0.4140625 10.64453125 C0 14 0 14 -2 17 C-1.34 17.33 -0.68 17.66 0 18 C-0.13712402 18.70092773 -0.27424805 19.40185547 -0.41552734 20.12402344 C-1.88787826 28.18306865 -2.41182517 36.06941598 -2.625 44.25 C-2.68300781 46.10044922 -2.68300781 46.10044922 -2.7421875 47.98828125 C-2.8353276 50.99204937 -2.92114531 53.99582878 -3 57 C-3.33 57 -3.66 57 -4 57 C-4.9978371 46.97557497 -5.00700924 37.12526563 -4.625 27.0625 C-4.58189697 25.91418701 -4.53879395 24.76587402 -4.49438477 23.58276367 C-3.75249705 6.12874558 -3.75249705 6.12874558 -1 2 C-0.67 1.34 -0.34 0.68 0 0 Z " fill="#B04A56" transform="translate(140,312)"/>
<path d="M0 0 C3.25919057 1.46331005 5.71666533 3.32169645 8.4375 5.625 C20.16271815 15.47954155 20.16271815 15.47954155 34 20 C34.28875 19.05125 34.5775 18.1025 34.875 17.125 C36 14 36 14 38 12 C37.44687265 16.02992782 36.8441938 20.02022924 36 24 C31.32343716 23.40757553 27.60310765 21.4178554 23.5625 19.125 C22.86890381 18.73296387 22.17530762 18.34092773 21.46069336 17.93701172 C16.39783756 14.99216617 11.67709414 11.72896238 7.0625 8.125 C6.46574463 7.66109863 5.86898926 7.19719727 5.25415039 6.71923828 C2.55539384 4.54193639 1.11830903 3.35492709 0 0 Z " fill="#EA3229" transform="translate(90,280)"/>
<path d="M0 0 C4.40391058 0.64467893 8.1637151 2.23840586 12.125 4.1875 C12.81368164 4.52410645 13.50236328 4.86071289 14.21191406 5.20751953 C20.23693251 8.30613889 25.4189131 12.22031869 30.75 16.375 C37.65500245 21.7402935 42.95136113 25.25285618 52 25 C48.62489808 27.25006795 47.07670551 27.22462205 43.15234375 26.5859375 C38.07378692 25.20339027 34.11026016 21.82630616 29.9453125 18.7265625 C22.9889277 13.58248047 16.10367742 9.25389507 8.2421875 5.6003418 C5.01370792 4.08881898 2.28333852 2.79644829 0 0 Z " fill="#1381B5" transform="translate(548,393)"/>
<path d="M0 0 C0.66 0.33 1.32 0.66 2 1 C1.3201001 1.61089478 1.3201001 1.61089478 0.62646484 2.23413086 C-1.46662308 4.12527288 -3.54572057 6.0311904 -5.625 7.9375 C-6.33785156 8.57751953 -7.05070312 9.21753906 -7.78515625 9.87695312 C-13.47641687 15.12439985 -19.6336897 21.2177801 -21.0625 29.125 C-20.99055862 33.5853657 -20.22542334 36.14259954 -18 40 C-15.46455951 42.34528245 -12.87204168 44.08530555 -10 46 C-12.1875 46.3125 -12.1875 46.3125 -15 46 C-19.05433108 42.62139076 -22.56916824 39.0841249 -23.3203125 33.70703125 C-23.71897081 24.92325972 -20.28995546 20.34817479 -14.6875 14 C-4.52387268 3.01591512 -4.52387268 3.01591512 0 0 Z " fill="#49457C" transform="translate(53,372)"/>
<path d="M0 0 C0 0.66 0 1.32 0 2 C-1.01320312 2.47179687 -1.01320312 2.47179687 -2.046875 2.953125 C-6.71217305 5.19138938 -10.51496847 7.07933953 -14 11 C-14.66 11 -15.32 11 -16 11 C-16.33 11.99 -16.66 12.98 -17 14 C-18.75555829 15.60620903 -20.57802906 17.14032489 -22.4375 18.625 C-23.42621094 19.42164063 -24.41492188 20.21828125 -25.43359375 21.0390625 C-28 23 -28 23 -30 24 C-25.60315575 14.53949151 -10.93589427 -0.59112942 0 0 Z " fill="#FB4719" transform="translate(184,244)"/>
<path d="M0 0 C0.495 0.99 0.495 0.99 1 2 C-0.13147688 4.22104721 -1.30420067 6.27098984 -2.625 8.375 C-2.96917969 8.9525 -3.31335938 9.53 -3.66796875 10.125 C-6.00179154 13.8970088 -8.46890874 16.36322107 -12 19 C-12.9097544 20.03289795 -13.78839292 21.09451334 -14.625 22.1875 C-18.7533723 27.18500331 -23.92253064 31.01572244 -29 35 C-29.99 34.34 -30.98 33.68 -32 33 C-31.24976563 32.46632812 -30.49953125 31.93265625 -29.7265625 31.3828125 C-18.98551985 23.56376634 -10.36615798 15.13716193 -3 4 C-2.00954119 2.65956383 -1.01252903 1.32384393 0 0 Z " fill="#F35D24" transform="translate(552,219)"/>
<path d="M0 0 C0.99 0.33 1.98 0.66 3 1 C3.5262249 2.97334339 4.04249849 4.95106429 4.46484375 6.94921875 C4.94240244 9.18241147 4.94240244 9.18241147 6.5625 11.5625 C8.39120668 14.66335045 8.65198507 17.45024776 9 21 C9.66 20.34 10.32 19.68 11 19 C13.37828319 17.49375398 14.43318383 16.90553064 17.25 17.375 C18.11625 17.684375 18.11625 17.684375 19 18 C16.45217026 20.97246802 13.54659117 22.41535288 10 24 C9.34 24 8.68 24 8 24 C6.68608882 20.72973178 5.37411484 17.45868982 4.0625 14.1875 C3.68931641 13.25873047 3.31613281 12.32996094 2.93164062 11.37304688 C2.57392578 10.48037109 2.21621094 9.58769531 1.84765625 8.66796875 C1.51773682 7.84578857 1.18781738 7.0236084 0.84790039 6.17651367 C0.18283658 4.46933143 -0.42062266 2.73813203 -1 1 C-0.67 0.67 -0.34 0.34 0 0 Z " fill="#B0655C" transform="translate(507,280)"/>
<path d="M0 0 C2.37160148 2.37160148 2.31983352 3.00621122 2.375 6.25 C2.26332911 10.88806413 1.07084364 13.43118172 -2 17 C-6.91463613 21.3295604 -9.85820161 22.4132139 -16.3203125 22.34765625 C-20.65088322 21.78581836 -23.81592449 19.94526985 -27 17 C-28.5 14.1875 -28.5 14.1875 -29 12 C-27.68677212 12.97819024 -26.37443848 13.9575811 -25.0625 14.9375 C-23.96615234 15.75541016 -23.96615234 15.75541016 -22.84765625 16.58984375 C-21 18 -21 18 -20 19 C-12.7772468 19.79631149 -12.7772468 19.79631149 -5.90625 17.98828125 C-2.43217161 15.15282021 -1.20000716 12.70623389 -0.68359375 8.30078125 C-0.60238281 7.31464844 -0.52117188 6.32851563 -0.4375 5.3125 C-0.35371094 4.31863281 -0.26992188 3.32476563 -0.18359375 2.30078125 C-0.09271484 1.16189453 -0.09271484 1.16189453 0 0 Z " fill="#0C4D94" transform="translate(569,533)"/>
<path d="M0 0 C0.33 0 0.66 0 1 0 C1.02917234 3.87498404 1.04685673 7.74993958 1.0625 11.625 C1.07087891 12.71941406 1.07925781 13.81382812 1.08789062 14.94140625 C1.09111328 16.00488281 1.09433594 17.06835938 1.09765625 18.1640625 C1.10289307 19.13811035 1.10812988 20.1121582 1.11352539 21.11572266 C0.99414506 24.14875321 0.55866724 27.01915268 0 30 C1.258125 30.268125 2.51625 30.53625 3.8125 30.8125 C9.26120106 32.0185023 14.62778989 33.49377287 20 35 C20 35.33 20 35.66 20 36 C12.62346781 35.24984418 5.32168224 34.16558465 -2 33 C-1.90912109 32.06607422 -1.90912109 32.06607422 -1.81640625 31.11328125 C-0.87782063 20.75995989 -0.45381884 10.38384199 0 0 Z " fill="#21709F" transform="translate(521,355)"/>
<path d="M0 0 C3.78239671 0.65690619 7.21841526 1.720131 10.8125 3.0625 C11.78832031 3.42472656 12.76414063 3.78695313 13.76953125 4.16015625 C14.50558594 4.43730469 15.24164063 4.71445312 16 5 C15.32534946 9.05797266 13.24369197 12.32331762 11.1875 15.8125 C10.84396484 16.40353516 10.50042969 16.99457031 10.14648438 17.60351562 C9.45405852 18.79479989 8.75989185 19.98507406 8.06396484 21.17431641 C6.35609094 24.10489949 4.67919936 27.05291078 3 30 C2 27 2 27 2.8203125 24.80078125 C3.25085938 23.97964844 3.68140625 23.15851563 4.125 22.3125 C4.58648437 21.43078125 5.04796875 20.5490625 5.5234375 19.640625 C7.23446802 16.58068683 9.05409822 13.61736377 10.984375 10.69140625 C12.16733536 8.86009712 12.16733536 8.86009712 13 6 C11.68 6 10.36 6 9 6 C9 5.34 9 4.68 9 4 C7.88625 3.8453125 7.88625 3.8453125 6.75 3.6875 C3.82985982 2.95746496 2.26812446 1.93210602 0 0 Z " fill="#F7381C" transform="translate(127,259)"/>
<path d="M0 0 C0.99 0.33 1.98 0.66 3 1 C-4.05175612 5.8557547 -10.81538726 9.45121344 -19 12 C-17.37955551 16.29836214 -15.27333952 20.07707883 -12.92578125 24.01171875 C-12.62027344 24.66785156 -12.31476563 25.32398438 -12 26 C-12.33 26.66 -12.66 27.32 -13 28 C-14.48321908 25.73172355 -15.96167699 23.46058097 -17.4375 21.1875 C-17.85837891 20.54490234 -18.27925781 19.90230469 -18.71289062 19.24023438 C-20.47722704 16.51609896 -21.9691739 14.09247829 -23 11 C-22.01 10.62488281 -21.02 10.24976563 -20 9.86328125 C-11.32117137 6.58464446 -11.32117137 6.58464446 -3.25 2.0625 C-2.1775 1.381875 -1.105 0.70125 0 0 Z " fill="#E85328" transform="translate(519,253)"/>
<path d="M0 0 C4.24281716 0.45218233 8.46860953 0.91894044 12.6875 1.5625 C15.99045241 2.07228889 15.99045241 2.07228889 19.3125 2 C22 2 22 2 24 3 C24 2.34 24 1.68 24 1 C26.64 1 29.28 1 32 1 C31 3 31 3 28.359375 4.10546875 C19.59406416 6.43948757 9.26903711 5.92734224 1 2 C0.67 1.34 0.34 0.68 0 0 Z " fill="#0A449C" transform="translate(303,592)"/>
<path d="M0 0 C0.99 1.32 1.98 2.64 3 4 C2.54625 4.70125 2.0925 5.4025 1.625 6.125 C-0.08528196 8.93666194 -0.08528196 8.93666194 -1 12 C-2.01851742 15.05555227 -3.26147159 17.29562247 -5 20 C-5.89698244 21.43678325 -6.79274868 22.87432627 -7.6875 24.3125 C-8.45789096 25.54194398 -9.22857328 26.77120566 -10 28 C-10 18.56303538 -3.80407703 8.49403501 0 0 Z " fill="#FA6F1A" transform="translate(561,198)"/>
<path d="M0 0 C0.66 0 1.32 0 2 0 C2.17015625 0.75023437 2.3403125 1.50046875 2.515625 2.2734375 C3.94625106 8.31554967 5.66764726 13.94724523 8.08203125 19.6640625 C9.41226108 23.04907288 10.21179067 26.45305802 11 30 C8.0487355 28.52436775 7.93076085 26.49920648 6.875 23.4375 C6.52179688 22.42558594 6.16859375 21.41367187 5.8046875 20.37109375 C5.53914062 19.58863281 5.27359375 18.80617188 5 18 C4.34 18 3.68 18 3 18 C2.30030318 15.75376301 1.61564957 13.50283586 0.9375 11.25 C0.55464844 9.99703125 0.17179688 8.7440625 -0.22265625 7.453125 C-0.92656828 4.3261992 -1.16653785 2.90533954 0 0 Z " fill="#2054AA" transform="translate(146,425)"/>
<path d="M0 0 C3.78325324 2.10091297 4.80562295 4.4919305 6.03125 8.56054688 C6.2271875 9.26244141 6.423125 9.96433594 6.625 10.6875 C6.82867187 11.37005859 7.03234375 12.05261719 7.2421875 12.75585938 C7.85357025 14.83103352 8.43293016 16.91230682 9 19 C9.19416504 19.70785645 9.38833008 20.41571289 9.58837891 21.14501953 C10.87063265 26.00533943 11.17761372 30.02681573 11 35 C9.14223235 31.86501708 8.79859524 29.62528568 9 26 C8.34 26 7.68 26 7 26 C6.8046875 24.01432292 6.609375 22.02864583 6.4140625 20.04296875 C6.07334609 17.70011858 6.07334609 17.70011858 4 15 C3.855625 13.88625 3.71125 12.7725 3.5625 11.625 C2.99207655 7.94893778 1.96729078 6.07923774 0 3 C0 2.01 0 1.02 0 0 Z " fill="#B96B5A" transform="translate(490,280)"/>
<path d="M0 0 C1.15006276 3.45018827 0.88155518 3.95777572 -0.4765625 7.16796875 C-0.81816406 7.97943359 -1.15976562 8.79089844 -1.51171875 9.62695312 C-1.87910156 10.47193359 -2.24648438 11.31691406 -2.625 12.1875 C-2.96917969 13.01314453 -3.31335938 13.83878906 -3.66796875 14.68945312 C-5.72990103 19.51711377 -8.04842569 23.93331085 -10.96240234 28.30200195 C-12.16993689 30.13509205 -12.16993689 30.13509205 -13 33 C-11.68 33.66 -10.36 34.32 -9 35 C-13.75 34.125 -13.75 34.125 -16 33 C-14.49372824 28.85968378 -12.45090305 25.273781 -10.1875 21.5 C-6.74629496 15.65519025 -4.18769222 9.84948084 -1.91015625 3.44921875 C-1 1 -1 1 0 0 Z " fill="#0A62AA" transform="translate(504,457)"/>
<path d="M0 0 C1.54239129 5.13395959 -0.35693346 8.51815101 -2.4375 13.3125 C-4 16 -4 16 -7 17 C-8.44870619 18.85804317 -8.44870619 18.85804317 -9.6875 21.0625 C-10.12449219 21.79597656 -10.56148438 22.52945312 -11.01171875 23.28515625 C-11.50091797 24.13400391 -11.50091797 24.13400391 -12 25 C-12.33 24.34 -12.66 23.68 -13 23 C-11.87482475 20.95206199 -10.64651205 18.9604404 -9.375 17 C-5.8645685 11.49801448 -2.77684735 5.91415085 0 0 Z " fill="#0284CD" transform="translate(480,467)"/>
<path d="M0 0 C3.37227042 2.69781634 4.56631831 6.33926422 6.0625 10.25 C6.31837891 10.89324219 6.57425781 11.53648437 6.83789062 12.19921875 C9.26868801 18.41056221 11.32974606 24.24020581 11 31 C8.7373385 27.60600775 7.75797703 24.23953809 6.625 20.375 C4.99427412 14.95001697 3.2277978 9.78636001 0.69921875 4.69921875 C0 3 0 3 0 0 Z " fill="#FD5D0B" transform="translate(441,162)"/>
<path d="M0 0 C1.546875 1.25390625 1.546875 1.25390625 3 3 C2.890625 4.90234375 2.890625 4.90234375 2.25 6.9375 C2.04890625 7.60652344 1.8478125 8.27554687 1.640625 8.96484375 C1.42921875 9.63644531 1.2178125 10.30804688 1 11 C0.12995646 14.22115357 -0.47608465 17.46607405 -1.0625 20.75 C-1.23910156 21.73484375 -1.41570312 22.7196875 -1.59765625 23.734375 C-1.73042969 24.48203125 -1.86320313 25.2296875 -2 26 C-2.33 26 -2.66 26 -3 26 C-3.50803456 16.94945834 -1.98718981 8.7649265 0 0 Z " fill="#E04439" transform="translate(141,295)"/>
<path d="M0 0 C4.46520629 1.36436859 6.57895595 2.99275468 9 7 C10.87208174 12.75065109 11.67494187 17.35290049 9 23 C8.67 23 8.34 23 8 23 C7.98582031 22.05898437 7.97164062 21.11796875 7.95703125 20.1484375 C7.9581963 12.13434737 7.9581963 12.13434737 4.5625 5.1875 C2.21880622 3.00916013 2.21880622 3.00916013 0 2 C0 1.34 0 0.68 0 0 Z " fill="#F45712" transform="translate(582,192)"/>
<path d="M0 0 C0.66 0.33 1.32 0.66 2 1 C1.98839844 2.22976563 1.97679687 3.45953125 1.96484375 4.7265625 C1.95545978 6.35937347 1.94636023 7.9921861 1.9375 9.625 C1.92912109 10.43324219 1.92074219 11.24148438 1.91210938 12.07421875 C1.89768544 15.62250567 1.98124869 18.88749216 2.56640625 22.3984375 C3 25 3 25 2 28 C1.34 28 0.68 28 0 28 C-0.33 29.32 -0.66 30.64 -1 32 C-0.67 21.44 -0.34 10.88 0 0 Z " fill="#8B6284" transform="translate(137,345)"/>
<path d="M0 0 C1.98 0.66 3.96 1.32 6 2 C5.01 2.66 4.02 3.32 3 4 C2.48779459 7.10213725 2.48779459 7.10213725 2.48828125 10.7578125 C2.47033005 11.42086395 2.45237885 12.08391541 2.43388367 12.76705933 C2.37967076 14.88630803 2.34585229 17.00533025 2.3125 19.125 C2.27933633 20.56122952 2.24484755 21.9974291 2.20898438 23.43359375 C2.12394036 26.95551129 2.05718127 30.47750759 2 34 C1.67 34 1.34 34 1 34 C0.67 22.78 0.34 11.56 0 0 Z " fill="#4090B4" transform="translate(519,342)"/>
<path d="M0 0 C1.66666667 1.66666667 3.33333333 3.33333333 5 5 C5.928125 5.886875 6.85625 6.77375 7.8125 7.6875 C10 10 10 10 10 12 C10.99 12.33 11.98 12.66 13 13 C15.6875 15.375 15.6875 15.375 18 18 C18 18.99 18 19.98 18 21 C13.31792178 17.25433742 9.14556906 13.19046837 5.0625 8.8125 C4.56580811 8.28946289 4.06911621 7.76642578 3.55737305 7.22753906 C0 3.35626188 0 3.35626188 0 0 Z " fill="#F53320" transform="translate(72,260)"/>
<path d="M0 0 C5.41836363 4.46218182 8.53076775 10.48345475 11 17 C10.67 17.99 10.34 18.98 10 20 C9.34 18.02 8.68 16.04 8 14 C7.34 14 6.68 14 6 14 C5.5875 13.13375 5.175 12.2675 4.75 11.375 C3.02167851 8.04180856 1.12923592 5.08372099 -1 2 C-0.67 1.34 -0.34 0.68 0 0 Z " fill="#D46242" transform="translate(482,264)"/>
<path d="M0 0 C2 1 4 2 6 3 C6 3.66 6 4.32 6 5 C6.66 5 7.32 5 8 5 C9.54091405 6.69588264 11.00923297 8.45821672 12.4375 10.25 C13.21996094 11.22453125 14.00242187 12.1990625 14.80859375 13.203125 C16.5683617 15.44910335 18.30216098 17.70709843 20 20 C19.01 20 18.02 20 17 20 C15.01953125 17.875 15.01953125 17.875 12.8125 15 C9.2648334 10.49853452 5.57535442 6.4170052 1.43359375 2.4609375 C0 1 0 1 0 0 Z " fill="#0867B0" transform="translate(524,462)"/>
<path d="M0 0 C3.38805122 2.70841221 4.60745404 6.3889955 6.125 10.3125 C6.38925781 10.96412109 6.65351562 11.61574219 6.92578125 12.28710938 C8.45819835 16.17260351 9.47343751 19.8581365 10 24 C9.34 24 8.68 24 8 24 C7.03899895 21.31342788 6.08113751 18.62580289 5.125 15.9375 C4.85558594 15.18533203 4.58617187 14.43316406 4.30859375 13.65820312 C2.70509109 9.14101879 1.26490914 4.62367272 0 0 Z " fill="#0859A2" transform="translate(560,509)"/>
<path d="M0 0 C-2.72571327 1.63084542 -5.45615252 3.25361139 -8.1875 4.875 C-8.95642578 5.33519531 -9.72535156 5.79539062 -10.51757812 6.26953125 C-14.26306993 8.4878912 -17.87015924 10.55993529 -22 12 C-18.86355741 8.68433212 -16.00075514 6.18223008 -12 4 C-11.27039063 3.56171875 -10.54078125 3.1234375 -9.7890625 2.671875 C-8.99242188 2.20265625 -8.19578125 1.7334375 -7.375 1.25 C-6.24191406 0.57710938 -6.24191406 0.57710938 -5.0859375 -0.109375 C-3 -1 -3 -1 0 0 Z " fill="#464783" transform="translate(87,396)"/>
<path d="M0 0 C0.66 0.33 1.32 0.66 2 1 C1.53102295 1.43868408 1.0620459 1.87736816 0.57885742 2.3293457 C-1.5520892 4.3232031 -3.68230171 6.31784313 -5.8125 8.3125 C-6.91948242 9.34793945 -6.91948242 9.34793945 -8.04882812 10.40429688 C-8.76103516 11.07138672 -9.47324219 11.73847656 -10.20703125 12.42578125 C-10.8616333 13.03848877 -11.51623535 13.65119629 -12.19067383 14.2824707 C-13.82094802 15.83003229 -15.41921514 17.40210245 -17 19 C-16.41951032 15.75856669 -15.50366147 14.13351208 -13.1640625 11.8359375 C-12.59429687 11.27132813 -12.02453125 10.70671875 -11.4375 10.125 C-10.839375 9.5475 -10.24125 8.97 -9.625 8.375 C-9.03460938 7.78976562 -8.44421875 7.20453125 -7.8359375 6.6015625 C-5.29580555 4.10719869 -2.978099 1.98539933 0 0 Z " fill="#5E4777" transform="translate(53,372)"/>
<path d="M0 0 C4.35970831 1.34849837 8.31341438 3.04907846 12.375 5.125 C13.43460937 5.66382813 14.49421875 6.20265625 15.5859375 6.7578125 C16.38257813 7.16773438 17.17921875 7.57765625 18 8 C18 8.66 18 9.32 18 10 C13.5240285 8.58078953 9.24573759 6.99799416 5 5 C4.67 4.34 4.34 3.68 4 3 C2.35 3 0.7 3 -1 3 C-0.67 2.01 -0.34 1.02 0 0 Z " fill="#FC640D" transform="translate(429,228)"/>
<path d="M0 0 C0.99 0.33 1.98 0.66 3 1 C3.52386436 2.96449137 4.03884484 4.93303162 4.4609375 6.921875 C5.16056254 9.61898023 6.42988615 11.71619803 8 14 C7.01 15.485 7.01 15.485 6 17 C4.80283341 14.54595776 3.6170654 12.08748321 2.4375 9.625 C2.09525391 8.92632812 1.75300781 8.22765625 1.40039062 7.5078125 C0.53969288 5.69947784 -0.23652436 3.85148044 -1 2 C-0.67 1.34 -0.34 0.68 0 0 Z " fill="#BF5F4E" transform="translate(507,280)"/>
<path d="M0 0 C0.33 0.66 0.66 1.32 1 2 C-0.10727082 4.22654458 -1.25692787 6.26938811 -2.5625 8.375 C-2.89830078 8.9525 -3.23410156 9.53 -3.58007812 10.125 C-6.19899853 14.39720535 -8.77139331 16.53685177 -13 19 C-11.41213857 15.51164121 -9.33428426 12.57981181 -7.0625 9.5 C-6.02802734 8.09234375 -6.02802734 8.09234375 -4.97265625 6.65625 C-3.32135177 4.43271129 -1.66512173 2.21320254 0 0 Z " fill="#F95B15" transform="translate(552,219)"/>
<path d="M0 0 C0.10054688 0.70769531 0.20109375 1.41539062 0.3046875 2.14453125 C1.34304652 6.40880339 3.61225313 9.81441259 5.8203125 13.57421875 C6.20960938 14.37472656 6.59890625 15.17523438 7 16 C6.67 16.66 6.34 17.32 6 18 C4.51678092 15.73172355 3.03832301 13.46058097 1.5625 11.1875 C1.14162109 10.54490234 0.72074219 9.90230469 0.28710938 9.24023438 C-1.47722704 6.51609896 -2.9691739 4.09247829 -4 1 C-2 0 -2 0 0 0 Z " fill="#D3573B" transform="translate(500,263)"/>
<path d="M0 0 C0.33 0.99 0.66 1.98 1 3 C-0.50160783 5.4859295 -2.02292807 7.74322171 -3.75 10.0625 C-4.20632813 10.69994141 -4.66265625 11.33738281 -5.1328125 11.99414062 C-7.31993236 14.99352898 -8.85304243 16.90202829 -12 19 C-10.42686828 14.27156386 -7.79358765 10.6566157 -4.875 6.6875 C-4.17310547 5.71973633 -4.17310547 5.71973633 -3.45703125 4.73242188 C-2.3094071 3.15151106 -1.15534523 1.57527699 0 0 Z " fill="#D5582E" transform="translate(575,248)"/>
<path d="M0 0 C4.3620323 0.56284288 7.90621046 2.25588413 11.81640625 4.16015625 C14.23230808 5.23931939 14.23230808 5.23931939 18 5 C18 6.32 18 7.64 18 9 C13.64029169 7.65150163 9.68658562 5.95092154 5.625 3.875 C4.56539063 3.33617187 3.50578125 2.79734375 2.4140625 2.2421875 C1.61742187 1.83226562 0.82078125 1.42234375 0 1 C0 0.67 0 0.34 0 0 Z " fill="#FC5413" transform="translate(437,209)"/>
<path d="M0 0 C1.31333653 3.94000959 0.25795008 6.76412242 -0.8125 10.625 C-0.99103516 11.31851563 -1.16957031 12.01203125 -1.35351562 12.7265625 C-1.83437273 14.50417144 -2.410801 16.25530472 -3 18 C-3.66 18.33 -4.32 18.66 -5 19 C-4.5464821 11.97047248 -2.87940913 6.4150557 0 0 Z " fill="#FD3412" transform="translate(193,172)"/>
<path d="M0 0 C1.32 0.33 2.64 0.66 4 1 C3.525625 1.598125 3.05125 2.19625 2.5625 2.8125 C0.83534256 5.00382924 0.83534256 5.00382924 0 8 C-0.66 8 -1.32 8 -2 8 C-1.67 8.99 -1.34 9.98 -1 11 C-1.99 11.99 -2.98 12.98 -4 14 C-5.06528748 11.26980214 -5.07998186 10.20701188 -4.00390625 7.421875 C-3.52824219 6.54015625 -3.05257812 5.6584375 -2.5625 4.75 C-2.08941406 3.85796875 -1.61632812 2.9659375 -1.12890625 2.046875 C-0.75636719 1.37140625 -0.38382813 0.6959375 0 0 Z " fill="#FC4519" transform="translate(198,160)"/>
<path d="M0 0 C0.66 0.33 1.32 0.66 2 1 C-0.31 2.32 -2.62 3.64 -5 5 C-5 5.66 -5 6.32 -5 7 C-9.43076923 9.09230769 -9.43076923 9.09230769 -12.3125 8.625 C-12.869375 8.41875 -13.42625 8.2125 -14 8 C-12.42648119 4.85296239 -9.69798338 4.2583253 -6.5625 2.8125 C-4.80099609 1.98685547 -4.80099609 1.98685547 -3.00390625 1.14453125 C-2.01261719 0.76683594 -1.02132813 0.38914062 0 0 Z " fill="#0658B3" transform="translate(362,579)"/>
<path d="M0 0 C0 3 0 3 -1.19335938 4.53393555 C-1.73798828 5.062854 -2.28261719 5.59177246 -2.84375 6.13671875 C-3.72353516 7.00200195 -3.72353516 7.00200195 -4.62109375 7.88476562 C-5.24113281 8.47966797 -5.86117188 9.07457031 -6.5 9.6875 C-7.12003906 10.29400391 -7.74007813 10.90050781 -8.37890625 11.52539062 C-9.91264707 13.02373743 -11.45548198 14.51276493 -13 16 C-13.66 15.67 -14.32 15.34 -15 15 C-14.29875 14.319375 -13.5975 13.63875 -12.875 12.9375 C-10.76854929 10.84298385 -8.84033096 8.65549207 -6.9375 6.375 C-4.82297178 3.86707118 -2.76716181 1.8092981 0 0 Z " fill="#027FD0" transform="translate(446,518)"/>
<path d="M0 0 C3.03656917 2.5988655 4.46163739 5.62071728 6.1875 9.1875 C6.71730469 10.27417969 7.24710938 11.36085938 7.79296875 12.48046875 C8.19128906 13.31191406 8.58960938 14.14335938 9 15 C8.34 15.66 7.68 16.32 7 17 C5.82592979 14.73272667 4.66060261 12.46165376 3.5 10.1875 C3.16613281 9.54490234 2.83226562 8.90230469 2.48828125 8.24023438 C0.99760916 5.30452301 0 3.33873483 0 0 Z " fill="#0958A5" transform="translate(532,529)"/>
<path d="M0 0 C5.52706913 0.72724594 10.69960141 2.33445973 16 4 C12.98849505 4.90550946 10.56229013 5.06723758 7.4375 4.75 C6.67308594 4.68296875 5.90867187 4.6159375 5.12109375 4.546875 C2.60986146 3.89941179 1.61157166 2.997731 0 1 C0 0.67 0 0.34 0 0 Z " fill="#074FAF" transform="translate(295,588)"/>
<path d="M0 0 C2.64 0.33 5.28 0.66 8 1 C8 1.99 8 2.98 8 4 C8.99 4.33 9.98 4.66 11 5 C10.01 5.33 9.02 5.66 8 6 C7.34 5.34 6.68 4.68 6 4 C5.01 4 4.02 4 3 4 C1.32900023 3.68911632 -0.33871537 3.35919668 -2 3 C-1.34 2.01 -0.68 1.02 0 0 Z " fill="#F9771C" transform="translate(574,190)"/>
<path d="M0 0 C0.99 0.495 0.99 0.495 2 1 C3.74451341 6.52429247 4.20612487 11.22850374 4 17 C2.14223235 13.86501708 1.79859524 11.62528568 2 8 C1.34 8 0.68 8 0 8 C0 5.36 0 2.72 0 0 Z " fill="#976663" transform="translate(497,298)"/>
<path d="M0 0 C2.64 0 5.28 0 8 0 C7 2 7 2 4.5625 3.125 C-0.01806438 4.2500509 -4.30960202 4.1668521 -9 4 C-9 3.67 -9 3.34 -9 3 C-4.545 2.505 -4.545 2.505 0 2 C0 1.34 0 0.68 0 0 Z " fill="#0D3C8D" transform="translate(327,593)"/>
<path d="M0 0 C1.45606519 4.52092968 0.27032841 7.51648796 -1 12 C-2.65 11.67 -4.3 11.34 -6 11 C-6 10.34 -6 9.68 -6 9 C-5.01 8.67 -4.02 8.34 -3 8 C-1.82917122 5.07085835 -1.82917122 5.07085835 -1 2 C-0.67 1.34 -0.34 0.68 0 0 Z " fill="#E83931" transform="translate(127,292)"/>
<path d="M0 0 C4.70941985 0.46170783 8.24046771 1.01448906 12 4 C12.8125 6.1875 12.8125 6.1875 13 8 C9.8862404 6.50078242 6.96200977 4.77720586 4 3 C2.67391178 2.31903578 1.34313399 1.64669414 0 1 C0 0.67 0 0.34 0 0 Z " fill="#FB681C" transform="translate(443,237)"/>
<path d="M0 0 C0.81210937 0.33837891 0.81210937 0.33837891 1.640625 0.68359375 C-0.10060049 1.71932271 -1.85274095 2.73671895 -3.609375 3.74609375 C-5.07117188 4.59880859 -5.07117188 4.59880859 -6.5625 5.46875 C-9.359375 6.68359375 -9.359375 6.68359375 -11.71875 6.3671875 C-12.26015625 6.14160156 -12.8015625 5.91601562 -13.359375 5.68359375 C-11.61814951 4.64786479 -9.86600905 3.63046855 -8.109375 2.62109375 C-6.64757812 1.76837891 -6.64757812 1.76837891 -5.15625 0.8984375 C-2.359375 -0.31640625 -2.359375 -0.31640625 0 0 Z " fill="#094699" transform="translate(368.359375,578.31640625)"/>
<path d="M0 0 C0.66 0.33 1.32 0.66 2 1 C0.54875366 4.82601307 -1.35774704 6.22329124 -5 8 C-5.99 8 -6.98 8 -8 8 C-8 7.34 -8 6.68 -8 6 C-7.195625 5.731875 -6.39125 5.46375 -5.5625 5.1875 C-4.716875 4.795625 -3.87125 4.40375 -3 4 C-2.67 3.01 -2.34 2.02 -2 1 C-1.34 0.67 -0.68 0.34 0 0 Z " fill="#BD6755" transform="translate(543,283)"/>
<path d="M0 0 C0.33 0.66 0.66 1.32 1 2 C1.66 2.33 2.32 2.66 3 3 C1.02 5.97 -0.96 8.94 -3 12 C-3 8.98509443 -2.48047265 7.13135886 -1.5 4.3125 C-1.2215625 3.50425781 -0.943125 2.69601563 -0.65625 1.86328125 C-0.4396875 1.24839844 -0.223125 0.63351563 0 0 Z " fill="#F77424" transform="translate(554,214)"/>
<path d="M0 0 C0.81404297 0.61488281 0.81404297 0.61488281 1.64453125 1.2421875 C2.35996094 1.78101563 3.07539062 2.31984375 3.8125 2.875 C4.52019531 3.40867187 5.22789063 3.94234375 5.95703125 4.4921875 C7.60456297 5.70814781 9.29624211 6.86416141 11 8 C8.8125 8.3125 8.8125 8.3125 6 8 C2.95424358 5.43879574 1.26493447 3.79480342 0 0 Z " fill="#3C427E" transform="translate(32,410)"/>
<path d="M0 0 C0.33 0.99 0.66 1.98 1 3 C3.64 3.33 6.28 3.66 9 4 C9 4.33 9 4.66 9 5 C4.545 5.495 4.545 5.495 0 6 C0 4.02 0 2.04 0 0 Z " fill="#2089BA" transform="translate(519,382)"/>
<path d="M0 0 C-0.11362262 1.4800841 -0.24122908 2.95910074 -0.375 4.4375 C-0.47941406 5.67306641 -0.47941406 5.67306641 -0.5859375 6.93359375 C-0.72257812 7.61550781 -0.85921875 8.29742187 -1 9 C-1.99 9.495 -1.99 9.495 -3 10 C-3 7.03 -3 4.06 -3 1 C-1 0 -1 0 0 0 Z " fill="#6D889C" transform="translate(504,328)"/>
<path d="M0 0 C0.66 0 1.32 0 2 0 C0.66511872 3.59391114 -0.96022723 6.75490696 -3 10 C-3.66 9.34 -4.32 8.68 -5 8 C-4.54625 7.4225 -4.0925 6.845 -3.625 6.25 C-2.15886484 4.2199667 -1.05142216 2.26460157 0 0 Z " fill="#E56027" transform="translate(580,239)"/>
<path d="M0 0 C5.57142857 5.14285714 5.57142857 5.14285714 6 9 C0.42857143 3.85714286 0.42857143 3.85714286 0 0 Z " fill="#113890" transform="translate(179,499)"/>
<path d="M0 0 C0 0.66 0 1.32 0 2 C-1.96466413 3.06775224 -3.96855359 4.06553465 -6 5 C-6.66 4.67 -7.32 4.34 -8 4 C-8 3.34 -8 2.68 -8 2 C-4.77208445 -0.1519437 -3.71599191 -0.20086443 0 0 Z " fill="#FD541C" transform="translate(184,244)"/>
<path d="M0 0 C2 0 2 0 4.125 2 C4.74375 2.66 5.3625 3.32 6 4 C5.67 4.66 5.34 5.32 5 6 C3.68 5.67 2.36 5.34 1 5 C0.67 3.35 0.34 1.7 0 0 Z " fill="#0D4DAF" transform="translate(210,533)"/>
<path d="M0 0 C0.33 0 0.66 0 1 0 C1.33 3.3 1.66 6.6 2 10 C1.01 10 0.02 10 -1 10 C-0.67 6.7 -0.34 3.4 0 0 Z " fill="#1398CA" transform="translate(501,385)"/>
<path d="M0 0 C0.99 0.33 1.98 0.66 3 1 C2.01 1.495 2.01 1.495 1 2 C1.33 2.66 1.66 3.32 2 4 C0.02 4.99 0.02 4.99 -2 6 C-2.66 5.34 -3.32 4.68 -4 4 C-2.68 2.68 -1.36 1.36 0 0 Z " fill="#0563BA" transform="translate(397,559)"/>
</svg>
