<?xml version="1.0" encoding="UTF-8"?>
<svg version="1.1" xmlns="http://www.w3.org/2000/svg" width="256" height="256">
<path d="M0 0 C-0.62003906 0.82757812 -1.24007812 1.65515625 -1.87890625 2.5078125 C-9.5100969 12.76553198 -16.72306143 23.28570745 -23.88427734 33.875 C-26.10117205 37.14943483 -28.3251279 40.41901723 -30.55078125 43.6875 C-41.01197121 59.0567863 -51.36257139 74.49743826 -61.65637207 89.97937012 C-66.41387457 97.13399344 -71.17435431 104.28663241 -75.9375 111.4375 C-76.49325714 112.27189606 -77.04901428 113.10629211 -77.62161255 113.9659729 C-85.58601263 125.91960039 -93.59686621 137.84000587 -101.68725586 149.70874023 C-108.8166195 160.16962882 -115.82787957 170.70668004 -122.80361938 181.27044678 C-125.0620919 184.6888192 -127.32481383 188.10436757 -129.58813477 191.51953125 C-130.74867895 193.27308179 -131.90717134 195.02799181 -133.0637207 196.78417969 C-134.76229365 199.36237502 -136.46828917 201.93551825 -138.17578125 204.5078125 C-138.68732254 205.28802765 -139.19886383 206.0682428 -139.72590637 206.87210083 C-142.50505321 211.04189671 -145.31272175 214.60057305 -149 218 C-151.50978308 212.57454621 -154.01828681 207.14850343 -156.52563477 201.72192383 C-157.37782692 199.87801346 -158.23036133 198.03426123 -159.08325195 196.19067383 C-160.31292464 193.53248471 -161.54134342 190.87371919 -162.76953125 188.21484375 C-163.14777542 187.39789536 -163.52601959 186.58094696 -163.91572571 185.73924255 C-164.62631045 184.19971678 -165.33111372 182.65750502 -166.02920532 181.11227417 C-166.64711754 179.76780861 -167.28989106 178.43429471 -167.96469116 177.11746216 C-170.71613292 171.51417386 -169.7670788 167.53770144 -168.01953125 161.75634766 C-167.62121094 160.65339355 -167.22289062 159.55043945 -166.8125 158.4140625 C-166.48577553 157.5005603 -166.48577553 157.5005603 -166.15245056 156.56860352 C-165.44129681 154.58505947 -164.72077195 152.60506704 -164 150.625 C-163.49233537 149.21554244 -162.98526384 147.80587113 -162.47875977 146.39599609 C-161.45958693 143.56218661 -160.43677075 140.7297364 -159.41064453 137.8984375 C-158.23163983 134.6440029 -157.0637091 131.38577863 -155.90234375 128.125 C-152.30846582 118.05010832 -148.63908492 108.00282286 -144.96484375 97.95703125 C-144.59823639 96.95305298 -144.23162903 95.94907471 -143.85391235 94.91467285 C-141.918463 89.62209333 -139.96612419 84.33670967 -137.98242188 79.06201172 C-134.14333941 68.81832913 -130.50108473 58.59973819 -127.37890625 48.11328125 C-119.80655436 23.24788676 -119.80655436 23.24788676 -113.60791016 17.95898438 C-107.67758353 15.08164046 -101.53130113 15.22011906 -95.05517578 15.18994141 C-87.7443853 14.999659 -80.56152483 13.17846221 -73.41860962 11.73190308 C-68.82260536 10.81576304 -64.21173158 9.98199342 -59.6015625 9.140625 C-52.63092284 7.85906115 -45.66298987 6.56387803 -38.69737244 5.2552948 C-34.63396997 4.49337321 -30.56928306 3.73847025 -26.50430298 2.98501587 C-24.55208198 2.62167679 -22.60039213 2.25547142 -20.64926147 1.88632202 C-17.93552504 1.37345384 -15.22004448 0.87106171 -12.50390625 0.37109375 C-11.69863495 0.21634583 -10.89336365 0.0615979 -10.06369019 -0.09783936 C-6.3616792 -0.76870755 -3.59951417 -1.08459591 0 0 Z " fill="#005E89" transform="translate(250,19)"/>
<path d="M0 0 C-0.62003906 0.82757812 -1.24007812 1.65515625 -1.87890625 2.5078125 C-9.61665364 12.91061866 -16.91588727 23.59058097 -24.18408203 34.32470703 C-26.9184154 38.35305135 -29.6760899 42.36518716 -32.4375 46.375 C-32.90414062 47.05296631 -33.37078125 47.73093262 -33.8515625 48.42944336 C-34.90064487 49.9532355 -35.9502526 51.47666593 -37 53 C-37.6484375 51.2578125 -37.6484375 51.2578125 -38 49 C-37.0390625 46.9296875 -37.0390625 46.9296875 -35.625 44.875 C-35.16351563 44.19179688 -34.70203125 43.50859375 -34.2265625 42.8046875 C-33.82179688 42.20914063 -33.41703125 41.61359375 -33 41 C-32.505 40.01 -32.505 40.01 -32 39 C-31.34 39 -30.68 39 -30 39 C-29.67 37.68 -29.34 36.36 -29 35 C-28.34 35 -27.68 35 -27 35 C-26.5978125 33.9171875 -26.5978125 33.9171875 -26.1875 32.8125 C-25.00098638 30.00233617 -23.72514361 27.51583443 -22 25 C-21.34 25 -20.68 25 -20 25 C-19.814375 23.7934375 -19.814375 23.7934375 -19.625 22.5625 C-19.41875 21.716875 -19.2125 20.87125 -19 20 C-18.01 19.505 -18.01 19.505 -17 19 C-15.95191959 17.02477154 -14.9479589 15.02518491 -14 13 C-13.34 13 -12.68 13 -12 13 C-12.33 12.34 -12.66 11.68 -13 11 C-13.86882812 11.75925781 -14.73765625 12.51851562 -15.6328125 13.30078125 C-16.79659458 14.30501256 -17.96067289 15.30890065 -19.125 16.3125 C-19.97964844 17.06176758 -19.97964844 17.06176758 -20.8515625 17.82617188 C-23.52665928 20.12128332 -25.87329831 21.93705473 -29.05078125 23.515625 C-32.60498939 25.30449797 -35.22762612 27.70467278 -38.0625 30.4375 C-39.20557189 31.51579175 -40.34880575 32.59391182 -41.4921875 33.671875 C-42.07194336 34.22294922 -42.65169922 34.77402344 -43.24902344 35.34179688 C-46.03794486 37.98295057 -48.86269106 40.58485291 -51.6875 43.1875 C-52.23237061 43.69095947 -52.77724121 44.19441895 -53.33862305 44.71313477 C-56.49470645 47.6264059 -59.67319155 50.51189526 -62.875 53.375 C-69.0050853 58.87128004 -75.00063119 64.51050866 -81.00927734 70.13867188 C-83.0195044 72.01823664 -85.03439237 73.89267348 -87.05078125 75.765625 C-87.71247314 76.38091064 -88.37416504 76.99619629 -89.0559082 77.63012695 C-90.30746956 78.79367194 -91.55984688 79.95634019 -92.81323242 81.11791992 C-95.74750228 83.84906377 -98.6247878 86.61619429 -101.4375 89.47265625 C-104.48410646 92.54347921 -107.68247582 95.38360734 -110.95556641 98.20947266 C-114.45481199 101.27413317 -117.81382221 104.4860367 -121.1875 107.6875 C-126.94918432 113.1367354 -132.74528083 118.5429308 -138.5949707 123.89746094 C-141.77970807 126.82788447 -144.8509516 129.84217773 -147.875 132.9375 C-151.33852272 136.4586414 -154.8798377 139.28244614 -159 142 C-158.45517303 135.54417352 -156.83272204 130.11035903 -154.5625 124.0625 C-154.17980957 123.0216626 -153.79711914 121.9808252 -153.40283203 120.90844727 C-152.48990878 118.4275431 -151.57368226 115.94804575 -150.65380859 113.46972656 C-148.35514465 107.26839269 -146.08865106 101.05523827 -143.82232666 94.84202576 C-141.89891754 89.57524471 -139.95864216 84.31575809 -137.98486328 79.06762695 C-134.14464094 68.82216282 -130.50167349 58.60171563 -127.37890625 48.11328125 C-119.80655436 23.24788676 -119.80655436 23.24788676 -113.60791016 17.95898438 C-107.67758353 15.08164046 -101.53130113 15.22011906 -95.05517578 15.18994141 C-87.7443853 14.999659 -80.56152483 13.17846221 -73.41860962 11.73190308 C-68.82260536 10.81576304 -64.21173158 9.98199342 -59.6015625 9.140625 C-52.63092284 7.85906115 -45.66298987 6.56387803 -38.69737244 5.2552948 C-34.63396997 4.49337321 -30.56928306 3.73847025 -26.50430298 2.98501587 C-24.55208198 2.62167679 -22.60039213 2.25547142 -20.64926147 1.88632202 C-17.93552504 1.37345384 -15.22004448 0.87106171 -12.50390625 0.37109375 C-11.69863495 0.21634583 -10.89336365 0.0615979 -10.06369019 -0.09783936 C-6.3616792 -0.76870755 -3.59951417 -1.08459591 0 0 Z " fill="#18B8A8" transform="translate(250,19)"/>
<path d="M0 0 C5.9575222 1.89852772 11.72777965 4.04583857 17.46875 6.51953125 C18.25507813 6.85424942 19.04140625 7.18896759 19.8515625 7.53382874 C24.18483915 9.38075515 28.50876294 11.24882092 32.83007812 13.12353516 C41.38177094 16.8223943 49.92094847 20.40553012 58.6875 23.56640625 C82.55093847 32.32176228 82.55093847 32.32176228 86.84960938 41.20556641 C87.97221498 44.30003727 88.75224628 47.35119619 89.35473633 50.58520508 C90.12122522 53.45366579 91.43511342 55.71039486 92.87109375 58.3046875 C94.93363375 62.71582717 95.21245804 65.18494284 93.86328125 69.87109375 C93.05275493 72.0749187 92.19921442 74.26321049 91.3125 76.4375 C90.61185613 78.30027849 89.91131454 80.16309675 89.21324158 82.02684021 C88.42367292 84.11702967 87.61610837 86.19966883 86.80664062 88.28222656 C84.74360881 93.62522144 82.80027308 99.01010535 80.859375 104.3984375 C80.5051799 105.38097 80.1509848 106.3635025 79.78605652 107.37580872 C79.06858254 109.36607965 78.35119055 111.35638014 77.63388062 113.34671021 C75.914459 118.10640344 74.17924972 122.86028854 72.44140625 127.61328125 C71.98716278 128.85705032 71.98716278 128.85705032 71.52374268 130.12594604 C69.70680407 135.09328217 67.86341061 140.04990619 66 145 C62.80233563 142.04299609 61.39031545 138.71727458 59.75 134.75 C57.27811677 128.85644589 54.64085017 123.05689366 51.92498779 117.27139282 C47.86106148 108.59644781 43.93958438 99.85690342 40 91.125 C38.31302786 87.38908437 36.62537376 83.65347711 34.9375 79.91796875 C34.51839355 78.99027176 34.09928711 78.06257477 33.66748047 77.10676575 C31.05835021 71.33389353 28.44040358 65.56513064 25.8125 59.80078125 C25.48888992 59.09084518 25.16527985 58.38090912 24.8318634 57.64945984 C24.19738146 56.25764331 23.5628857 54.86583307 22.92837524 53.47402954 C22.62201141 52.80197479 22.31564758 52.12992004 22 51.4375 C21.69565033 50.7698764 21.39130066 50.10225281 21.07772827 49.41439819 C16.46268129 39.28436156 11.93134493 29.12115453 7.49804688 18.90991211 C5.66868525 14.7105965 3.80882927 10.57065872 1.69921875 6.50390625 C0 3 0 3 0 0 Z " fill="#004FAA" transform="translate(6,42)"/>
<path d="M0 0 C5.11034383 0.55317524 9.32761888 1.72913535 14.06640625 3.703125 C14.73045471 3.97745361 15.39450317 4.25178223 16.07867432 4.53442383 C18.2434227 5.43151433 20.40296926 6.34042936 22.5625 7.25 C24.06905897 7.87774826 25.57581622 8.50502083 27.08276367 9.13183594 C40.85642309 14.87732405 54.55206251 20.80519448 68.21801758 26.80175781 C70.9625946 28.03070457 70.9625946 28.03070457 73.73706055 28.91137695 C76.50339726 30.24216726 76.96927692 31.14248498 78.0625 33.96484375 C78.3826709 34.75898682 78.7028418 35.55312988 79.03271484 36.37133789 C79.35191895 37.21817139 79.67112305 38.06500488 80 38.9375 C80.67670255 40.68605396 81.35637429 42.43346183 82.0390625 44.1796875 C82.36680664 45.01983398 82.69455078 45.85998047 83.03222656 46.72558594 C84.21845061 49.51339201 85.78533673 51.98837521 87.375 54.5625 C90.26454151 60.61997738 87.75054471 66.08242172 85.74169922 72.07250977 C84.1200087 76.35617728 84.1200087 76.35617728 83 78 C80.26178395 79.08842802 79.20044407 79.05593788 76.3125 78.25 C74 77 74 77 73 74 C71.6774633 73.3121636 70.34268552 72.64762475 69 72 C67.46923828 70.44799805 67.46923828 70.44799805 65.9453125 68.57421875 C61.23544038 63.01154579 56.04683404 57.93887679 50.875 52.8125 C49.88908623 51.83161806 48.90340779 50.85049951 47.91796875 49.86914062 C46.10544559 48.06469432 44.29134218 46.26189548 42.47607422 44.46020508 C40.75449949 42.74966391 39.04190836 41.03005297 37.33642578 39.3034668 C35.06844651 36.97357268 35.06844651 36.97357268 32.5625 35.125 C30.443446 33.36773571 28.91785153 31.78730497 27.1875 29.6875 C23.19595525 24.9017193 18.45268259 21.06541691 13.69921875 17.0625 C8.08931533 12.23515454 2.3956355 7.1869065 0 0 Z " fill="#008DD8" transform="translate(12,46)"/>
<path d="M0 0 C-0.62003906 0.82757812 -1.24007812 1.65515625 -1.87890625 2.5078125 C-9.61665364 12.91061866 -16.91588727 23.59058097 -24.18408203 34.32470703 C-26.9184154 38.35305135 -29.6760899 42.36518716 -32.4375 46.375 C-32.90414062 47.05296631 -33.37078125 47.73093262 -33.8515625 48.42944336 C-34.90064487 49.9532355 -35.9502526 51.47666593 -37 53 C-37.6484375 51.2578125 -37.6484375 51.2578125 -38 49 C-37.0390625 46.9296875 -37.0390625 46.9296875 -35.625 44.875 C-34.93277344 43.85019531 -34.93277344 43.85019531 -34.2265625 42.8046875 C-33.82179687 42.20914063 -33.41703125 41.61359375 -33 41 C-32.67 40.34 -32.34 39.68 -32 39 C-31.34 39 -30.68 39 -30 39 C-29.67 37.68 -29.34 36.36 -29 35 C-28.34 35 -27.68 35 -27 35 C-26.5978125 33.9171875 -26.5978125 33.9171875 -26.1875 32.8125 C-25.00098638 30.00233617 -23.72514361 27.51583443 -22 25 C-21.34 25 -20.68 25 -20 25 C-19.87625 24.195625 -19.7525 23.39125 -19.625 22.5625 C-19.41875 21.716875 -19.2125 20.87125 -19 20 C-18.34 19.67 -17.68 19.34 -17 19 C-15.95191959 17.02477154 -14.9479589 15.02518491 -14 13 C-13.34 13 -12.68 13 -12 13 C-12.33 12.34 -12.66 11.68 -13 11 C-13.89203125 11.78246094 -14.7840625 12.56492187 -15.703125 13.37109375 C-16.88509971 14.39359568 -18.06740897 15.41571096 -19.25 16.4375 C-19.83652344 16.95376953 -20.42304688 17.47003906 -21.02734375 18.00195312 C-21.60097656 18.49501953 -22.17460937 18.98808594 -22.765625 19.49609375 C-23.28930664 19.95169678 -23.81298828 20.4072998 -24.35253906 20.87670898 C-26.21015148 22.14328793 -27.80540019 22.58068958 -30 23 C-26.04727308 19.00977093 -22.02212545 15.10505478 -17.9375 11.25 C-17.02000977 10.36634766 -17.02000977 10.36634766 -16.08398438 9.46484375 C-15.48779297 8.90410156 -14.89160156 8.34335937 -14.27734375 7.765625 C-13.74359131 7.25805664 -13.20983887 6.75048828 -12.65991211 6.22753906 C-10.79253884 4.84657822 -9.26781455 4.41328322 -7 4 C-7 3.34 -7 2.68 -7 2 C-7.99 1.34 -8.98 0.68 -10 0 C-6.26432828 -0.76411467 -3.65188082 -1.07174763 0 0 Z " fill="#1C8E6E" transform="translate(250,19)"/>
<path d="M0 0 C-1.35273151 4.05819454 -3.44428705 4.68087575 -7 7 C-9.20397712 8.85479853 -11.28651536 10.82939331 -13.375 12.8125 C-14.51632191 13.87955391 -15.65824751 14.94596249 -16.80078125 16.01171875 C-17.34814941 16.52395996 -17.89551758 17.03620117 -18.45947266 17.56396484 C-20.47329228 19.44118941 -22.50716948 21.29332646 -24.5625 23.125 C-25.43068359 23.90230469 -25.43068359 23.90230469 -26.31640625 24.6953125 C-28.11777154 26.09126612 -29.93333596 27.05032943 -32 28 C-32 27.34 -32 26.68 -32 26 C-31.34 26 -30.68 26 -30 26 C-30 25.34 -30 24.68 -30 24 C-28.6015625 22.58984375 -28.6015625 22.58984375 -26.625 20.9375 C-22.47079964 17.41048797 -18.42582271 13.77986783 -14.39453125 10.11328125 C-11.99011391 7.99127508 -9.51988903 5.98279012 -7 4 C-12.43011049 3.8765884 -16.39343481 4.75423752 -21.4375 6.625 C-25.20646145 7.91196245 -27.11445572 7.77710886 -31 7 C-33.33684918 7.64864747 -35.57886291 8.46640332 -37.85546875 9.30078125 C-40.3320343 10.10825891 -42.41152267 10.14791299 -45 10 C-46.33841672 10.31229724 -47.67139075 10.64830932 -49 11 C-52.625 11.6875 -52.625 11.6875 -56 12 C-56.66 11.34 -57.32 10.68 -58 10 C-57.34773437 9.96261719 -56.69546875 9.92523438 -56.0234375 9.88671875 C-55.14945313 9.82097656 -54.27546875 9.75523438 -53.375 9.6875 C-52.08722656 9.60048828 -52.08722656 9.60048828 -50.7734375 9.51171875 C-47.91202156 9.12586793 -47.91202156 9.12586793 -45.27880859 7.56835938 C-41.74427462 5.87767834 -38.61072497 5.1220162 -34.765625 4.39453125 C-34.08755798 4.26559982 -33.40949097 4.1366684 -32.71087646 4.00382996 C-31.28301718 3.73483751 -29.85430005 3.4703629 -28.42480469 3.21020508 C-26.26741619 2.81568489 -24.11432112 2.40208772 -21.9609375 1.98632812 C-14.57741629 0.59592063 -7.54300664 -0.3327797 0 0 Z " fill="#50B772" transform="translate(244,20)"/>
<path d="M0 0 C0.99 0.33 1.98 0.66 3 1 C2.46375 1.47566406 1.9275 1.95132813 1.375 2.44140625 C-8.48504733 11.24733668 -18.33904319 20.14983091 -27.5625 29.625 C-30.77313314 32.89998881 -34.18601061 35.45734041 -38 38 C-37.47497829 30.99971056 -35.4212414 25.03751623 -32.9375 18.5 C-32.37192383 16.98019531 -32.37192383 16.98019531 -31.79492188 15.4296875 C-30.87093913 12.95013886 -29.9391731 10.47382599 -29 8 C-26.96875 11.6796875 -26.96875 11.6796875 -27.25 14.5625 C-28 17 -28 17 -30 20 C-29.938125 21.1446875 -29.938125 21.1446875 -29.875 22.3125 C-30.04883071 26.04986032 -31.80825092 28.05483718 -34 31 C-32.2446735 29.61087093 -30.49596093 28.21338227 -28.75 26.8125 C-27.28820312 25.64654297 -27.28820312 25.64654297 -25.796875 24.45703125 C-23.15305653 22.13445888 -21.18495012 19.74103963 -19 17 C-17.39121494 15.64234237 -15.74377381 14.32928412 -14.0625 13.0625 C-10.09408313 9.9740111 -7.10370783 6.92527755 -4 3 C-1.875 1.0625 -1.875 1.0625 0 0 Z " fill="#017DB7" transform="translate(129,123)"/>
<path d="M0 0 C0 0.66 0 1.32 0 2 C-0.65484375 2.37898438 -1.3096875 2.75796875 -1.984375 3.1484375 C-6.25722128 5.77192084 -9.63922097 9.16700148 -13.25 12.625 C-14.00563232 13.34123535 -14.76126465 14.0574707 -15.53979492 14.79541016 C-20.20769243 19.23476001 -24.79676786 23.73169524 -29.23828125 28.3984375 C-31 30 -31 30 -32.87109375 30.87109375 C-36.04159324 32.55233109 -38.28923265 35.12673957 -40.75 37.6875 C-44.7329475 41.75750647 -48.76949726 45.63948821 -53.109375 49.33203125 C-56.57009817 52.38518992 -59.77684187 55.69969181 -63 59 C-63.66 58.34 -64.32 57.68 -65 57 C-64.09121094 56.15179688 -63.18242187 55.30359375 -62.24609375 54.4296875 C-61.64643799 53.86999268 -61.04678223 53.31029785 -60.42895508 52.73364258 C-59.08380497 51.47820212 -57.73858846 50.22283281 -56.39331055 48.9675293 C-52.95599548 45.75992689 -49.51958333 42.55137399 -46.0859375 39.33984375 C-35.96030652 29.87214428 -25.7953498 20.4508537 -15.45703125 11.21484375 C-13.71022512 9.64021883 -11.98008837 8.04701552 -10.26171875 6.44140625 C-9.37097656 5.61511719 -8.48023438 4.78882813 -7.5625 3.9375 C-6.75941406 3.18339844 -5.95632812 2.42929687 -5.12890625 1.65234375 C-3 0 -3 0 0 0 Z " fill="#028C84" transform="translate(222,42)"/>
<path d="M0 0 C0 3.78701211 -1.14499734 5.0702645 -3.25390625 8.19140625 C-3.94419922 9.21943359 -4.63449219 10.24746094 -5.34570312 11.30664062 C-6.07724609 12.38107422 -6.80878906 13.45550781 -7.5625 14.5625 C-8.26697266 15.60986328 -8.97144531 16.65722656 -9.69726562 17.73632812 C-11.78550196 20.83307675 -13.88899381 23.9187362 -16 27 C-16.67788574 27.99241699 -17.35577148 28.98483398 -18.05419922 30.00732422 C-18.68471191 30.92143066 -19.31522461 31.83553711 -19.96484375 32.77734375 C-20.52679443 33.59323975 -21.08874512 34.40913574 -21.66772461 35.24975586 C-22.10737549 35.82733643 -22.54702637 36.40491699 -23 37 C-23.33 37 -23.66 37 -24 37 C-24 35.35 -24 33.7 -24 32 C-23.34 32 -22.68 32 -22 32 C-21.34 30.02 -20.68 28.04 -20 26 C-19.34 26 -18.68 26 -18 26 C-17.7525 25.113125 -17.505 24.22625 -17.25 23.3125 C-15.74346596 19.3201848 -13.91875337 15.95937668 -10 14 C-9.40929986 12.05396726 -9.40929986 12.05396726 -9 10 C-8.67 9.34 -8.34 8.68 -8 8 C-7.34 8 -6.68 8 -6 8 C-5.7525 7.05125 -5.505 6.1025 -5.25 5.125 C-4 2 -4 2 -1.875 0.625 C-1.25625 0.41875 -0.6375 0.2125 0 0 Z " fill="#087C78" transform="translate(211,72)"/>
<path d="M0 0 C-1.4288221 1.98597286 -2.86729472 3.96350644 -4.3125 5.9375 C-4.71662109 6.50146484 -5.12074219 7.06542969 -5.53710938 7.64648438 C-8.66015625 11.88671875 -8.66015625 11.88671875 -12 13 C-12.33 12.34 -12.66 11.68 -13 11 C-13.89203125 11.78246094 -14.7840625 12.56492187 -15.703125 13.37109375 C-16.88509971 14.39359568 -18.06740897 15.41571096 -19.25 16.4375 C-19.83652344 16.95376953 -20.42304688 17.47003906 -21.02734375 18.00195312 C-21.60097656 18.49501953 -22.17460937 18.98808594 -22.765625 19.49609375 C-23.28930664 19.95169678 -23.81298828 20.4072998 -24.35253906 20.87670898 C-26.21015148 22.14328793 -27.80540019 22.58068958 -30 23 C-26.04727308 19.00977093 -22.02212545 15.10505478 -17.9375 11.25 C-17.02000977 10.36634766 -17.02000977 10.36634766 -16.08398438 9.46484375 C-15.48779297 8.90410156 -14.89160156 8.34335937 -14.27734375 7.765625 C-13.74359131 7.25805664 -13.20983887 6.75048828 -12.65991211 6.22753906 C-10.79253884 4.84657822 -9.26781455 4.41328322 -7 4 C-7 3.34 -7 2.68 -7 2 C-7.99 1.34 -8.98 0.68 -10 0 C-6.26432828 -0.76411467 -3.65188082 -1.07174763 0 0 Z " fill="#0E9C7C" transform="translate(250,19)"/>
<path d="M0 0 C0.99 0.33 1.98 0.66 3 1 C2.46375 1.47566406 1.9275 1.95132813 1.375 2.44140625 C-9.68431027 12.31838894 -20.66664818 22.36072658 -31 33 C-31.33 32.01 -31.66 31.02 -32 30 C-31.19175781 29.26394531 -30.38351563 28.52789062 -29.55078125 27.76953125 C-28.47129779 26.78391591 -27.39187388 25.79823535 -26.3125 24.8125 C-25.51682617 24.08836914 -25.51682617 24.08836914 -24.70507812 23.34960938 C-22.22469252 21.08226302 -19.79505608 18.79505608 -17.41796875 16.41796875 C-15.01756954 14.01756954 -12.53860682 11.75301355 -10 9.5 C-6.55880755 6.42347123 -3.2094988 3.3164821 0 0 Z " fill="#009ECF" transform="translate(129,123)"/>
<path d="M0 0 C-1.35273151 4.05819454 -3.44428705 4.68087575 -7 7 C-9.20397712 8.85479853 -11.28651536 10.82939331 -13.375 12.8125 C-14.51632191 13.87955391 -15.65824751 14.94596249 -16.80078125 16.01171875 C-17.34814941 16.52395996 -17.89551758 17.03620117 -18.45947266 17.56396484 C-20.47329228 19.44118941 -22.50716948 21.29332646 -24.5625 23.125 C-25.43068359 23.90230469 -25.43068359 23.90230469 -26.31640625 24.6953125 C-28.11777154 26.09126612 -29.93333596 27.05032943 -32 28 C-32 27.34 -32 26.68 -32 26 C-31.34 26 -30.68 26 -30 26 C-30 25.34 -30 24.68 -30 24 C-28.6015625 22.58984375 -28.6015625 22.58984375 -26.625 20.9375 C-22.47079964 17.41048797 -18.42582271 13.77986783 -14.39453125 10.11328125 C-12.72781595 8.64233022 -11.01185178 7.22611502 -9.26171875 5.85546875 C-6.92992241 4.19972427 -6.92992241 4.19972427 -6 2 C-6.99 1.67 -7.98 1.34 -9 1 C-5.92677456 0.08941469 -3.19902639 -0.08886184 0 0 Z " fill="#59D681" transform="translate(244,20)"/>
<path d="M0 0 C0.66 0.33 1.32 0.66 2 1 C-10.84554206 14.02177663 -10.84554206 14.02177663 -17.14453125 19.3671875 C-20.59642396 22.40485309 -23.78867957 25.71181285 -27 29 C-27.66 28.34 -28.32 27.68 -29 27 C-19.34838995 17.98372002 -9.6833971 8.98213413 0 0 Z " fill="#007C88" transform="translate(186,72)"/>
<path d="M0 0 C3 1 3 1 4.6875 4.375 C6 8 6 8 6 11 C6.99 11.33 7.98 11.66 9 12 C9.99 10.02 10.98 8.04 12 6 C12.66 7.32 13.32 8.64 14 10 C12.02 12.64 10.04 15.28 8 18 C5.45339888 15.45339888 4.3836156 12.83116713 2.875 9.5625 C2.33617188 8.40878906 1.79734375 7.25507813 1.2421875 6.06640625 C0 3 0 3 0 0 Z " fill="#002968" transform="translate(94,219)"/>
<path d="M0 0 C2.97 0.99 5.94 1.98 9 3 C8.34 3.66 7.68 4.32 7 5 C7.66 6.98 8.32 8.96 9 11 C7 12 7 12 5.0625 11.5 C1.97545362 9.25487536 1.24053546 6.53552606 0 3 C0 2.01 0 1.02 0 0 Z " fill="#016CB3" transform="translate(6,42)"/>
<path d="M0 0 C0.66 0.33 1.32 0.66 2 1 C-4.00139774 8.22043165 -10.60901099 14.22578983 -18 20 C-18.33 19.34 -18.66 18.68 -19 18 C-18.0625 15.375 -18.0625 15.375 -17 13 C-16.01 13 -15.02 13 -14 13 C-12.41138695 11.91678697 -12.41138695 11.91678697 -10.8984375 10.41015625 C-10.32609375 9.87326172 -9.75375 9.33636719 -9.1640625 8.78320312 C-8.57367188 8.21537109 -7.98328125 7.64753906 -7.375 7.0625 C-6.776875 6.49853516 -6.17875 5.93457031 -5.5625 5.35351562 C-2.75576647 2.70312869 -2.75576647 2.70312869 0 0 Z " fill="#003F80" transform="translate(107,146)"/>
<path d="M0 0 C-4.58863224 3.05908816 -8.53027158 4.14394022 -14 4 C-15.33841672 4.31229724 -16.67139075 4.64830932 -18 5 C-21.625 5.6875 -21.625 5.6875 -25 6 C-25.66 5.34 -26.32 4.68 -27 4 C-26.34773437 3.96261719 -25.69546875 3.92523437 -25.0234375 3.88671875 C-19.32761721 3.48592358 -19.32761721 3.48592358 -14.0625 1.4375 C-9.46971933 -0.71829501 -4.99286164 -0.23987058 0 0 Z " fill="#4BCD87" transform="translate(213,26)"/>
<path d="M0 0 C-1.30855553 1.83615081 -2.62194462 3.66885789 -3.9375 5.5 C-4.66839844 6.5209375 -5.39929688 7.541875 -6.15234375 8.59375 C-6.76207031 9.3878125 -7.37179688 10.181875 -8 11 C-8.33 11 -8.66 11 -9 11 C-9 8.69 -9 6.38 -9 4 C-8.34 4 -7.68 4 -7 4 C-7 3.34 -7 2.68 -7 2 C-7.99 1.34 -8.98 0.68 -10 0 C-6.26432828 -0.76411467 -3.65188082 -1.07174763 0 0 Z " fill="#27966B" transform="translate(250,19)"/>
<path d="M0 0 C0.33 0 0.66 0 1 0 C1 3.63 1 7.26 1 11 C0.34 11 -0.32 11 -1 11 C-1.66 12.98 -2.32 14.96 -3 17 C-3.66 17 -4.32 17 -5 17 C-5.33 17.66 -5.66 18.32 -6 19 C-5.39124245 14.39583374 -4.15277044 10.43516676 -2.4375 6.125 C-1.75494141 4.39636719 -1.75494141 4.39636719 -1.05859375 2.6328125 C-0.70925781 1.76398438 -0.35992187 0.89515625 0 0 Z " fill="#0A9EA4" transform="translate(125,63)"/>
<path d="M0 0 C0.66 0 1.32 0 2 0 C1.37695259 4.07453229 -0.76532621 6.89539701 -3.0625 10.25 C-3.79597656 11.32765625 -4.52945313 12.4053125 -5.28515625 13.515625 C-5.85105469 14.33546875 -6.41695312 15.1553125 -7 16 C-7.6484375 14.2578125 -7.6484375 14.2578125 -8 12 C-7.0390625 9.9296875 -7.0390625 9.9296875 -5.625 7.875 C-5.16351563 7.19179688 -4.70203125 6.50859375 -4.2265625 5.8046875 C-3.82179687 5.20914063 -3.41703125 4.61359375 -3 4 C-2.67 3.34 -2.34 2.68 -2 2 C-1.34 2 -0.68 2 0 2 C0 1.34 0 0.68 0 0 Z " fill="#118873" transform="translate(220,56)"/>
<path d="M0 0 C1.13643966 3.40931897 0.86747764 4.00335456 -0.4375 7.1875 C-0.72496094 7.90292969 -1.01242188 8.61835938 -1.30859375 9.35546875 C-1.53675781 9.89816406 -1.76492187 10.44085938 -2 11 C-4.2841369 8.79721592 -5.79488782 6.96642998 -7 4 C-7 3.01 -7 2.02 -7 1 C-6.01 1.33 -5.02 1.66 -4 2 C-4 2.66 -4 3.32 -4 4 C-3.34 4 -2.68 4 -2 4 C-2 3.34 -2 2.68 -2 2 C-1.34 2 -0.68 2 0 2 C0 1.34 0 0.68 0 0 Z " fill="#022E69" transform="translate(74,176)"/>
<path d="M0 0 C0.66 0.66 1.32 1.32 2 2 C1.66384435 6.81823105 -0.00927064 10.67232747 -2 15 C-2.66 14.67 -3.32 14.34 -4 14 C-3.00956295 9.16371695 -2.04301154 4.52381127 0 0 Z " fill="#038BB7" transform="translate(107,112)"/>
<path d="M0 0 C0 0.66 0 1.32 0 2 C-1.65604297 3.01749667 -3.32523572 4.01362159 -5 5 C-6.80362834 6.52452673 -8.57450937 8.08854862 -10.3125 9.6875 C-11.19550781 10.49574219 -12.07851562 11.30398437 -12.98828125 12.13671875 C-13.65214844 12.75160156 -14.31601563 13.36648437 -15 14 C-15 11 -15 11 -12.48046875 8.30078125 C-11.39064661 7.29612225 -10.29259724 6.30033202 -9.1875 5.3125 C-8.64029297 4.80138672 -8.09308594 4.29027344 -7.52929688 3.76367188 C-3.38373039 0 -3.38373039 0 0 0 Z " fill="#07957F" transform="translate(222,42)"/>
<path d="M0 0 C0.33 0.99 0.66 1.98 1 3 C1.66 3 2.32 3 3 3 C5.71391278 7.77357872 7.56561146 11.34388537 7 17 C2.84327315 12.21976413 0 6.31852692 0 0 Z " fill="#022C66" transform="translate(80,187)"/>
<path d="M0 0 C-1.34684007 4.04052022 -3.44847477 4.77159201 -7 7 C-8.34175973 7.98866506 -9.67896002 8.9838154 -11 10 C-11 7 -11 7 -8.5 4.3125 C-7.675 3.549375 -6.85 2.78625 -6 2 C-6.99 1.67 -7.98 1.34 -9 1 C-5.92677456 0.08941469 -3.19902639 -0.08886184 0 0 Z " fill="#6ADE83" transform="translate(244,20)"/>
<path d="M0 0 C0.99 0.33 1.98 0.66 3 1 C4.18519265 3.43276386 5 5.28017286 5 8 C5.66 8.33 6.32 8.66 7 9 C6.34 10.32 5.68 11.64 5 13 C4.16209211 11.21046815 3.32980604 9.41830305 2.5 7.625 C1.80390625 6.12839844 1.80390625 6.12839844 1.09375 4.6015625 C0 2 0 2 0 0 Z " fill="#012C6C" transform="translate(87,204)"/>
<path d="M0 0 C0 4.05345102 -1.58160112 5.8215329 -4 9 C-4.99 9.33 -5.98 9.66 -7 10 C-7.33 9.34 -7.66 8.68 -8 8 C-7.34 8 -6.68 8 -6 8 C-5.62875 6.576875 -5.62875 6.576875 -5.25 5.125 C-4 2 -4 2 -1.875 0.625 C-0.946875 0.315625 -0.946875 0.315625 0 0 Z " fill="#0A8678" transform="translate(211,72)"/>
<path d="M0 0 C4.72065967 1.54269924 9.41664092 3.07794619 14 5 C13.01 5.66 12.02 6.32 11 7 C8.30078125 6.1015625 8.30078125 6.1015625 5.3125 4.625 C4.31863281 4.14289063 3.32476562 3.66078125 2.30078125 3.1640625 C1.16189453 2.58785156 1.16189453 2.58785156 0 2 C0 1.34 0 0.68 0 0 Z " fill="#058FBB" transform="translate(62,66)"/>
<path d="M0 0 C0 3.61137513 -0.92530082 4.74732191 -2.9375 7.6875 C-3.48277344 8.49574219 -4.02804688 9.30398437 -4.58984375 10.13671875 C-5.05519531 10.75160156 -5.52054688 11.36648437 -6 12 C-6.33 12 -6.66 12 -7 12 C-7 10.35 -7 8.7 -7 7 C-6.34 7 -5.68 7 -5 7 C-4.731875 6.030625 -4.46375 5.06125 -4.1875 4.0625 C-3.5996875 2.5465625 -3.5996875 2.5465625 -3 1 C-2.01 0.67 -1.02 0.34 0 0 Z " fill="#096D72" transform="translate(194,97)"/>
<path d="M0 0 C5.06998019 0.65419099 9.41990777 2.8546409 14 5 C13.01 5.66 12.02 6.32 11 7 C8.5546875 6.42578125 8.5546875 6.42578125 5.875 5.3125 C4.98554687 4.95800781 4.09609375 4.60351562 3.1796875 4.23828125 C1 3 1 3 0 0 Z " fill="#0387B8" transform="translate(48,60)"/>
<path d="M0 0 C3 1 3 1 4.16796875 3.28515625 C4.50441406 4.20167969 4.84085938 5.11820312 5.1875 6.0625 C5.53167969 6.98160156 5.87585938 7.90070313 6.23046875 8.84765625 C6.48441406 9.55792969 6.73835938 10.26820312 7 11 C6.34 11.66 5.68 12.32 5 13 C4.16209211 11.21046815 3.32980604 9.41830305 2.5 7.625 C1.80390625 6.12839844 1.80390625 6.12839844 1.09375 4.6015625 C0 2 0 2 0 0 Z " fill="#00458D" transform="translate(23,80)"/>
<path d="M0 0 C3.42931954 3.7559214 4.56429083 8.23466745 6 13 C3 12 3 12 1.3125 8.75 C0.16055679 5.45873369 -0.31025348 3.4127883 0 0 Z " fill="#037CAC" transform="translate(92,88)"/>
<path d="M0 0 C0 3.63195496 -0.95453155 4.74713911 -3 7.6875 C-3.556875 8.49574219 -4.11375 9.30398437 -4.6875 10.13671875 C-5.120625 10.75160156 -5.55375 11.36648437 -6 12 C-6.66 11.67 -7.32 11.34 -8 11 C-7.34 9.68 -6.68 8.36 -6 7 C-5.34 7 -4.68 7 -4 7 C-3.8453125 5.824375 -3.8453125 5.824375 -3.6875 4.625 C-3 2 -3 2 0 0 Z " fill="#022D65" transform="translate(119,209)"/>
<path d="M0 0 C4.38889325 0.66498383 7.9811485 2.18757677 12 4 C9 6 9 6 6.9921875 5.64453125 C6.29351562 5.36996094 5.59484375 5.09539063 4.875 4.8125 C4.17117187 4.55082031 3.46734375 4.28914063 2.7421875 4.01953125 C1 3 1 3 0 0 Z " fill="#0380B2" transform="translate(36,55)"/>
<path d="M0 0 C0 2.31 0 4.62 0 7 C-0.99 7.33 -1.98 7.66 -3 8 C-3 6.68 -3 5.36 -3 4 C-3.66 3.67 -4.32 3.34 -5 3 C-2.25 0 -2.25 0 0 0 Z " fill="#22A979" transform="translate(241,24)"/>
<path d="M0 0 C1.32 0.66 2.64 1.32 4 2 C2.68 4.31 1.36 6.62 0 9 C-0.33 9 -0.66 9 -1 9 C-1.125 2.25 -1.125 2.25 0 0 Z " fill="#0089C6" transform="translate(95,145)"/>
<path d="M0 0 C2.31 0.33 4.62 0.66 7 1 C6.01 1.495 6.01 1.495 5 2 C4.34786708 4.02463255 4.34786708 4.02463255 4 6 C1.7522025 3.94766315 0.9977758 2.99332739 0 0 Z " fill="#007ECB" transform="translate(12,46)"/>
<path d="M0 0 C0.99 0 1.98 0 3 0 C2.67 1.32 2.34 2.64 2 4 C2.99 4 3.98 4 5 4 C4.67 5.65 4.34 7.3 4 9 C1.49701566 6.06171403 0.53069061 3.82097239 0 0 Z " fill="#003278" transform="translate(53,146)"/>
<path d="M0 0 C0 4.01474237 -1.66781767 5.81975137 -4 9 C-4.33 9 -4.66 9 -5 9 C-5.3125 6.75 -5.3125 6.75 -5 4 C-2.5 1.6875 -2.5 1.6875 0 0 Z " fill="#013066" transform="translate(127,197)"/>
<path d="M0 0 C1.625 1.5625 1.625 1.5625 3 4 C2.1875 7.75 2.1875 7.75 1 11 C0.67 11 0.34 11 0 11 C-1.125 3.375 -1.125 3.375 0 0 Z " fill="#0475A6" transform="translate(98,101)"/>
<path d="M0 0 C0.66 0 1.32 0 2 0 C2.144375 0.78375 2.28875 1.5675 2.4375 2.375 C2.87798925 4.96421018 2.87798925 4.96421018 4 7 C3.34 7.66 2.68 8.32 2 9 C0.4375 6.1875 0.4375 6.1875 -1 3 C-0.67 2.01 -0.34 1.02 0 0 Z " fill="#003075" transform="translate(62,164)"/>
<path d="M0 0 C0.66 0 1.32 0 2 0 C2 1.32 2 2.64 2 4 C2.99 4 3.98 4 5 4 C4.67 5.65 4.34 7.3 4 9 C1.49701566 6.06171403 0.53069061 3.82097239 0 0 Z " fill="#00377B" transform="translate(43,124)"/>
<path d="M0 0 C3.55780196 0.60990891 6.6828589 1.5783681 10 3 C10 3.33 10 3.66 10 4 C7.03 3.67 4.06 3.34 1 3 C0.67 2.01 0.34 1.02 0 0 Z " fill="#0788AF" transform="translate(76,72)"/>
<path d="M0 0 C1.61949011 2.57213134 2.04408751 3.67669159 1.625 6.75 C1.41875 7.4925 1.2125 8.235 1 9 C0.01 8.67 -0.98 8.34 -2 8 C-1.34 5.36 -0.68 2.72 0 0 Z " fill="#0D9994" transform="translate(130,49)"/>
<path d="M0 0 C0.99 0 1.98 0 3 0 C2.38722388 2.96175123 1.74627478 4.38058783 0 7 C-0.93423645 3.98968256 -1.04449911 3.13349732 0 0 Z " fill="#0292C4" transform="translate(104,120)"/>
<path d="M0 0 C0.33 0.66 0.66 1.32 1 2 C-0.65 4.31 -2.3 6.62 -4 9 C-4.33 7.68 -4.66 6.36 -5 5 C-2.5625 2.25 -2.5625 2.25 0 0 Z " fill="#095862" transform="translate(186,109)"/>
<path d="M0 0 C-0.66 0.66 -1.32 1.32 -2 2 C-4.72869407 1.96712417 -7.2966618 1.43602229 -10 1 C-10 0.67 -10 0.34 -10 0 C-6.33694766 -0.74926071 -3.57644848 -1.2380014 0 0 Z " fill="#3C8F63" transform="translate(250,19)"/>
</svg>
